<mxfile host="app.diagrams.net" agent="Mozilla/5.0 (Windows NT 10.0; Win64; x64) AppleWebKit/537.36 (KHTML, like Gecko) Chrome/136.0.0.0 Safari/537.36" version="26.2.15">
  <diagram name="Trang-1" id="PHECSv-hWMSYuroOksg5">
    <mxGraphModel dx="2026" dy="681" grid="1" gridSize="10" guides="1" tooltips="1" connect="1" arrows="1" fold="1" page="0" pageScale="1" pageWidth="827" pageHeight="1169" math="0" shadow="0">
      <root>
        <mxCell id="0" />
        <mxCell id="1" parent="0" />
        <mxCell id="_GYrti46DQ62szRbojxJ-1" value="" style="rounded=0;whiteSpace=wrap;html=1;dashed=1;strokeColor=light-dark(#828282, #ededed);fillColor=none;movable=1;resizable=1;rotatable=1;deletable=1;editable=1;locked=0;connectable=1;" vertex="1" parent="1">
          <mxGeometry x="-430" y="70" width="150" height="610" as="geometry" />
        </mxCell>
        <mxCell id="_GYrti46DQ62szRbojxJ-3" value="Sources" style="rounded=0;whiteSpace=wrap;html=1;strokeColor=none;fontSize=20;" vertex="1" parent="1">
          <mxGeometry x="-400" y="50" width="90" height="40" as="geometry" />
        </mxCell>
        <mxCell id="_GYrti46DQ62szRbojxJ-4" value="" style="rounded=0;whiteSpace=wrap;html=1;dashed=1;strokeColor=light-dark(#828282, #ededed);fillColor=none;" vertex="1" parent="1">
          <mxGeometry x="-230" y="70" width="630" height="610" as="geometry" />
        </mxCell>
        <mxCell id="_GYrti46DQ62szRbojxJ-5" value="Data Warehouse" style="rounded=0;whiteSpace=wrap;html=1;strokeColor=none;fontSize=20;" vertex="1" parent="1">
          <mxGeometry x="-10" y="50" width="180" height="40" as="geometry" />
        </mxCell>
        <mxCell id="_GYrti46DQ62szRbojxJ-6" value="" style="rounded=0;whiteSpace=wrap;html=1;dashed=1;strokeColor=light-dark(#828282, #ededed);fillColor=none;" vertex="1" parent="1">
          <mxGeometry x="470" y="70" width="200" height="610" as="geometry" />
        </mxCell>
        <mxCell id="_GYrti46DQ62szRbojxJ-7" value="Consume" style="rounded=0;whiteSpace=wrap;html=1;strokeColor=none;fontSize=20;" vertex="1" parent="1">
          <mxGeometry x="531.5" y="50" width="90" height="40" as="geometry" />
        </mxCell>
        <mxCell id="_GYrti46DQ62szRbojxJ-8" value="&lt;font style=&quot;font-size: 16px;&quot;&gt;Bronze layer&lt;/font&gt;" style="rounded=0;whiteSpace=wrap;html=1;fillColor=#ffe6cc;strokeColor=#d79b00;" vertex="1" parent="1">
          <mxGeometry x="-200" y="100" width="160" height="30" as="geometry" />
        </mxCell>
        <mxCell id="_GYrti46DQ62szRbojxJ-9" value="" style="rounded=0;whiteSpace=wrap;html=1;strokeColor=#d79b00;dashed=1;fillColor=none;" vertex="1" parent="1">
          <mxGeometry x="-200" y="140" width="160" height="520" as="geometry" />
        </mxCell>
        <mxCell id="_GYrti46DQ62szRbojxJ-10" value="" style="rounded=0;whiteSpace=wrap;html=1;strokeColor=#666666;dashed=1;fillColor=none;fontColor=#333333;strokeWidth=1;" vertex="1" parent="1">
          <mxGeometry y="140" width="160" height="520" as="geometry" />
        </mxCell>
        <mxCell id="_GYrti46DQ62szRbojxJ-11" value="&lt;font style=&quot;font-size: 16px;&quot;&gt;Silver layer&lt;/font&gt;" style="rounded=0;whiteSpace=wrap;html=1;fillColor=#f5f5f5;strokeColor=#666666;fontColor=#333333;" vertex="1" parent="1">
          <mxGeometry y="95" width="160" height="30" as="geometry" />
        </mxCell>
        <mxCell id="_GYrti46DQ62szRbojxJ-12" value="" style="rounded=0;whiteSpace=wrap;html=1;strokeColor=#d6b656;dashed=1;fillColor=none;" vertex="1" parent="1">
          <mxGeometry x="200" y="140" width="160" height="520" as="geometry" />
        </mxCell>
        <mxCell id="_GYrti46DQ62szRbojxJ-13" value="&lt;font style=&quot;font-size: 16px;&quot;&gt;Gold layer&lt;/font&gt;" style="rounded=0;whiteSpace=wrap;html=1;fillColor=#fff2cc;strokeColor=#d6b656;" vertex="1" parent="1">
          <mxGeometry x="200" y="95" width="160" height="30" as="geometry" />
        </mxCell>
        <mxCell id="_GYrti46DQ62szRbojxJ-14" value="" style="image;aspect=fixed;html=1;points=[];align=center;fontSize=12;image=img/lib/azure2/general/Folder_Blank.svg;" vertex="1" parent="1">
          <mxGeometry x="-385.65" y="155" width="49.3" height="40" as="geometry" />
        </mxCell>
        <mxCell id="_GYrti46DQ62szRbojxJ-15" value="" style="verticalLabelPosition=bottom;html=1;verticalAlign=top;align=center;strokeColor=none;fillColor=#00BEF2;shape=mxgraph.azure.cloud_services_configuration_file;pointerEvents=1;" vertex="1" parent="1">
          <mxGeometry x="-348.35" y="185" width="18" height="20" as="geometry" />
        </mxCell>
        <mxCell id="_GYrti46DQ62szRbojxJ-17" value="" style="image;aspect=fixed;html=1;points=[];align=center;fontSize=12;image=img/lib/azure2/general/Folder_Blank.svg;" vertex="1" parent="1">
          <mxGeometry x="-382.65" y="250" width="49.3" height="40" as="geometry" />
        </mxCell>
        <mxCell id="_GYrti46DQ62szRbojxJ-19" value="CRM" style="rounded=0;whiteSpace=wrap;html=1;strokeColor=none;fontStyle=1" vertex="1" parent="1">
          <mxGeometry x="-381" y="205" width="40" height="20" as="geometry" />
        </mxCell>
        <mxCell id="_GYrti46DQ62szRbojxJ-20" value="ERP" style="rounded=0;whiteSpace=wrap;html=1;strokeColor=none;fontStyle=1" vertex="1" parent="1">
          <mxGeometry x="-380.65" y="300" width="40" height="20" as="geometry" />
        </mxCell>
        <mxCell id="_GYrti46DQ62szRbojxJ-16" value="" style="verticalLabelPosition=bottom;html=1;verticalAlign=top;align=center;strokeColor=none;fillColor=#00BEF2;shape=mxgraph.azure.cloud_services_configuration_file;pointerEvents=1;" vertex="1" parent="1">
          <mxGeometry x="-340.65000000000003" y="280" width="18" height="20" as="geometry" />
        </mxCell>
        <mxCell id="_GYrti46DQ62szRbojxJ-24" value="" style="endArrow=none;html=1;rounded=0;" edge="1" parent="1">
          <mxGeometry width="50" height="50" relative="1" as="geometry">
            <mxPoint x="-412" y="365" as="sourcePoint" />
            <mxPoint x="-298" y="365" as="targetPoint" />
          </mxGeometry>
        </mxCell>
        <mxCell id="_GYrti46DQ62szRbojxJ-25" value="&lt;b&gt;Object type&lt;/b&gt;: CSV file&lt;div&gt;&lt;br&gt;&lt;div&gt;&lt;b&gt;Interface&lt;/b&gt;: Files in folder&lt;/div&gt;&lt;/div&gt;" style="rounded=0;whiteSpace=wrap;html=1;align=left;spacing=3;spacingTop=0;strokeColor=none;fillColor=none;" vertex="1" parent="1">
          <mxGeometry x="-420" y="385" width="140" height="60" as="geometry" />
        </mxCell>
        <mxCell id="_GYrti46DQ62szRbojxJ-27" value="" style="html=1;verticalLabelPosition=bottom;align=center;labelBackgroundColor=#ffffff;verticalAlign=top;strokeWidth=2;strokeColor=#d79b00;shadow=0;dashed=0;shape=mxgraph.ios7.icons.data;fillColor=#ffe6cc;" vertex="1" parent="1">
          <mxGeometry x="-145" y="185" width="50" height="55" as="geometry" />
        </mxCell>
        <mxCell id="_GYrti46DQ62szRbojxJ-28" value="" style="html=1;verticalLabelPosition=bottom;align=center;labelBackgroundColor=#ffffff;verticalAlign=top;strokeWidth=2;strokeColor=#666666;shadow=0;dashed=0;shape=mxgraph.ios7.icons.data;fillColor=#f5f5f5;fontColor=#333333;" vertex="1" parent="1">
          <mxGeometry x="55" y="185" width="50" height="55" as="geometry" />
        </mxCell>
        <mxCell id="_GYrti46DQ62szRbojxJ-29" value="" style="html=1;verticalLabelPosition=bottom;align=center;labelBackgroundColor=#ffffff;verticalAlign=top;strokeWidth=2;strokeColor=#d6b656;shadow=0;dashed=0;shape=mxgraph.ios7.icons.data;fillColor=#fff2cc;" vertex="1" parent="1">
          <mxGeometry x="255" y="185" width="50" height="55" as="geometry" />
        </mxCell>
        <mxCell id="_GYrti46DQ62szRbojxJ-30" value="" style="shape=flexArrow;endArrow=classic;html=1;rounded=0;width=17;endSize=8.25;fillColor=#dae8fc;strokeColor=#6c8ebf;" edge="1" parent="1">
          <mxGeometry width="50" height="50" relative="1" as="geometry">
            <mxPoint x="-290" y="285" as="sourcePoint" />
            <mxPoint x="-190" y="284.5" as="targetPoint" />
          </mxGeometry>
        </mxCell>
        <mxCell id="_GYrti46DQ62szRbojxJ-33" value="" style="shape=flexArrow;endArrow=classic;html=1;rounded=0;exitX=1;exitY=0.5;exitDx=0;exitDy=0;entryX=-0.007;entryY=0.455;entryDx=0;entryDy=0;entryPerimeter=0;width=17;endSize=8.25;fillColor=#dae8fc;strokeColor=#6c8ebf;" edge="1" parent="1">
          <mxGeometry width="50" height="50" relative="1" as="geometry">
            <mxPoint x="-50" y="288.57" as="sourcePoint" />
            <mxPoint x="23" y="288.57" as="targetPoint" />
          </mxGeometry>
        </mxCell>
        <mxCell id="_GYrti46DQ62szRbojxJ-36" value="" style="shape=flexArrow;endArrow=classic;html=1;rounded=0;exitX=1;exitY=0.5;exitDx=0;exitDy=0;entryX=-0.007;entryY=0.455;entryDx=0;entryDy=0;entryPerimeter=0;width=17;endSize=8.25;fillColor=#dae8fc;strokeColor=#6c8ebf;" edge="1" parent="1">
          <mxGeometry width="50" height="50" relative="1" as="geometry">
            <mxPoint x="150" y="300" as="sourcePoint" />
            <mxPoint x="223" y="300" as="targetPoint" />
          </mxGeometry>
        </mxCell>
        <mxCell id="_GYrti46DQ62szRbojxJ-39" value="Raw data" style="text;html=1;align=center;verticalAlign=middle;whiteSpace=wrap;rounded=0;fontSize=15;" vertex="1" parent="1">
          <mxGeometry x="-155" y="250" width="70" height="30" as="geometry" />
        </mxCell>
        <mxCell id="_GYrti46DQ62szRbojxJ-40" value="Clean, Standardized Data" style="text;html=1;align=center;verticalAlign=middle;whiteSpace=wrap;rounded=0;fontSize=15;" vertex="1" parent="1">
          <mxGeometry x="10" y="250" width="140" height="30" as="geometry" />
        </mxCell>
        <mxCell id="_GYrti46DQ62szRbojxJ-43" value="Business-Ready Data" style="text;html=1;align=center;verticalAlign=middle;whiteSpace=wrap;rounded=0;fontSize=15;" vertex="1" parent="1">
          <mxGeometry x="237.5" y="260" width="85" height="30" as="geometry" />
        </mxCell>
        <mxCell id="_GYrti46DQ62szRbojxJ-44" value="" style="endArrow=none;html=1;rounded=0;fillColor=#ffe6cc;strokeColor=#d79b00;" edge="1" parent="1">
          <mxGeometry width="50" height="50" relative="1" as="geometry">
            <mxPoint x="-177" y="290" as="sourcePoint" />
            <mxPoint x="-63" y="290" as="targetPoint" />
          </mxGeometry>
        </mxCell>
        <mxCell id="_GYrti46DQ62szRbojxJ-45" value="" style="endArrow=none;html=1;rounded=0;fillColor=#f5f5f5;strokeColor=#666666;" edge="1" parent="1">
          <mxGeometry width="50" height="50" relative="1" as="geometry">
            <mxPoint x="23" y="290" as="sourcePoint" />
            <mxPoint x="137" y="290" as="targetPoint" />
          </mxGeometry>
        </mxCell>
        <mxCell id="_GYrti46DQ62szRbojxJ-46" value="" style="endArrow=none;html=1;rounded=0;fillColor=#fff2cc;strokeColor=#d6b656;" edge="1" parent="1">
          <mxGeometry width="50" height="50" relative="1" as="geometry">
            <mxPoint x="223" y="319" as="sourcePoint" />
            <mxPoint x="337" y="319" as="targetPoint" />
          </mxGeometry>
        </mxCell>
        <mxCell id="_GYrti46DQ62szRbojxJ-47" value="&lt;b&gt;Object type&lt;/b&gt;: Tables&amp;nbsp;&lt;div&gt;&lt;br&gt;&lt;div&gt;&lt;b&gt;Load&lt;/b&gt;:&amp;nbsp;&lt;/div&gt;&lt;/div&gt;&lt;div&gt;&lt;ul&gt;&lt;li&gt;Batch Processing&lt;/li&gt;&lt;li&gt;Full Load&lt;/li&gt;&lt;li&gt;Truncate &amp;amp; Insert&lt;/li&gt;&lt;/ul&gt;No &lt;b&gt;Transformation&lt;/b&gt;&lt;/div&gt;&lt;div&gt;&lt;br&gt;&lt;/div&gt;&lt;div&gt;&lt;b&gt;Data Model&lt;/b&gt;: None (as-is)&lt;/div&gt;" style="rounded=0;whiteSpace=wrap;html=1;align=left;spacing=3;spacingTop=0;strokeColor=none;fillColor=none;" vertex="1" parent="1">
          <mxGeometry x="-180" y="365" width="150" height="60" as="geometry" />
        </mxCell>
        <mxCell id="_GYrti46DQ62szRbojxJ-48" value="&lt;b&gt;Object type&lt;/b&gt;: Tables&amp;nbsp;&lt;div&gt;&lt;br&gt;&lt;/div&gt;&lt;div&gt;&lt;b&gt;Load&lt;/b&gt;:&amp;nbsp;&lt;/div&gt;&lt;div&gt;&lt;ul&gt;&lt;li&gt;Batch Processing&amp;nbsp;&lt;/li&gt;&lt;li&gt;Fulll Load&lt;/li&gt;&lt;li&gt;Truncate &amp;amp; Insert&lt;/li&gt;&lt;/ul&gt;&lt;b&gt;Transformations:&lt;/b&gt;&lt;/div&gt;&lt;div&gt;&lt;ul&gt;&lt;li&gt;Data Cleaning&lt;/li&gt;&lt;li&gt;Data Standrization&lt;/li&gt;&lt;li&gt;Data Normalization&lt;/li&gt;&lt;li&gt;Derived Columns&lt;/li&gt;&lt;li&gt;Data Enrichment&lt;/li&gt;&lt;/ul&gt;&lt;b&gt;Data Mode&lt;/b&gt;l: None (as-is)&lt;/div&gt;" style="rounded=0;whiteSpace=wrap;html=1;align=left;spacing=3;spacingTop=0;strokeColor=none;fillColor=none;" vertex="1" parent="1">
          <mxGeometry x="5" y="410" width="160" height="60" as="geometry" />
        </mxCell>
        <mxCell id="_GYrti46DQ62szRbojxJ-49" value="&lt;b&gt;Object type&lt;/b&gt;: Views&lt;div&gt;&lt;br&gt;&lt;div&gt;No &lt;b&gt;Load&lt;/b&gt;&lt;/div&gt;&lt;/div&gt;&lt;div&gt;&lt;b&gt;&lt;br&gt;&lt;/b&gt;&lt;/div&gt;&lt;div&gt;&lt;b&gt;Transformation:&lt;/b&gt;&lt;/div&gt;&lt;div&gt;&lt;ul&gt;&lt;li&gt;Data Integrations&lt;/li&gt;&lt;li&gt;Aggregations&lt;/li&gt;&lt;li&gt;Bunsiness Logics&lt;/li&gt;&lt;/ul&gt;&lt;b&gt;Data Model:&lt;/b&gt;&lt;/div&gt;&lt;div&gt;&lt;ul&gt;&lt;li&gt;Star Schema&lt;/li&gt;&lt;li&gt;Flat Table&lt;/li&gt;&lt;li&gt;Aggregated Table&lt;/li&gt;&lt;/ul&gt;&lt;/div&gt;" style="rounded=0;whiteSpace=wrap;html=1;align=left;spacing=3;spacingTop=0;strokeColor=none;fillColor=none;" vertex="1" parent="1">
          <mxGeometry x="210" y="420" width="140" height="60" as="geometry" />
        </mxCell>
        <mxCell id="_GYrti46DQ62szRbojxJ-50" value="" style="shape=flexArrow;endArrow=classic;html=1;rounded=0;exitX=1;exitY=0.5;exitDx=0;exitDy=0;width=17;endSize=8.25;fillColor=#dae8fc;strokeColor=#6c8ebf;" edge="1" parent="1">
          <mxGeometry width="50" height="50" relative="1" as="geometry">
            <mxPoint x="400" y="289.5" as="sourcePoint" />
            <mxPoint x="480" y="289.5" as="targetPoint" />
          </mxGeometry>
        </mxCell>
        <mxCell id="_GYrti46DQ62szRbojxJ-55" value="" style="shape=image;verticalLabelPosition=bottom;labelBackgroundColor=default;verticalAlign=top;aspect=fixed;imageAspect=0;image=https://upload.wikimedia.org/wikipedia/commons/thumb/c/cf/New_Power_BI_Logo.svg/1200px-New_Power_BI_Logo.svg.png;" vertex="1" parent="1">
          <mxGeometry x="500" y="155" width="60" height="60" as="geometry" />
        </mxCell>
        <mxCell id="_GYrti46DQ62szRbojxJ-60" value="" style="shape=image;verticalLabelPosition=bottom;labelBackgroundColor=default;verticalAlign=top;aspect=fixed;imageAspect=0;image=https://cdn.iconscout.com/icon/free/png-256/free-tableau-icon-download-in-svg-png-gif-file-formats--software-logo-freebies-pack-logos-icons-4489897.png;" vertex="1" parent="1">
          <mxGeometry x="570" y="149.5" width="65.5" height="65.5" as="geometry" />
        </mxCell>
        <mxCell id="_GYrti46DQ62szRbojxJ-61" value="" style="shape=image;verticalLabelPosition=bottom;labelBackgroundColor=default;verticalAlign=top;aspect=fixed;imageAspect=0;image=data:image/png,iVBORw0KGgoAAAANSUhEUgAAAgAAAAIACAYAAAD0eNT6AAAAAXNSR0IArs4c6QAAIABJREFUeAHtnQmYnEWd/4dACEe45AaBXEQ5dHXxQERAReRI94BudtXVdXV3XddVF/8qk4swCVfCkYszIofIGeRIv50IgoInYmYySSbXXLkTcif99uQ+6v/UQONkpqfft/ut6req69PPM8/M9HtV/d5v/b6fet96662q4mNsBL708rZTk+ns0GQ6e2PCyz6ZTPmzkp7flvT8jUnP35H0fMEPMXBRA2dOaFn2gXuW9Te28VIwIkAEiEBRERDioEQqe2nSy9yb8PyFLiZ26gzQhNHAMWMbxeGj5+7qd8/SLxbVxliZCBABImBSBJLTt52W9DJjk2l/aZjkxzqYpOsaOObm+aKqpk70HjF7f/+JrT8xqT1TFiJABIhAYASunrHlrISXnZz0/O2uJ3TqD9QUo4GjxzZ2AICEgIOG1Ysz7m6eFtjgWIEIEAEiEHcErnhl7ZFJzx+f9PzdxSQ91sUk0cA7GugMABIC5M9Jty9sHDSlpU/c7ZvjEwEiQATyRiCZ9pNJL7ucRI6Zo4HSNZAPACQEHHvzgg3nTmo7M2/j40siQASIQBwRuGqm6PPu5f79JP7SEz+xI3ZSA0eN+fstgNwVgNzvI0bP2T1wcuuVcbRzjkkEiAAROCAC797rr8O8MC80oEYDhQBAgkDvkQ37+01su/6Ahsg/RIAIEIFyRqD6pey5SS+zgsSvJvETR+IoNRAEABICOgYH3tXyTDnbO8ciAkSACHREoDrtX5T0/M2YFqaFBtRq4Kjaee89BZC79N/T71PGL6o/t3bBoaQlIkAEiEBZIlA9o/1DSc/fQuJXm/iJJ/GUGjhqTHgAkGBw3M3zN5x/X+sZZWn8HIQIEAF3I3BNeuuApOe/jVlhVmhAjwb6FnEFIHdl4Mjaxh1nT2q+xN3MRM2JABHQGoHk9A1HJT1/MYlfT+InrsRVaqAUAJAg0HvknH39J7b8r9YkwM6JABFwMwLVnv84JoVJoQG9GigVACQE9JIzB05o+bmbGYpaEwEioCUCybT/bRK/3sRPfImv1MCRtXNDDwLM3QLo+vukcYvqLqsVh2hJBuyUCBABdyKQnN5+MoP+MCcApTwaOPKm6AAggeC4WxeuH/xA0+nuZCpqSgSIgPIIJL3sEyT/8iR/4kycVVwByF0ROLJ23o6Bk1svUp4U2CERIAKVH4EhKf/ipOczxa+HMQEn5dGASgCQIHDoqIZ9/SY0f7fysxU1JAJEQGkEkl7mVRJ/eRI/cSbOUgNHKLoFkLsKIH/3Gl4nzpzYPFVpcmBnRIAIVG4ErvUyn8CUMCU0UF4N6ACAHAycPH7xHAYHVm7OpmZEQFkEqj3/VyT/8iZ/4k28jxg9J/JTADnDz/f7+FsXrho0peVEZYmCHREBIlBZERj6cuZ9Sc/fiSFhSGigvBo4/Ca9ACChoO+YudsH3b/0wsrKWtSGCBABJRFIepnvk/jLm/iJN/GWGjhc8xWA3FWBPqMa9g2Y3PwtJQmDnRABIlA5Eaj2/L9gSBgSGii/Bg6/Uc08ADmjL/S7Y+bAu1vurZzMRU2IABGIFIGhr24+Jun5e0n+5U/+xJyYHz66fADQAQfD6sRp45veZHBgpLTJxkSgMiKQTPtJjAgjQgPxaOCwG/WPAch3VeD42xesHDy16YTKyGLUgggQgZIikEj7E0j+8SR/4k7c4wIACQV9x8zbNuCeto+VlDjYiAgQAfsjUO1lXsOIMCI0EI8G4gQACQF9RjXsHTR5yTfsz2TUgAgQgaIjkPT8VST/eJI/cSfucQOAhAA5OPCsiQwOLDp5sgERsDkCV7yy9kjm/seEAJH4NNAnpjEA3cYFDKsTp9656I2qWtHL5pxG2YkAEQgZgetm+INJ/vElf2JP7PuMimcQYDcAqKnrmJHw+FsXLDvz/uXHhUwhrEYEiICtEbg2vfUCTAgTQgPxaaDPqAatUwH3ZPSFvj96bGO2/6QlH7Y1r1FuIkAEQkTgWi97Gck/vuRP7In9oQYCgISDjsGB97R8PUQaYRUiQARsjEAynbkGE8KE0EB8GjAVACQEHDx89v4zJ7bcZmNuo8xEgAgERKDa8xMk//iSP7En9oeONO8WwAG3B3KDAwNyCYuJABGwLAIAAAYEhMSrAeMB4N3BgSfctnD5eRNWvs+yFEdxiQAR6CkCAEC8yR/zJf4m3wI44EpATZ04ZmyjP/CB1vN7yid8TwSIgEURAAAwICAkXg30HjnbuKcAuhp/5/8PGzVn74CJzV+1KM1RVCJABPJFAACIN/ljvsTfNgCQMCAHB/ZjcGC+lMp3RMCeCAAAGBAQEq8GbASAjisCDA60J9FTUiKQLwIAQLzJH/Ml/oeMsOsWQOfbAfLvE29f1HTufev75ssvfEcEiIDBEQAAMCAgJF4N2A4AEgKOGTs/M2jK8nMNTnUUjQgQga4RAADiTf6YL/E/ZHi9VYMAu14ByP1/+Oi5uwdNWZLommP4nwgQAUMjAABgQEBIvBqoFACQIHDIiIb9/Se13mxouqNYRIAIdI4AABBv8sd8if/BIyrjCkDuSsBBw+rF6ROaZnbOM/xNBIiAgREAADAgICReDRxcIbcAcgCQ+33iuEWLL5i65ggD0x5FIgJEQEYAAIg3+WO+xP/g4XY/BZAz/Hy/5eDAwVOXfpBsSwSIgIERAAAwICAkXg30qmAAkFAgBweePWXZNQamP4pEBNyOAAAQb/LHfIl/rwq9BdD5isAhwxvkzIG1bmdbak8EDIsAAIABASHxaqDXsMoaBNjZ+Dv/LQcHvv+upucNS4EUhwi4GwEAIN7kj/kSfxeuAHQGgZPHLVzI4EB3PYeaGxQBAAADAkLi1YDsGXc2SBf+PvaWBRvPuWvJWQalQopCBNyLAAAQb/LHfIm/iwAgIefw0XN2D7i37Wr3si41JgKGRAAAwICAkHg14CoASAjoPVLOHLjkx4akQ4pBBNyKAAAQb/LHfIn/QTV1zt0C6HybQwLQGRNannUr81JbImBABAAADAgIiVcDVcPcBoAcDMjBgf0eXXqYAWmRIhABNyIAAMSb/DFf4p8zQH7XieNumc/gQDesh1qaEAEAAAMCQuLVAMZ/4BWQI26at2vQfUuuMCE/UgYiUNERAADiTf6Yr+PxT/lO3//vCX56j2jYP2BK2/UVnXypHBGIOwIAgOMG5FH/OCEs4QEAPUGAnCHxrLtbHo47R3J8IlCxEQAAMMA4DdD1YydSGa4ABDwFcfL4xXPOrV1waMUmYSpGBOKKAAAAALhuwnHWHwA48P5/T1cDjrt5/obz72s9I648yXGJQEVGAAAAAOI0QNePDQCEAwAJBkfWNu4YPKnt4opMxFSKCMQRAQAAAHDdhOOs/5Dp3ALoqdef73s5OLDfpNYfxpErOSYRqLgIAAAAQJwG6PqxhzAGoOgxEL2G14kz7256qOKSMRUiAuWOAAAAALhuwnHWnysA4W8BdL0iIAcHXlYrDil3zuR4RKBiIgAAAABxGqDrxx4yfWvRPeCuRujy/8fdsmD94AeaTq+YhExFiEA5IwAAAACum3Cc9b8GAIgMQH3HzNsxcHLrReXMmxyLCFREBAAAACBOA3T92NcwCDAyAMgrIIeOatjXf/KS/62IpEwliEC5IgAAAACum3Cc9b/mJZ4CUHUL453Bgc0Plit3chwiYH0EAAAAIE4DdP3YV3MFQMkVgPcgYlidOG1805sMDrTemqhAOSIAAAAArptwnPUHAEp/CuA9088zlfDxty5cNXhq0wnlyKEcgwhYGwEAAACI0wBdP/bVL/EUQCEjj7Ks75i52wfdv/RCa5MzBScCuiMAAAAArptwnPUHAPRcAciBQ59RDfsGTm79pu48yv6JgJURAAAAgDgN0PVjX/UiVwByZq3r9zuvFW6+38oETaGJgM4IAAAAgOsmHGf9AQC9VwDegwoGB+q0EfZtawQAAAAgTgN0/dgAQJkA4N2BgsfftmAlgwNtdSvKrTwCAAAA4LoJx1n/K1/YovYxuDwj4t/rBbOsI9ZycODZ9y79pPJkyg6JgG0RAAAAgDgN0PVjX/kiABAHoPQZ1bB30OQl37AtX1NeIqA0AgAAAOC6CcdZfwCgvLcAOsPGwcPrRb9JbeOUJlR2RgRsigAAAADEaYCuH5tbAPEBQAcMDKsTp9656I2qWtHLprxNWYmAkggAAACA6yYcZ/0BgJgB4O+DA5efN2Hl+5QkVXZCBGyJAAAAAMRpgK4f+4sMAjRmEOTRYxuz/Sct+bAtuZtyEoHIEQAAAADXTTjO+n/xhc3GGGDn++Ou/i0HBw6Y3Pa1yImVHRABGyIAAAAAcRqg68f+4vMAgGmwcfDw2fvPnNByuw35mzISgUgRAAAAANdNOM76XwEAmHkFJDc4MFJ2ZWMiYHgEAAAAIE4DdP3YAIAZgwB7ugpxwm0Ll/V7dOmxhqdxikcESosAAAAAuG7CcdYfADAbACQYHDN2vj/wgdbzS8uwbEUEDI4AAAAAxGmArh8bADAfACQEHDZqzt4BE5u/anAqp2hEoPgIAAAAgOsmHGf9v/CrTWbeA+e9Ad3Oixwc2H9i8y3FZ1m2IAKGRgAAAADiNEDXj/2F5wGAnu6/m/j9QcPqxekTmmYams4pFhEoLgIAAADgugnHWf8v/IrHAE00+qAynTRuYdO5963vW1y2ZW0iYFgEAAAAIE4DdP3YX3gOAAgyW1OXHzN2fmbQlOXnGpbSKQ4RCB8BAAAAcN2E46z/5VwB6Hav3VTDz1euw0fP3T1oypJE+IzLmkTAoAgAAABAnAbo+rEvf44xAPmM1abvDhnRsL/fhLYxBqV1ikIEwkUAAAAAXDfhOOsPANjxGGAQkDA4MJzfsJZhEQAAAIA4DdD1Y39+GlcAgszVpuUnj1u06IKpa44wLM1THCKQPwIAAADgugnHWX8AoDKuAHSGlGNuadz6wXtXDc6fcfmWCBgUAQAAAIjTAF0/9ucZA2D1IMDOxt/578NHz9l99pRl1xiU6ikKEegeAQAAAHDdhOOsP1cAKu8KQA4Eeo+Yvb//5CU/6Z51+YYIGBIBAAAAiNMAXT/256ZtrMgecM4EXf8tBwe+f0Lzc4ake4pBBA6MAAAAALhuwnHWHwCo3CsAneHn5HELFzI48EDv4T8DIgAAAABxGqDrxwYA3AAACQPH3rJg4zl3LTnLgLRPEYjAOxEAAAAA1004zvp/9lluAXTuKVf630eMnrN74OTWK/EfImBEBAAAACBOA3T92J9lDIBzYyB6j2zY33/Skh8bYQAUwu0IAAAAgOsmHGf9P/vsBucMsNJ7+WHqJwcHnjGh5Vm33Yfaxx4BAAAAiNMAXT82AODOGIB8YCAHB/Z7dOlhsRsBBXAzAgAAAOC6CcdZfwDAbQCQUHDcLQs2nH9f6xluOhC1jjUCAAAAEKcBun7sy57hFkC+nrFr3x1Z27jj7EnNl8RqBhzcvQgAAACA6yYcZ/0BAK4A5GCn94iG/QOmtF3vngtR49giAAAAAHEaoOvHBgAAgBwAyN+9htWLs+5ueTg2Q+DAbkUAAAAAXDfhOOt/6dPreQqgBgjoDAHy75PHL55zWa04xC03orZljwAAAADEaYCuH/vSZwCArubH/+8A0XG3Llw/+IGm08tuChzQnQgAAACA6yYcZ/0vfZpBgBh+z1dAjqydt2PwpLaL3XEkalrWCAAAAECcBuj6sQGAns0PMHgnNoeOatjXf/KSH5TVGDiYGxEAAAAA1004zvpfwhUAxkCEGAPRa3idOHNi81Q3XIlali0CAAAAEKcBun7sS57iFgA9/fBXQRgcWDZrdONAAAAA4LoJx1n/S3gKgCsAIa4AdIak990yfx2DA93wZ+21BAAAgDgN0PVjf+YpngLobG78He5qQN8x83YMnNx6kXaD4ACVHQEAAABw3YTjrD8AEM7wAIPuceozqmHfgMnN36psh6J2WiMAAAAAcRqg68cGALobG2YfPiYdgwMntT6g1STYeeVGAAAAAFw34TjrDwCENzvAoIdYDasTp41vepOZAyvXp7XVDAAAAOI0QNePffGT6xgEV+QgOEAgPwgcf/uClYOnNp2gzSzYceVFAAAAAFw34TjrDwDkNzNMvrS49B0zb/ug+5deWHlORY20RAAAAADiNEDXj33xU1wBwOxLM/ue4tZnVMPegZNbv6nFMNhpZUUAAAAAXDfhOOvPFQC15teTKbr2fcdrhSe23FtZbkVtlEcAAAAA4jRA14/96Se4AuCaOZetvu8ODqyqFb2UGwc7rIwIAAAAgOsmHGf9AQCuAOgGghNuW7DivAkr31cZjkUtlEYAAAAA4jRA14/96SfW8hQATwFo18DRYxqz/Sct+bBS82Bn9kcAAAAAXDfhOOt/EQCg3fx097Bt2b8cHDjonpav2+9a1EBZBAAAACBOA3T92Bf9kisAthhoJZTz4OH1ot+ktnHKDIQd2R0BAAAAcN2E46w/VwAYA1B2sBhWJ069c9EbDA6027uVlB4AAADiNEDXjw0AAABlB4B3x1yccNvC5QwOVGKj9u4EAAAAXDfhOOvPLQAAIC4AkMc9ZmyjP/CB1vPtdTBKHikCAAAAEKcBun7sT/3ybQbB8RRArBo4bNScvQMmt30tkpGwsZ0RAAAAANdNOM76f4pBgLGaX5y9b5OOffDw2fv7TWy5zU4Xo9QlRwAAAADiNEDXjw0AcAvAGBDIDQ4s2U3Y0LoIAAAAgOsmHGf9L3ycxwCNMUBuRXRcjTnhtoXL+j269FjrzIwCFx8BAAAAiNMAXT82AMAVABMB6Jix8/1BU5afW7yjsIVVEQAAAADXTTjO+l/4OIMATTRAylQnDh89d/egyS3VVhkahS0uAgAAABCnAbp+7E8CAAwCNPjWwyEjGvb3n9R6c3GuwtrWRAAAAABcN+E46w8AcAvA9KsNBw2rF6dPaJppjalR0PARAAAAgDgN0PVjf/IX3AIw3QAp3zuQduK4RYvPvW993/DuwprGRwAAAABcN+E46w8AcAXAJsA4Zuz8zOCpSz9ovLFRwHARAAAAgDgN0PVjMw8AAGATAMiyysGBZ09puyacw7CW0REAAAAA1004zvpfPT0jeo+czUA4gwfC2WbQ5Shv75Gz9w+c0jrKaHOjcMERAAAAgDgNkGP74oP3LQUAAADrNCAHB545sfWlYJdhDWMjAAAAAJhwzBpI+eKc+5eJw2+ca50JlKO3yTHMvk1yyriFCz41beXhxpocBes5AgBAzMnf4/gACBpAA3Zr4Nr01gt6dhmWGBsBAMDuhkfi5PyhATQQtwYAAGMtvnDBAACSR9zJg+OjQTRguQamb/1YYadhqZERAAAsb3jcQhCYBxpGA/FqIJHKfNxIg6NQhSMAAMTbcEhcxB8NoAHbNXCtl/lEYadhqZERAABIPrYnH8qPhtFAvBoAAIy09+BCAQDxNhwSF/FHA2jAdg1Uz8h8MthtWMO4CAAAJB/bkw/lR8NoIF4NJFKZC40zNwoUHAEAIN6GQ+Ii/mgADdiugSGe/6lgt2EN4yIAAJB8bE8+lB8No4F4NQAAGGft4QoEAMTbcEhcxB8NoAHbNVCd9i8K5zisZVQEAACSj+3Jh/KjYTQQswam+582ytgoTLgIAAAxNxwm8mEiHzSABizXwJCUf3E4x2EtoyIAAAAA9J7QABpAA1E0UJ32P2OUsVGYcBEAAGj4URo+26IfNIAGAIBwfmvcWgAAjZcEjgbQABqIpIEZ2UuMMzcKFBwBAICGH6nhW37vkrqjfzQQXQOJVPbSYLdhDeMiAABEFz8JhBiiATTgsgau9bKXGWduFCg4AgAAicvlxEXd0T8aiK4BACDYa41cAwCILn4SCDFEA2jAaQ2ks5810uAoVOEIAAAkLqcTF2MYeAYfDUTWQCKV/Vxhp2GpkREAAAAAAAANoAE0EEUDQ7z2zxtpcBSqcAQAABp+lIbPtugHDaCB6nT75YWdhqVGRgAAoPGSwNEAGkADUTQAABhp78GFAgBo+FEaPtuiHzSABpLTt34h2G1Yw7gIAAA0XhI4GkADaCCKBhLe1iuMMzcKFBwBAICGH6Xhsy36QQNooDqd+WKw27CGcREAAGi8JHA0gAbQQBQNAADGWXu4AgEANPwoDZ9t0Q8aQAPJGZkrwzkOaxkVAQCAxksCRwNoAA1E0UAilbnKKGOjMOEiAADQ8KM0fLZFP2gADVR7mavDOQ5rGRUBAIDGSwJHA2gADUTSQDpzjVHGRmHCRQAAoOFHavjMox55HnXiTxu0XgMAQDjDNW0tAIDkY33yAUKAEDQQqwYSKX+Iad5GeUJEAAAAAAAANIAG0EAUDUgfCWE3rGJaBAAAGn6Uhs+26AcNoIFk2k+a5m2UJ0QEAAAaLwkcDaABNBBJAwBACLc1cBUAgIYfqeFz7zXWe6+cO9qvCRpIpPxqA+2NIgVFAAAggZiQQCgDOkQD9mog4fnXBnkNyw2MAABgb6MjYXLu0AAaMEED1Z5/nYH2RpGCIgAAkEBMSCCUAR2iAXs1AAAEOa2hywEAexsdCZNzhwbQgBEaSGe/ZKjFUaxCEQAASCBGJBAGEzKYEA1Yq4FEKvvlQj7DMkMjAAAAAAAAGkADaCCKBqq97D8ZanEUq1AEAAAafpSGz7boBw2ggWQ6O7SQz7DM0AgAADReEjgaQANoIJIGAABDHT6gWAAADT9Sw+e+rbX3bTnvtH1VGkiksv8cYDUsNjECAABJQFUSYD9oCQ24qYFqL/svJvobZQqIAADgZoMlUXPe0QAaUKaBdPYrAVbDYhMjAACQBJQlAW4HcDsADbipAQDARHsPLhMAAAAAAGgADaCBKBpIpDJfDXYb1jAuAgAADT9Kw2db9IMG0EC1l/maceZGgYIjAADQeEngaAANoIFoGsj8a7DbsIZxEQAAaPjRGj7xI35owHkNpDNfN87cKFBwBAAAkpfzyYuBa24OXOO8qzvvAECw2Zq4BgAAAAAAaAANoIEoGkikMt8w0d8oU0AEAAAafpSGz7boBw2ggWov828BVsNiEyMAANB4SeBoAA2ggUgaSPvfNNHfKFNABAAAGn6khs99VHX3UYklsbRVAwBAgNMauhgAAAAAADSABtBAFA0kUv6/G2pxFKtQBAAAGn6Uhs+26AcNoIFqz/9WIZ9hmaERAABovCRwNIAG0EAkDaT9bxtqcRSrUAQAABp+pIZv6z1Lys39djSgTAOJlP8fhXyGZYZGAAAAAAAANIAG0EAUDQAAhhp8ULEAABp+lIbPtugHDaCB6pT/n0Few3IDIwAA0HhJ4GgADaCBiBr4LwPtjSIFRQAAoOFHbPjK7iNSDrSIBuzUQCKd/U6Q17DcwAgAAHY2OBIl5w0NoAFTNAAAGGjuYYoEAJBETEkilAMtogE7NVCdyv53GL9hHcMiAADY2eBIlJw3NIAGzNFA9ruGWRvFCRMBAIAkYk4S4VxwLtCAlRpIZ/8njN+wjmERAABIOFYmHCZxYfAlGjBHAwCAYc4esjgAAAAAAKABNIAGomggkcp+L6TlsJpJEQAAaPhRGj7boh80gAaqvez/muRrlCVkBAAAGi8JHA2gATQQTQOZ74e0HFYzKQIAAA0/WsMnfsQPDbiugUQ68wOTfI2yhIwAAEDycj15UX/aABqIpgEAIKThmrYaABBN+CQO4ocG0IDrGqj2Mj80zdsoT4gIAAAkL9eTF/WnDaCBqBrI/F8Iu2EV0yIAAEQVPtuTPNEAGnBbA4l05nrTvI3yhIgAAOB2wyVxc/7RABqIqgEAIITZmrgKAEDjj9r42R4NoQG3NVCdyvzIRH+jTAERAADcbrgkbs4/GkADCjTw/wKshsUmRgAAoPEraPzmzEnO/PCcCzRQfg2k/R+b6G+UKSACAAAAAACgATSABqJoIJHyfxJgNSw2MQIAAA0/SsNnW/SDBtAAAGCiu4coEwBA4yWBowE0gAYiauCnIeyGVUyLAABAw4/Y8Mt/v5F7vMQcDZimgRtM8zbKEyICAAAAAACgATSABqJoIJH2a0LYDauYFgEAgIYfpeGzLfpBA2gAADDN2UOWBwCg8ZLA0QAaQANRNFCd8oeFtBxWMykCAAANP0rDZ1v0gwbQQNLzh5vka5QlZAQAABovCRwNoAE0EEUDibQ/IqTlsJpJEQAAaPhRGj7boh80gAaqU9mRJvkaZQkZAQCAxksCRwNoAA1E0QAAENJwTVsNAKDhR2n4bIt+0AAaSHrZUaZ5G+UJEQEAgMZLAkcDaAANRNJAOntjCLthFdMiAADQ8CM1fGZkM21GNsqDJsuugepUdrRp3mZueYZOO7jqhtmnVQ2rv6Cqpj5RNaxuaFw/Z05sGfexR1cLfogBGkADtmrgoifWis9O2yiuenFr2c0PgPYFABCEG7WvH1J1Q/2XqobVP15VU7epqqZO8EMM0AAaQANqNXD02EYx+L6lHUCAOZfrCmf2piALdHf5sFmXVw2rm0tDV9vQiSfxRANooCcNHFRTJ067s0lc/twmrgpovy2SqXXX4Huq+Q9a+rzb46e3zxUPNIAG0EAMGjh4RL34+GOrgQCtEAAAHIgBw2efWFVT/7ee6JTv6bmgATSABsqkgWF14pz7lwEBmiAgkc6MOdAAXf7vO3W9q4bVv0HjLlPjjqFXwbnl3KIB+zTwDw+tBAK0QEBmrMuWf2Ddb6h7iORgX3LgnHHO0EBla6DXsHrxmafWAwHKISBz84Em6Op/N8z6RFVN3X4SSWUnEs4v5xcN2KkB+ZRAQrkBlmu0vZnHSaQzt7hq+QfWu6budyQGOxMD543zhgbc0MAFjzIoUOUjkgCAxIBhsz5KAnEjgXCeOc9owF4NHHfLfG4DKLwKUp3ybz2wJ+zif8Nm1ZIU7E0KnDvOHRpwQwNyjoArnt8MBKiDgNtctPwD61xT9xYJxI0Ewnk5MCjpAAAgAElEQVTmPKMBuzXwkZ+vAgAUAUDC828/0Axd/K+mbiNJwe6kwPnj/KEBNzQw+N6lAAAAoIhU5Kx/jP5npjPmJEADaMAKDZw5oQUAUAQA1Sl/nCIntXQ3I+pOpefgRs+B88x5RgP2a+CUOxYDAIoAIOn54y11bkXFlq/3hfytIH/Ok/3Jm3PIOYyqgVPGLwIA1AHAHYqc1NLdAACYPwCIBtCANRoAANRNKlSd9u+01LkVFRsAsKbhR+05sD29TzRgvwYAAABAkftXVVUBAAAAvT80gAas0QAAoA4Akp5/lzoztXFPAIA1DZ/em/29N84h5zCqBgAApQBwt422ra7MAAAAQO8PDaABazQAAKgDgETan6DOTG3cEwBgTcOP2nNge3qfaMB+DQAAAIA61AAAAAB6f2gADVijAQBAHQAkU9mJ6szUxj0BANY0fHpv9vfeOIecw6gaAAAUAoCXnWSjbasrMwAAAND7QwNowBoNAADqACDhZSerM1Mb9wQAWNPwo/Yc2J7eJxqwXwMAgDoAqE5lp9ho2+rKDAAAAPT+0AAasEYDAAAAAACQsKxJWPQ67e91cg7NOYcAgDoASHrZe9SZqY174goARgpMoQE0YI0GAACVAJC510bbVldmAMCahk8vzJxeGOeCcxGXBgAAdQBQnc7cp85MbdwTAAAA0PtDA2jAGg0AAACAOtQAAKxp+HH1ODguvV00YI4GAAB1AJD0MverM1Mb9wQAAAD0/tAAGrBGAwCAUgB4wEbbVldmAMCahk8vzJxeGOeCcxGXBgAAdQCQSPsPqjNTG/cEAAAA9P7QABqwRgMAAACgDjUAAGsaflw9Do5LbxcNmKMBAEAdACRT/lR1ZmrjngAAAIDeHxpAA9ZoAABQCACe/zMbbVtdmQEAaxo+vTBzemGcC85FXBoAANQBQMLzH1JnpjbuCQAAAOj9oQE0YI0GAAB1AJBM+z+30bbVlRkAsKbhx9Xj4Lj0dtGAORoAAAAAAIAeC+CCBtCAgxoAABQCgOc/rM5MbdwTVwBIog4mUXq05vRoORfFnQsAQB0AJDz/ERttW12ZAQAAAABAA2jAGg0AAOoAoDrtP6rOTG3cEwBgTcOnp1RcT4l4Ea9K1AAAAACoQw0AAACg94cG0IA1GgAA1AFA0vMfU2emNu4JALCm4Vdib4Y60UtHA8VpAABQCgC/sNG21ZUZAAAA6P2hATRgjQYAAHUAUO35j6szUxv3BABY0/DpKRXXUyJexKsSNQAAqAOAZMr/pY22ra7MAAAAQO8PDaABazQAAAAAAAAJy5qEVYm9MOrE1YW4NAAAKAQAL/uEOjO1cU9cAcBIgSk0gAas0QAAoA4AEl72SRttW12ZAQBjGv4Ro2aL42obxMk3zxUDxjeKs+9sFBdMWdjx84G75nd8d/qtc8VhI2cbU+a4ekFhjnvQsLqOeB4/Zk7H72NrG4gbRm+9BgAAdQCQTGefUmemNu4JAChrQpDmnnisRYz+zWrxyKyN4uWmjJi/drvYumOvKObTvmufWLp5l3ijzRcPz9ogRry8Slz9SIs4ceycstYnjBHrWufM2+eJ6x5v7Yjlz/+2oSOWC9btEJu27RH79/cczX37hdi4bU9H3H/dlOmI302vrhZf/mWb6D++0Zn46Tov7Ffv7REAAABQhxoAgNaE3/fG2eIbzy4V0+ZtFsu37OrZlRQuWbJpp5j61oYOc5THr5SE3G/cPPHD1AoxY/FWsb59j8KIHbirzdv3ildbMqJm5ipx/oQFxsVvjb9b6PqRgFopeqnUegAACgHAyzytzkxt3BMAoDzhyUvPVz7cLJ6es0ls273vQHcp83/ySsFjdRvFJQ8uVl7PciTY026dK2TvfO6a7WWO3N8Pt2zzLjH5T+vEeYbAwN9Lpv4vGe9ynFeOUfpVAgBAHQAkvMwzNtq2ujIDAMoSnjT+5C9aRd2qbeozs4I9/mV5u7jqkRZl9dWZxC+b2iSem7dZ7JHX6w36/HFpVvzrM0tE7xH1scVRZzgAgNKNWWd76LxvAEAdACTTmWfVmamNewIAlCTywXfOF9JgbfjIS+jycnrnpGLK33LQ4+9afePDKK8KfOf5ZaLXsPIbhs7gAADlP5/Ftj0AQCEAeP40G21bXZkBgEhGKHv933tpeeyX+os1BXlr4J+fbItU92ITV6H1T7llrnhi9qaCg/eKrWM51p+1cpv45L2LyhpHnfUCAACApKfUYIXh+wMACiVmlvWcEA4ZXi8er9+oMx9r3bccKT/mtTVlNa98epLjJd72d2utq86dy9sU4954WxxaptsCOusCAPTc3vNpN47vuAKgFFCeU9ebtnFPXAEoyQD7jKwXzzdu0ZmLy7bvO3+/tqQYRE1+cj4D+bRCpXzk1YBy3FrRGS8AAAAwvMeu9IpCtef/ykbbVldmAKBo85M9/1eaMzrzcNn3/f3pK4qOQxQAkJPy/H5Jtuz11H1AeSXjY/cs1BpLnXUAAAAAlwAgmfKfV2emNu4JACg6WU/441qdOTiWfe/eu198+v7yPCooZzOc93Z8j/XpDnB2176OSZmiAFKhbXWWHwAAAAAAG4281DIDAEUBgHwErFI/zRt2Cnlro5D5RF0mJ5pp27SzUkP4Xr127d0vLn+oWUss3zuIhj8AAADAKQDw/BdKtc7K2A4ACJ2k5Tz9cgrZSv6MemV16HgUCwNHjW4Q9YbOkaDjnPo794p/nKL+doCOsub2CQAAAC4BQLXnv1gZRl5qLQCA0IY38Y/rcnmyYn/LxwNP0PA+gUocNxFGBHJMwBm3qZ1zIcxxS10HAAAAXAKAZNp/qVTrrIztAIBQAHDqLXOFvKyr8yMnvWvasEP8YUm2Yy56+aKfOWu2C3lPuZyfG3+j/iqAfNzQ1Y88nwcPV3drRWccAQAAAACoDGsPVwsAIBQADPv1Km15V84g+JWnlgh5iTzfZXVpHh+etKBjTvyVW/W/UGhtdrdSw/r4PYuEHGTo8ke+WCjfuS3lO51xBAAAAKcAwPOnhzPKSl0LAAhMzHK2P9kzV/2RPf7rvRVC7j+sEcg56OV9+p179BrqFT9XM4DtyBtni9aNlT/oL0gb8uqRqjcLBh0rynIAIHxbDNtmVa/HREDqJgJKeH6qUq09XL0AgEDz/eBd86Pk1B63HfFy6b3Cz/6sSWzX+KbBh2dtCIxLmMQm3+TH550IzFy8VUlMdcYTAAAAHLsC4IUzykpdCwAITMrffm6Z8pwrB4dFfaOcnMtf12fF1l2BcQkCAPnIX7nHL8h4bGjfI16cv0Xc/vrb4v9SKzpe2vPD1AohxzZIsPnbyvbY3jL4uZ81RY6rrnMu9wsAAACOAUC6Uq09XL0AgMCE/NDf1E9X+1jdxsDjBhmsXD59gb7piAfe0RipjA/8db1Orzpg33v37RdPzdkkLp3aFOoNfXK8xTeeXdox4PKAHWn+R04XHOa8FlpHZxEBAAAAAAhnnZWxFgAQmJBfbVE/7a/snRZK8mGXfWjiAm1+IA0ybDm6rnfSzXO0j1PIVfz1Nl+cc/f8kssqb6csWKd+jEeufF1/X/xAtBkXu+5P5f8AAADgEgAkPH9GZRh5qbUAAAKNY/bqbSpzbMe+5Ktvu5pmqf+/ubxdefnkDse/UTqkDH9Z31MTucrKQZRyHEUxgyh7irGcAfHBMl2xeLIh2rnP1V/HbwAAAHAJAJKeP7NU66yM7QCAQCNetln9o3fy3riqZPvTGSt1eIHwFpY2aE0+tqgjZp0rKc3/688sCTx3PRl+T9+PfEX/oEX5BIe8QtJTGYK+7xwH1X+r0mRQHVheOmjwFIC6pwCSKf/XlWHkpdYCAAhMxMu3qAcAmbjfWtEeyQhySfST9y4q6ANySlo5f4C8zC3nHPh1U0Y8M3dzx6t45XvsZW/9ey8tF/I9B0MeaxGfeXBxx7wD8qU9uWMU8/vKh5sLlkfFQjm4r5gyFbNuOV72FOXtiyri19M+AIDSjbkYjUVZFwAAAEq1++7bAQCBRqLzOfb17XvEfz2/TBw+anZgOXpKGvJpgn97dqmo/kWruGxqk/jo5IViwPhGId9d0KuIOQZ62n+x3+se/Pf0nGiX0IPqI+Mp4UznR0JYUDl6Wq6zXAAAAODWLYDsy91N0aVvAIDARCynctX92bRtj/jZWxs6euBRYKAn0yjX9/J+vM7ZCjM794pTbintykQxMfjEvYvEfo1zLcnbAH1vLA36dGoRAAAAXAKAai/7ikt2372uAEAgADwya6POnNtt39Ic/rg0K2757RohL6cf3cMUwcUYWrnWlW+/0/mR9+jLVRc5BkLnJ/FYS0l10VkmAAAAcAkAkunsb7qbokvfAACBSfi/X1iuM+cG7lsOeJP37x+v39gxqc15ExYElrlcJtn1OD/RNCBRBmnb7n3i+DGlD57rWtag/3WPZSj1UdBAwURYAQAAAJwCAC/zqkt2372uAECgmQ66ozFCStWzqZyp7xf1G8XXnl6iZCBhkBmGXS4HF+r6yH2HLYeK9eTTDHJWQV2fV5pLGwegqzxyvwAAAAAAdLfJyv0GAAhlKnIGN1M/8gpB/apt4rbfvd0xCDDqFMNRzLN5g74X/8g3JkYpWynbSsjS9ZFwUUqZdJVH7hcAAABcAoBqL/Na5Zp7mJoBAKGS8Hdjvg1QTNLfuG2PkNMXX/5Qs9LX+gaZ1TE3NWgbOCcH5EV5dj6o7D0t/49fqX8PROdzeebt80Lpr3P5Om+v+m8AAABwCQCSnv/bMDZZuesAAKES8GEjZ2sd3a46kef2Jx8zlI/lycF5nU1Ex99B8xHkylTKb3llQUeZg/apc6plGQc5DXFQGbouLyV+YbcBAAAAxwDgd5Vr7mFqBgCETsC6e4Nhk3Sp68nHGb/8yzZtVwWGPqHv7YTPN24JfZ66GmaU/w8dUa/1zYGlvG+h1PMfZjsAAAAAAMIYZ6WsAwCENhb5jPtvmtW/GChMYla5zpJNOztm/VM9SdCPPD1TEsu6lzpiPor557Zt26RvXIOchTF3nLC/VWqh674AAADAJQBIeP7rlWLlpdUDACgqAcvpcVdndnfNm1b+X7dqW8e0v2GNJ2i9u/+wVlscdE79G1SvN9p8bfW69y/ri9KfLKvODwAAALgEAEnPf6M046yUrQCAohOwvJ8u59evhI98gqD21TVKbgvIt9zp+nzrudJfTRxk8EHLdU4IVMq0xrpiLPcLAAAATgFAyv99pVh5afUAAIoGAGkYcsCbnL63Uj6vtfiRJ9l5acEWbeGQYxeCjFrX8qfm6AMbGbNiy60tyABA0eei2HOnYn1eBqTwZUCe/4fSjLNStgIASm705949XzRt2KEzH5d13w2rt0WCgJeb9I2P+MLPm0s+T1GTrnxHg65PKZMB6SqL3C9XALgC4NQVAABg9mlRE6TL28tn33/VqG/2O53JPt++56zZLk4YW9p0u7/X+NKkC+9bFBsA3KVxbIN8MqPY9pPvvKn6DgAAABwDgD9WSl++tHpwBaDoBJwvYctH4N72K2Nw4OttvjhkeH3RcdH5Ct2L7l9cdHnynadSvhv72hpV/tptP39b2V50vbrtROEXAAAA4BQApP0/lWaclbIVAFB0Au7JRI68cbaomblKyFfW2v4Z98bbRcflL8vbtVU7zlsAd/xe39MN8gmDnvTU0/fagswtgKLPRU/nSOf3jAFQOgbgz5Vi5aXVAwBQ3uhPvnlux6t8bR4kKKfevaLI++5yIKGuz3WPtyo/T2GT9H1/Wa+rWkI+YRC2HLn1tBUGACj6XOTOSTl/AwAAQGlmn28rAEBbo5dXBOQ7BEx+kVAhM5m9epuQkx+FTW6phVsL7S7Ssq8/U/4XAeXq/WidvhcC8RhgeH3lzofrvwEAdQBQ7fl/yWeL7nwHAIQ2uCiJ58OTFog7f79WLN28K5IRlnvjL/0yfM9b56uAJUhFiX+UbZ/V+IrjqW9tKLpeOjXAGADzgQQAUAcASc9/0x2zz1dTAKDoBBzFTOS2H7tnobj5t2uEvGe+R87EY/BHjuwPW1/5BkJdnxtmFj9lbthyB63321Z9tzZuenV16PjmyqkrxnK/AAAA4NQgwJT/13y26M53AEDRCTiXiFX8lrcJ5Gt75aA7OTWvvPdu0kfyiZz+OExdR/9mtbai3/PndaHKEKacxa6zTONVm1JmONQWZAAgNo0Vo0muACi8AgAAMA9AMY1P97qn3DJXfO3pJUJOPmPKJEPXeytCJcZvTluqzZvSi4ofLKfiXMm3Ae7VeJXm8w/xOmAV58mlfQAA6gAg4flvudPbz1dTrgCEMre4Eoy8JCtfGSsnG9q2e582gy204xfmh5uu9tKpTYV2E2mZfINhKedgzGtrxLy3t4sH/7peyPEMfUYWN7/B2Xc2Rip30MaD7mgsul5B+4yynFsA3AJw6haA5/8tny268x0AUHQCLsWIVGxzxKjZHSY2Y/FWobFT2s0/lm/ZFSpG/cbN67atyi+KnaHwsJGzxfr2A9/XsHn7XjHlz+tCT3ksJ3jS9cnu2idKeSWzrvLI/QIAAIBTAJDyZ7lj9vlqCgCEMjcVBq5yH4PvnC/koLtyjRl435jg6YHlI4M65z4Y8lhLUefq288t69ErN27bI77z/LJAA77/TX1zAPx5WfgBlp2102OlFCwAAAAAlwAg4WXr8tmiO98BAEWZSudEXOzfR41uEPKecrHbFVr/kgcXixVb9T9aKF98VKgcuWW/1vhCIDkhT+44YX7L9xoEfeT0xedPWNDjfnWOw7i3yPrk6hxUpyjLAQAAAABwx/6rqgCAHpN/LuHmfstLynKQ3gfvmi/ky2mueqRFfPWpJeJ/Xlwuhr+8SsgpY+XgvWnzNotXWzIdEwC1bNwpZG8zN5BMx/PsA+9o1P4egk+HnItfPtam6yNB5+CQ7yi4rIjxCDv37BfyMcOu++4/Xu/9/38tcXIjXfGV+wUAAACXACDpZetdsvvudQUA8gLAyFdWdzynv3DdDrHG3y127FEzAK/YXmwOPoJ+ywFuOj9XPhzudbxffLhZZzHE1Y+Euw3w4vwtRZfjT8uyQg76y8VaPpqp6yNv3cgpo3PHKua3rjLJ/QIAAIBbAJCZ3d0UXfoGAMibhOWsfTo+by4v/u1vYc1hbohL3qXW6eIHwr2NTw5UbN+lBpbylVVOyhMUD9lzz11xybePQt9t372v44VO8naNvHKj6yNvTwTVo6flusok9wsAAACOAUCDS3bfva4AQN5E/L2XlmvJs3Lmv+NqG/Ies6eEH/Z7nRPxnBNyDIAsq86pc+VJCboacfcfosPb2qzeVzuX8rbFnA60CPPdnQIAAAAA0N0mK/cbACCvGRdzD7nYhPyVp/S82EaOR9D1Oenm4KcAcgal89E5WT85FqDQUwk/mL5CrCzDwMgosZbvhsjFq9jfUY4btC0AAAC4BQD+nMo19zA1AwDyJuK+N84u+TJyUJINcxm7WFOQ6//Hr3p+7C2oTIWWb92xN/Bxuc7lldMb67wNIMsqYygHZXY+bue/DxleL/75yTZRv2pboarFsizK5X9ZR50fAAAAcAwA5oaxycpdBwDo0UR03lO/YMrCHo/b2ciK+Xvyn9Zp8YbfNGeKLqt8xE3355XmjDh6dOHbKXJugi//sk0sWLdDd3FC7/9H3sqi49lZB6EPVMKKAAAA4BgAzKtccw9TMwCgx2QsH+vT9ZEv/pG91M6JPcrf8hG21Rk9963ldLrFlk0+mljqQLxiYi6f0pBvVwwqX+8R9WLYr1cJOcgvzo+8mnLMTYWhJaguOsv/0xkrOyZIkpMkmfBT7OyPQbGrhOW8C0DduwCqPb8xjE1W7joAQI/mISfZ0fmRg9VUJaT/S63QVlT5tsJSyvncvM3aytR5x3JgpZx/QY7+DyqnnMOhecPOzpuX9e/bX387sIxBdShrgWM+mI4rZUHxNX05AAAAqAMSAKDHhCx76Lp61bm8Kg1BXqaOknTkI3q67rnL+nedICdsWT86eWFZrgLkYinfj/C7Vl/8OL1SfPLeRXmftpBPYMhbAnIe/nJ/5MucSn32v3PMy13uOI8HAHTPDQCAOgBIev58dWZq454AgILme/Nv12jPf/LlPqffWtqkMP/27FKtZha1x1qOsQCFTpA0Xfl+AvkSIDnjX5wf+ZhmZyMv9e8461DuYwMAAIDWMQlpf4GNtq2uzABAwaQs33AnLzHr/sh70xP/uE6cV2Be+pxhyDfIXfNoi3itxddaLDlbnXzpUO64pfyWg/TkTIquf9o27Sz41EIxsXUplgAAAKATABKev1Cdmdq4JwAg0OAembWxrDl36eZdHe8TkKP6R72yWvz3C8s7BrDd9Ye1Qr5sR+cb9zpX9InZmwJjE8a45Jz3Ln8kSIWdwjhMPF2KJQAAAAAAOsECAAg0uQHjG8XuvfqvApiU2OUViTNvnxcYmzCGJdeRg/Rc/UiQCxunMOu5FEcAAADQCQBJz1+k017N3zcAECo53/Y7fS+GMTGh3/q76KPVO5tZn5H14m8r202sqtYyzXt7uzh8VM8TFnWOUdi/tRbYsJ0DAACAZgBYbL5J6ywhABAKAKSBLVpvzmQyOvO0nKlOtWlJcztr3Dyhe459nXEpZd8SAP4hwrS/+aCglHLYug0AAABoBoAmnfZq/r4BgFAAIBPxRyYvjH0iGd2JXI6Wl7c88hmPiu8+cNd85wYFykGk8uU/h45QM/GTbg2YtH8AAADQDADN5pu0zhICAEWZnZwdrVI/cuY+lYPVegIGORnP2w4+GSCvBqgwtErVX756qYhXTzq09XvmAVA6DwAAYGtDiKvc8tn4SvtI8//Gs0uLgqEo8T9/wgKxfMuuSgtjYH3kYNLaV9dEuhoQeJAKWgEA4AqA5isALTr71+bvmysAJZle3BPcqMzxcoKc5C9aS4pDFAg4fsycjrf6qayLLfuS8COvJpUyy6ItdVRRTgAAANAMAK3mm7TOEgIAJRvfyFdWC/mMt80fOdXvZVObSo5BFACQ28qX9Mh3IpRhriUjT5McWPpfzy8rapIgIyuiqVAAAACgGQDadNqr+fsGACKZ3z890Va2iXlU59gX528Rprxt7VP3LRLz125XXUVr9rcuu0dcGhLErKmUgoICAAAAAKATIwCASAAge7Enjp0jHq/faM3VgJVbd4l/n1a++/1hrxLIRy1/MmOlWN++R4F12LUL+Zpg+aKiMLGyq2bRSgsAAACaAWCJTns1f98AQKikGyYxy+e9JQiU490BpaRVaaw1M1dpecY/THzCrtP3xtkdUx/LXrErH/nSqbDxcSUmsp4AAACgFQDS/lLzTVpnCQGA0Ik3bIKWLxCSb35rNOCSthx1nl60VXzt6SXGG3/X+MoBcpc/1NzxXoS4oUq+n0E+yy/nMZAQJZ+aUPWRr3KWV5G61r+n/1Ud14b9AAAAgE4AqPb8ZTrt1fx9AwChE29PCbnQ9+fcPV/8yFspnm/cUrZn3+Ul/mfmbhbffWG5Mff4C8UozLKTb54r5KuPn2zYVJZbBNld+zqeUBj72pq8vVA5X8KW7XuVeGixr1xWclBLdgIAAAA6ASDpZZebb9I6SwgAaAWArubWf3xjx2Q7/y+9Ujz41/Xi1ZaMkBPEyIlxiunlyp79kk07xettvvhF/caOZ8u/8tQSccZt6l7g07XspvwvX4csX1P8L0+2CWmeMxdvFQvW7RCZncUbspz5sGH1NvHSgi1CvrTney8tFx+dvDDU43nyXP5pWTaSlRbb+zflHFCO7sZcrpgwEZDKiYAAgNPKJVyOE5w05EAwaeJyOt6BdzR29D5lL0j+LW8tyOXyHjmxzB9LGRt5mV7G7ML7FnXcQvjCz5s7fn/6/sUd30t4kOatIo7yNoV8ZXOpb4u88/drOZc1+c8lGs8fFwBAJQBkVujsX5u/b64AkIBJwJE18Il7F4nmDTuLuhogX7ksb21gdPmNjrjkjwsAoBIA/JXmm7TOEgIAJGAAQIkG5BsU5TS/u/aGGyA48Y/rlBwXo8xvlJUaFwBAKQCs0mmv5u8bACAJAwBKNfDhSQvEWyvaC14NkNMvn34rvf9KNWmd9QIAAAB1YAEAKE3+Ohs++7anpyfHBvw4vVLIQX75Pvf8md4/ei5NzwCAUgBYrc5MbdwTAAAAcAVAmwbk8/1y/gDZ48995IDBs8ZV/tMaGHxpBh8UNwBAKQCssdG21ZUZANCW/IMaMsv1JEgT4yoNf+pbGzomEHrgr+vRHNBZsgYAAKUA8LY6M7VxTwBAyQ3RRKOhTGZDxUcmLxTvd2CuBnSoT4cAAACgDjUAAACA3hgaQAPWaAAAUAoAa9WZqY17AgCsafj0qvT1qogtsbVFAwCAUgBYZ6NtqyszAAAA0PtDA2jAGg0AAEoBYL06M7VxTwCANQ3flh4K5aQ3jQb0aQAAUAoAG2y0bXVlBgAAAHp/aAANWKMBAAAAAABIWNYkLHqD+nqDxNa92AIASgFgozoztXFPXAHASIEpNIAGrNEAAKAOABKev8lG21ZXZgDAmoZPb8+93h7nnHPeVQMAgDoASHr+ZnVmauOeAAAAgN4fGkAD1mgAAAAA1KEGAGBNw+/aE+B/eodowD0NAABKAWCLOjO1cU8AAABA7w8NoAFrNAAAKASAlL/VRttWV2YAwJqGT2/Pvd4e55xz3lUDAIBCAPD8jDoztXFPAAAAQO8PDaABazQAACgFAN9G21ZXZgDAmobftSfA//QO0YB7GgAAAAAAgB4L4IIG0ICDGgAAlAJAVp2Z2rgnrgCQRB1MovSc3es5V8o5BwCUAkC7jbatrswAAAAAAKABNGCNBgAAlQCQ3abOTG3cEwBgTcOvlB4M9aD3jQZK1wAAAACoQw0AAACg94cG0IA1GgAAVAKAv12dmdq4JwDAmoZPr3mCIcoAAAw3SURBVKn0XhOxI3aVogEAQCkA7LDRttWVGQAAAOj9oQE0YI0GAAClALBTnZnauCcAwJqGXyk9GOpBbxwNlK4BAEApAOyy0bbVlRkAAADo/aEBNGCNBgAAAAAAIGFZk7Do7ZXe2yN2xK6rBgAApQCwW52Z2rgnrgBgpMAUGkAD1mgAAFAKAHtstG11ZQYArGn4XXsC/E/vEA24pwEAQCkA7FVnpjbuCQAAAOj9oQE0YI0GAAAAQB1qAADWNHx6e+719jjnnPOuGgAAlALAPnVmauOerm84tqvA+J+kgwbQABowUwOn39kkkp5SE3R5f/tttG21Za6pa6exm9nYOS+cFzSABjprYOCUNpcNW3nd1ZqpjXurqWvpLDD+JuGgATSABszUwHkPLldugi5fUbDRstWWuWbWIzR2Mxs754XzggbQQGcNXPL0egBA4S0QtWZq495qZlV3Fhh/k3DQABpAA+Zp4LAb54hkivv/Kq9YVAlxkI22ra7MtXVHVNXUrafBm9fgOSecEzSABnIa4P6/eviprRW91JmprXu6oe6HOZHxm4SDBtAAGjBLA71HzhZXvriFy/8KL//LKwlDp4mDbbVtdeWuXXBoVU1dE43erEbP+eB8oAE0IDVw7gPLMH/F5i8B4LLXxSHqjNTmPd1Qf05VTd1WEg4JBw2gATRgjgZOGrdQJFIZAAAA0EwYP60fUlVTt4vGb07j51xwLtCAuxo4emyjuPqlrZi/BvOXVwC+Uyd6a3ZVy3Y/fNanq2rq1pJ03E06nHvOPRqIXwMnjVskrnoR81c56r/rvoZOE4da5tBlKO6whn5VNbNSJIH4kwDngHOABtzSgBzwJ+/5JzT1eruaoMv/XzVT9CmDo1p6iJrZl1TdUDejqqZuJ0nIrSTE+eZ8o4HyakA+5y8f9bvyBUb7lwtKAIAwbFL716Orbpj1T1U31N9UVVP/YFVN3bQ4f44YPedPp93ZJPghBmgADdiqAflinwFTWoWc3vczT61nkp8Yrnhc9ro4LIwFso5BEaj2/ES5CJHjqJ98g5gSUzSABkzQwNBp4nCDrI2ihIkAAEDyMCF5UAZ0iAbs1kDCW3NEGM9hHYMiAADY3ehImpw/NIAGTNDAFa+sPdIga6MoYSIAAJA8TEgelAEdogG7NQAAhHFcw9YBAOxudCRNzh8aQAMmaGDotPV9DbM3ihMUAQCA5GFC8qAM6BANWK6B6RuOCvIblhsWAQDA8kYXw+M+JGo0gwbQQFcNXDVz09GG2RvFCYoAAEBD7tqQ+R9NoAE0UKwGAIAgtzVwOQBAQy+2obM+mkEDaKCrBoa+uvkYAy2OIhWKAABAQ+7akPkfTaABNFCsBq59ccuxhbyGZQZGAACgoRfb0FkfzaABNNBVA9ektx5noMVRpEIRAABoyF0bMv+jCTSABorVwNCXM+8r5DUsMzACAAANvdiGzvpoBg2gga4aAAAMNPigIgEANOSuDZn/0QQaQAPFauC6F/zjg/yG5YZFAACgoRfb0FkfzaABNNBVAwnPP8Ewe6M4QREAAGjIXRsy/6MJNIAGitXAVTOzJwb5DcsNiwAAQEMvtqGzPppBA2igqwYAAMPMPUxxAAAacteGzP9oAg2ggWI1cN0L2ZPCeA7rGBQBAICGXmxDZ300gwbQQDcNTG8/2SBroyhhIgAA0JC7NWReMCSICe0CDRSngatntJ8SxnNYx6AIAADFiZykQLzQABpAA901AAAYZOxhiwIAdBcyjZuYoAE0gAaK08CXXt52aljfYT1DIgAAFCdykgLxQgNoAA3k0cD0bacZYmsUI2wEAIA8QuYeOPfA0QAaQANFaWCIt/30sL7DeoZEAAAAAOjNoAE0gAaiauBLM7e/3xBboxhhIwAA0PCjNny2R0NoAA0AAGFd16D1AAAaLskbDaABNBBVA9UvbT/DIGujKGEiAADQ8KM2fLZHQ2gADQxJbT4zjOewjkERAABouCRvNIAG0EBUDVw9Y8tZBlkbRQkTAQCAhh+14bM9GkIDaAAACOO4hq0DANBwSd5oAA2ggagauPbFLf0MszeKExQBAICGH7Xhsz0aQgNoIJHa2j/Ib1huWAQAABouyRsNoAE0EFUD16S3DjDM3ihOUAQAABp+1IbP9mgIDaCBa2duHRjkNyw3LAIAAA2X5I0G0AAaiKoBAMAwcw9THACAhh+14bM9GkIDaCA5PTMojOewjkERAABouCRvNIAG0EBUDQzxMmcbZG0UJUwEAAAaftSGz/ZoCA2ggetm+IPDeA7rGBQBAICGS/JGA2gADUTVAABgkLGHLQoAQMOP2vDZHg2hATSQnO5/IKzvsJ4hEQAAaLgkbzSABtBAVA0kPP+DhtgaxQgbAQCAhh+14bM9GkIDaOC6dPacsL7DeoZEAACg4ZK80QAaQANRNVD9UvZcQ2yNYoSNAABAw4/a8NkeDaEBNAAAhHVdg9YDAGi4JG80gAbQQFQNJFLZ8wyyNooSJgIAAA0/asNnezSEBtDANens+WE8h3UMigAAQMMleaMBNIAGomqgekb7hwyyNooSJgIAAA0/asNnezSEBtAAABDGcQ1bBwCg4ZK80QAaQAORNTC9/cOG2RvFCYoAAEDDj9zwPWJIDNGA6xoY4rX/Q5DfsNywCAAAJC7XExf1pw2ggegauHZG+0cMszeKExQBACC68EkexBANoAHXNQAABLmtgcsBABKX64mL+tMG0IACDUzf8lEDLY4iFYpAIuUPQfwKxM99cIGO0BEacFcDQ1Jb/7GQ17DMwAgk09nP0mjdbbSce849GkADKjQwxMucbaDFUaRCEUikMh9XcfLZB0kEDaABNOCuBq57IXtSIa9hmYERkO9wptG622g595x7NIAGVGjgstfFYQZaHEUqFIGrZm46WsXJZx8kETSABtCAmxpIeP6mQj7DMoMjkPT8t2m4bjZczjvnHQ2gAQUa+LPBFkfRCkUg6flvKBAAo8B5EgANoAE04KYGHi7kMSwzOAJJL3sPAEAvAA2gATSABkrRQCKdud5gi6NohSKQSGW/XMpJZxuSBRpAA2gADfAegEIOa/iy617wj096/j4aMg0ZDaABNIAGitTAxtpa0ctwm6N4hSKQ8LJ1RZ507vW5ea+P8855RwNooJMGMk8X8haWWRCBZNr/MQAA+aMBNIAG0EAxGpDvk7HA4ihioQgkp7efnPT8PcWceNYlUaABNIAGnNbA+u/Uid6FvIVllkQg6flpGrPTjbnTZT3iQFtAA2ggSAPZSZbYG8UMikAilb0UwQcJnuVoBA2gATSQ9Pzd1764pV+Qr7DcoggkPf8PNG4aNxpAA2gADQRogMl/LPL2UEWtTrdfHnDSuUzMCGA0gAbQgNsa2M3rf0NZqn0rJVP+80AA9I8G0AAaQAP5NFCd8sfZ52yUOFQEql/afkbS87P5TjzfkRDQABpAAy5rILNi6LT1fUOZCSvZGYGkl/k+jdzlRk7d0T8aQAPdNLA/mc5cY6erUeqiIsCtgG7i576n2/c9Of+cf9c1cFdRJsLK9kbg2he3HJv0/DYoGBBAA2gADTivgTeZ9MdePy+p5MnpmUFJz19H43e+8bve86H+9P5d1sCSq2e0n1KSibCR3RFIpDIfZ1AgAAAEogE04KQGNiSn+x+w28UofaQIJFLZzyU93ycBOJkAXO75UHd6/i5rYF1y+paPRjIPNq6MCFTPaP9Q0vNXAwFAABpAA2igwjWQ9pdeN8MfXBnuRS2URODdMQHzaPwV3vjp9bnc66Pu6P/NL7287VQlpsFOKisCl70uDkt42clAABCABtAAGqgoDeyXuX3oNHFoZbkWtVEegWQ6O5RbAhXV+On50fNDA85qILucSX6U22Rl7/CKV9YemfQytUnP30VPABhAA2gADVingd0dV3Snbziqst2K2mmLgHwzVMLzH5HviCYBWJcA6PU52+tDqw7nq10Jz3/omvTWAdqMgR27FYGrZ2w5qzrt35n0/DUONywMFUNFA2jAVA2skTlavvTNLXeitmWLwNBp4uDkjMyVSc9/OOlllwMD9LTQABpAA3FpILNCXqGtTme+KHNz2YyAAxEBGYGOxwfT/reTnn9XwvNnJD2/Nen5GRJCXAmB46I9NFCBGpCvcW9LpvxfJ1PZidUp/z/l7VkXXOj/A2qIWvv/4Wm/AAAAAElFTkSuQmCC;" vertex="1" parent="1">
          <mxGeometry x="535" y="320" width="70" height="70" as="geometry" />
        </mxCell>
        <mxCell id="_GYrti46DQ62szRbojxJ-63" value="" style="shape=image;verticalLabelPosition=bottom;labelBackgroundColor=default;verticalAlign=top;aspect=fixed;imageAspect=0;image=data:image/png,iVBORw0KGgoAAAANSUhEUgAAAgAAAAIACAYAAAD0eNT6AAAAAXNSR0IArs4c6QAAIABJREFUeAHsvQmYVMd1Noy8xLHjJI5jxwxxbOf/knz5E2f5nuSLLQ1OyJPfMwwwvfewztJ9bw8SWhAIhHZhJGtFG4IZ0I4ktKBdWCy2EBbTA9jaGdBiIBEgEGKdAYQEDJz/OQ1XappebnfXrVt17zvP08/tvkvdqlNnzvvWqVOnBgzAHyQACXheAitWrP7B8vTqs5d3rV6wPL369eUrV+9e3rX6SObD39OrX39p5eqHX0yvGr+8u/v7nhcIGuhLCfSt+u43+9KDxvR218zrTQ9a3Zuu+ag3XXOoN11zrDdds7e3q+bt3nTN073pgVP2rvzuP/pSSGg0JAAJ6C+B6URfeGnlmujyrlUrl3etPr68azXZ/Bxfnl7z8kvp1REuQ39JoAV+l0Bf13d+1NtV80RvuubT3nQNlfHp6e0eeA6t+MHv+12GaD8kAAloIoEX07/5yfKu1W/ZBPyCxODFrjVvvLRyda0mzUY1IYFTJND78nf+si898PkyAL8QOfigNz2w6ZTC8QMSgAQgAZUksGLFii8t71o9fXnX6mPVgn/W88df7Fp9x6uvvvplldqKukACxSTQ11XT3JuuOSAA/D8nBd01z/R2fe9Pir0X1yABSAASkC6BZcve+oOXulYvyQLugiP7iu5Jr1qeTqf/UHrD8EJIoAwJEA04Y1/XoOlCgT972qCr5u29XYO+V0aVcCskAAlAAs5JYNGrr35tedfqdEXAbj82gF7qWt21atWqrzrXEpQMCVQngX3pgXc6Bv6fE4H396z58+9WV1M8DQlAApBAlRIgojNeTK961mnwzyr/aX5nldXG45CAcAn0dg2aJgH8rSmBnh3LvvMHwhuBAiEBSAASsCuBF7vWXJQFzmLd/gW8Ay+tXD3Jbv1wHyQgQwJ70zU/6U3XHJVIAKgvXTNfRtvwDkgAEoAETpMAr9lf3rX6Y9kEYHnX6kPLXv7NX55WIZyABFyQAK3/u9/rTde8IxP8rXf1pQcOc6HJeCUkAAn4XQLLu9YsdAH8LS/Do36XP9qvhgT2dddMtgDZheM7RAOQL0MNVUAtIAF/SOCldPp/C17uZwG73WP/i12/+Rt/SButVFUCtPivvtKXHrjNBeC3YgGot2tgXFX5oF6QACTgQQm8mF5zk4ujf4sk3OBB0aJJGkmgt3tgzFXwP7Ey4FcaiQxVhQQgAd0l8FLX6i0KEID3dZcj6q+3BHrTNU8pQACOHVzzZ9/RW5KoPSQACWghgZPuf2sU7urxly+v+WsthIZKek4CPPee2cTn8/X5n7vlJZ/r6x40ynMCRoMgAUhAPQks71rTrMDoP0M8Xly5Zpx6EkKN/CCB/asG/a0Co/8M6ehL19zmB5mjjZAAJOCyBJZ3rb5WHQKwaobL4sDrfSqBfd2DgqoQgN50zWKfdgOaDQlAAjIlsLxr9V2qEICXutbMldl2vAsSsCTQ212TUoYAdNe8ZtULR0gAEoAEHJPA8q7VC1QhAFwXxxqKgiGBIhLY11UzURkCkK55r0hVcQkSgAQgATESWN61+lGFCAASAonpVpRSpgR6uweeow4BGPhWmdXH7ZAAJAAJlC8BEIDyZYYnvCcBjrxXhgB01/zaexJGiyABSEA5CYAAKNclqJALEuhN1/yrMgQgXXO3CyLAKyEBSMBvEgAB8FuPo735JLD91UFf603XHFaBBPSlB52Xr444BwlAApCAUAmAAAgVJwrTWAJ96ZqVKhCAAysH/p3GYkTVIQFIQBcJgADo0lOop9MS2JeumaQAAcAKAKc7GuVDApDACQmAAEATIIETEjjQ/Z0/603XfOoqCegaNA39AQlAApCAFAmAAEgRM16iiQR60zVzXSMAXYN69634wTc0ERWqCQlAArpLAARA9x5E/UVKYPeq7/55b7pmvyskoHvQxSLbgrIgAUgAEigqARCAouLBRR9KoK970AXyCcDAt+jVAV/2objRZEgAEnBLAiAAbkke71VVAkQDzuhLD3xeIgk4wLsRqioP1AsSgAQ8KgEQAI92LJpVlQR2pb/1h73pmledJwGDjvSlBzZUVVk8DAlAApBAJRIAAahEanjGDxI4sHLgt3vTNa84SAI+2ddVE/aDLNFGSAASUFACIAAKdgqqpIwEdq749td7uwctFE4Cumq27l85qFaZhqIikAAk4D8JgAD4r8/R4vIlsK9rUPLDl/+fqnME7EsPot3pv1iwf8Wgb5VfCzwBCUACkIBACYAACBQmivK0BIL3/HrB3Kcvom0v/xWV6xFg4H9xSYDM+QvpzFtXfdXTgkLjIAFIQA8JgADo0U+opfsSGDy3577azh76z3mv0WWP3knPvTCG/vvXPyxIBnZ2fZ/Sy+pp1lOXUeSeXxE/yx8QABt92dBw/lfqQy3/Vh9qbq4LNV9TF2ieVxdsXlAfal6ID2QAHRCjA/ctWLhleddqUuTzqA3T4NgtNHbsH1F8wtcdewEK1loCFgGwgNw6NtzdTcn5T9C5Dz1IFz58L41/8BGK3buMftL51megb90LAlBEBRoiY7/701DzxfXBlhfrgs2H6oLNhA9kAB1wTgdm3/2gKuDP9XCMANCQ6V+iiPljiqYmU9TsoKi5lKLG7yhq7qWoeZyiJmV9jlLU3E1RcyNFjTUUNR+nqHktRY1WiifPpLjxzSJmDJc8KoFCBCAb3O18hwfgVAU5oz4wbnhdsPlXdcHmYzD2zhl7yBayzdUBLxMACrf8KUVSEyiaWkZR82AWwGeDfaXf36WocT9FzHYKGz+k6dO/cKpZwy+vSQAEQHCP/jTYPKwuOO6NXKOE3wAq6IAcHfAiAaCYOYSiqWcoah4WDPrFyMK+jKcgYjTT6HZEeAvGChWKAwEQ1Avs6q8LjnsaRl6OkYecIedCOuAlAkAx8ycUNVdIBP1ChKCfomaaouYlFG1HildBuOF2MSAAAnqgLtjcWBds3l3IIOE8wAo6IE8HvEAAKNT2DYqa8/LM5RcCaMnnU+splppG4bP/TIAJRREuSQAEoDrBn1EXbL62Lth8HAZenoGHrCHrYjqgOwGgWLKOouZ2BUb9dkjFEYoZz1HEjFHD+V+pzpziadkSAAGoUOLxePyLdcHmu4oZIlwDUEEH5OuAzgQgE4AXNTli3w74qnZPL0XNOyhifL9Cs4rHJEsABKAygZ/x02DzgzDu8o07ZA6Zl9IBHQkADRhwBkVTd2oK/LlE5CjFzCconvqPyswrnpIlARCACiRdF2y+tZQRwnUAFXTAHR3QjQBkwD9mzvII+OeQgdSbFDNMTA9UADQSHtGdAOxd+d1/3NdVM7G3e+C9+9I16d70wLd60zWbTm57vGxfV80dfelBYw6u+PZAIeKsD45LwLC7Y9ghd8jdjg5oRwBixjXeBP+saYyYuY0i5oXU2P41IYYYhQiRgI4EoLfre3/Sm665rLe75ndl7F9wrDc9aHlvemAT0YDK8lvUN7b+fV2w+WM7Rgj3AKygA+7ogE4EgGJmRN1I/ywAFxWTEDF3UcyczqschCAYCqlKAjoRAFr/d7/X211zeW+6Zn8ZwJ9vX4N3+7pqhpYluOnTp3+hLti8BkbdHaMOuUPudnVAFwJA8eT/diCbX44L3gEQF0MG9lDUuApEoCwYEn6zLgRgT3rg3/ela9ZVCfynkIG+dM38nSu+bW+fjLpgywS7Bgj3AaygA+7pgA4EgOLxL1LUXO15139pssArBy6n5uY/EI5uKLCkBHQgAH3dA4f3pmsOigT/rLJ69qz58+8WFdSQePzrSPTjnkEHmEL25eiAFgQgak4F+J/indhOMWM8b3BU1BjjolAJqE4Aertror3pmqNZgH3KKF7Q+ff3vDzoLwoKti44bko5Bgj3ArCgA+7pgOoEgLPnUTTVBwJwCgGwpi7epZgR55URBQ0yLgiTgMoEYF93zb/3pms+FQTyxYlDV83be1/9kz8+TbBDhgz5Ul2wZRsMunsGHbKH7MvRAeUJQNTsBPjnBX+LBBBFzFW8D8JpBhknhEpAVQJwoPs7f7YvPWi7FPBP15wgB92DFp4m3Lpwy4hyjA/uBVhBB9zVAZUJAEXM70re0e9zUC09H6/gvalnKG7+5WmGGSeESEBVAtCbHviYVPC3SEDXwPgpgv1poOVxGHR3DTrkD/mXowNKE4CocTtG/yVG/6cTFd4C+Q6KT7AXsX2KBcePYhKo7eh5qrazh6r8HI8vXPjFYu8p59redM1PXAH/EyRgCy3+qxN7Wpxw/zf3lWN8cC/ACjrgrg6oSgAYwDD3Xzb4Z3sltlLMbCkHTHBvcQkM7uz5TZXgT7UdPQeLv6W8q73pmmUuEgCeDjg7U+Oh4ZYzYczdNeaQP+Rfrg4oSwA4Je7po9tsgMN3W/JJvUTR1N+XByu4O1cCQ2574xu1nT1HqiYAnWu35ZZd6e++Vd/9q950zXE3CQDnG8jU/6eh5ovLNT64H4AFHXBXB5QlAFFzJQhAVR6AbIJ0hKKpmynefnrkdqXo47PnajvWmdWDf2b6IC1KdH3pgVe5Cf7Wu/eu+s4/DKgLjXsAxtxdYw75Q/7l6oCKBIDCLX9KUbMfBKB6AnA0alJfOEnbAwnaEmjr3x1M3iAKgPxSzpm3rvpqbWfPFhEE4KzOnntFye3Ehj4no/KtwDwXjvu6ayYPqAu2rC7X+OB+ABZ0wF0dUJIARI1WgH/l4H8satL+0AnQ/5/GNsr9fBhIbN7d2Pa3ooDI6+XUdq59QAT4cxmD5/ZMFCEvWjHgS73pmsPWKNzl45MD6oLNW2DM3TXmkD/kX64OKEoAngQBKJ8AHI2YtDeUpM2B00E/lwRsbmw7viuUeEgEGHm1DI7Wr5279jZR4H+CAKz7JxHy2t/153/jMuh/liwoEwdQF2zuLdf44H4AFnTAXR1QjQBweluKmvtBAOwTgCMRgz4KJk4b6eeCfr7f2wOJj3YHEz8SAUpeKuPMzvX/56zOnl+LBP/azp6dA4iEZG3c1zVwiCoEoDdds5c9AEddN+aRVhqWmEAjzp1IDePayfX6BN017mg/5F9KB5QjAOHkPwH87YE/z+/vDiYrAv5sMvB+Yxttik3oHjb71R8N7lj7L378nNm5/t8Gz13XWNvRM/Uk8B8TDP6cP2CuKJJ0ctOfz0bhLpOBo0wA3AHcUDOFLr+Mmhc/QMa7L1Bq07LPPsk3n6VR82fRMGOCO3VzSyZ4L/rbpg4oRwCiqRQIQHECwHP8e0JJYuDOBvJqv2+MjKeJ1zxfbaIbPF8gWdBPOtfVCiMAq2rqXQb9bPLxsSsEYFjLeGpeOv8zwM8G/+zv5ruLKT7nJqoPtwIYbAKDa4QO9ZOqo+oRAOMuEIDCBOBQOElbbczxV0oG3g+00UuJK+m/7nwNQF4AyCvyDMxdu06U+59JRF/6Oz9WhQDwPgTSCQCDf/LVp0uCfzYRaP7lQ8TPAdxc8tYA3JXTPeUIQMT8DQjA6QSgP2LSzgrn+SshA/8dTtHknz0LEiCIBAzuWDtG1Oify+ENgFQhAH3pmi65BCDSSm1dj5cF/hYRMNY+T8Fp05QzxCAlICVu6IByBCBq7gEBOJUAfBIxaItgd78dUsDegKXmDPqPzrdABKojAu+IzP9vEYnedM2HipCATqkEIHbHDRWBv0UCUhuXUdO8mZgSwIjc90RQJQKQXvYSlv/lpPflJD6i5/rtgH/2PRvD7XTOzxeDBFRKAjrWNligLfLo2i6ApyUbGtgkjwCEminx+jPVEYCTgYKYEsCo241Rt0rvVIkAvPbo00sw+j8x+j8WMWiHgAj/bCCv5juTkEfOuxUkoFwS0NHzmEjQzy6rr2vQaAU8AJ/sW/GDb0gjAI2TLhIC/pY3AFMCIAEqAbLsuqhEANbdv+BFEACTeHnfB4HK1vVXA/J2nl3fdD7FbkmDCNgjApvPvGf9N7NBW+T37a8O+lpv16Bed0nAoMczbZJluKI3XSOUAGSIwMalNPKBOzAlgCkB300JqEQA3u243/cbAHFSn60uzPfbAX/rns3BBN1w6UMgAcVJwJEz5/ScJRLw85XVm665zk0C0Nc98P9KJQC8nM8avYs+YkoA3gBZRFaV96hEADbccXe3nz0An4QN2qzoyN8C/+zjy21X0JA5CBDMsyzweG3n2rH5AFv0uf0rBn2rN12z2yUS8PRn7ZFl0GK3XecYAWBCgSkBkABZuqzCe5QiALP8SwA+jRi0WfGRfzb4W983RRAgeDoBWDvpM2CU8KU3PchwgQDs39s16HufNU+WMeMlfKJH/qeVhykB37nCZemvau8BATh1yZ0bHojDCoH/lkAbfRhM0K5gknpDycxWwvtDBh0MG/RxOEkHMueMzDXORrgjkKCtwSTNv2AW/QTegP6zOtelPgNFiV96u2sekUkC+rpqmk9pnizDVt+UIPOdxc6TgE3LCFMC8AbI0mu33gMC4C4BOBIxiUHXGlHLPm4LtGXSCn8cNoiTDVVKgI5FTPqfcVNp5uUL6P+b/bof4wP2Du7sGXEKKEr8kQkITA9cJYkEXHda02QasFEPzJJCANgzkFz7HBIHITjQsx4REIDKQa9SsLSe648ajqb1LUQmGPR5dN8fMSoGfKsN+Y4HRp5Lj0zupBF3/NYfRKBj7Zofd77xg9NAUfKJAysHfru3u+Y1J0nAvvTAWUQDTt/RUCYB4J3+eKOf01z3WRsBCb2GxEGeBUCZeqviu0AA3CEAx6MmfSgx4I/X8e8KJoinG/KBthPnPmk6hx6e3En1d77qVSLQO3huz8Qh01d8STLWF3zdnjXf/KN93YMWOUACju7rGnhRwRfLNm7BKReftvufUNDPQyYwJYApAdl67vT7QADcIQC7JeX1t4D/aFQe8OeSib5R59GNVzxKgzvWeoUIfHxWZ8/tQ+asH1gQEF28wCP0vu5BF+zq+t6nIojAzpXf37R/1aDiSxqdNlT5yg9MvoiMnkXyPAFYJQBPgMemQ0AA5BOAAyFDypz/zqBzbv5ckLfz+zepayh6W7e2JOCszp7f1c5de9VZnW/9mYv4bvvVLfc/e9Mjz6doV9f3srfutf1904of0k1PXEOhu375zyVfmg+gZZxraB1PLS8+LJUEpLBKAETAI0QABEAuATgqIeJ/a2OCDkl09dsBf+ueAyMn0FVXP6ULCfi4trNnRW3n2isHz1v/o5IgqNgNgzvWXcFLFIff3UU3LpxB6WV1JcnAlpf/lha9MIqmLJhLQ+a+kemnszrf+mHJpskA+0LvqA+3UlPHzcSb/Dg9DZBdPqYEMCVQSCd1OQ8CIJcAbHd43n93KEnHq4jmt4Da4ePxV8yfpf9z9huXDu5YO02FT21Hz9TBHWvba+f2jKyd2/PTs2a//f0BRKcHu5VEQnVusAhAdp6C/5z3GrXc/wxd8shsuubxG+mmJ36WOU56+G6K37uUfjL39MROyhMAy9gGL72Ekj3PSyUBWCUAEmDpn45HEAB5BIAj7wtF5ld7npMI8Vp9h4FbcPmpZTR27B+pA5neqkk+ApBNBux+14YAsAHGlAAAWUcgdqvOIAByCADn+HdqW98PAm3E5esF/p/J/Q0Kn63FnLpu9MCXBIANKaYEQALcAlTd3gsC8BkQOQqgTm3tuy2QoP6onDY4SDDeoUh7jW4Aq3p9fUsALCOMKQEQAUsXcMyvCyAAzoPnobAzUf+cR4Az8DkIzDLL7qHR7d9SHVR1qp/vCQAbfUwJ5Df8AETIhXUABMBZAOWEP+yir3aOP/f57cGEDsF+5RGIiNFFbW2/rxPIqlxXEICTS7UwJQCwA+HJrwMgAM4SgP0OBP4xofDQyD+HJKQW0vTpX1AZWHWpGwhAzlptTAnkBwGAo3/lAgLgHAHg0f9Wwcv+tgQSdNQ7bv8c8D/ZFzFjii4gq3I9QQByCAADHaYE/At2IDqn9z0IgHMEgLfOzXXdV/v7E+2W+lUk36MUT56pMrjqUDcQgDwEgEEAUwKnAwHA0Z8yAQGoCKDyj1xzovE/EDz65zwCHgn4s9OO/6b4hK/rALSq1rG2c90Mu2v9i9135ry1f1uyjToCCKYE/Al6OuqqU3UGAXCGAHwsOPJ/RzBhBzQ9do9xS0ngwQ0FJXBWZ8+9xYDd7rUzO9/884IvsS44ZaCcLndY29nU8tICqdkDOWVx5MYZyKdfwEPjdJ+j/M+JHwiAMwTgo6A49//7jT6Y98/xnpz0dPRT3PwXC2NwLE8CtZ1rX7cL8sXu+9GsDaWzNepsVHlKYOS9txNv8pOd69/R7xuXUuSGn4EEgAS4qgMgAOIJQH/EFJr1z2eu/1wvRro82MPdLIF/v/utv6zt7DleDNhtXttva08EnQmAVXfZUwLmO4tpWPIcVwHAajuOn4+K/SQLEADxBKBPYPAfL/nj1QQ+mvs/va2x1AjAenkSEOX+r+3secXWm71iNGVPCYx5fC4IALwArukACIB4cN0mMPGPfhv8iJcnRc23aMAArXfmswWigm6qnbPuP2s7e/ptjvCLb808t+chW9XyCgHgdshcJWC+/QINjSddAwAv9RvaUr4XAwRALGAdjYhL+8urCHw98j/V8zHMFhD5/KafdPT8Y21nz24h4N/ZQ7xFsi2RetH4Bi+7lIyeRY7HBQSmTAUBgBfAFR0AARBLAERm/uM8AiAAVv+kltkCIr/eRHTG4M6e5trOngOiwJ/LOXPO+r+yJVIvEgBuk4zEQZFrp7ti/L3aZ2iXfU8ACIAFMGKOvFyv2mQ//Dxn/PP93P+pHoDjFDb/X1tg5KObauet/15t59rxtZ09r4oE/pNlvWtblF41uvWxNhr98BxHvQCR67Ek0Kv6o3q7QADEAD+P1BmwecmeCAKwF6P/07wfj02as6+2s2cTPhkZbKnt7DnsAOh/FhNwVmfP5b4mAMPNc6l15WOOgj8vNQxOmwYPAKYAXNEBEABxBIDT9IoAfy7jsNfz/Z86uj8N7PNNfXw4djLPSX8GUE6CH8ruOcreBd8SgPD0K4kD9BzNBbBpGZkbllDDuHZXjL/qo1PUz74rv1JZgQCIIwC8Xl8EAdgeaLMFiPlA0uvn2m/4FQhAZ4/zMrAb/W8xhEoNkGrP1UdbaeQDdzgO/BaxGPfC/QB/jP5d0wEQAHEEYKeg+X+fJ/4pSn7umXqP8+AnA2DVfsexH8/pKS/eQjUgr6Q+slz+FvhzSuDGiZNdM/6VyAjPOD8qlyljEABxBGCroPn/T/2x419RoC/kyXjLuAoEwHnyMNca2Ns+yjRaTrxLlsv/M/DftCyTftiJtqBMb4G0k/0JAiCGAByLmkLc/5sbkfmvEPjz+f5Yiv5r9usgAc6RgF1n3rP+m7aB37rRSSPlZNmyXf4WAeCVBXUhAJWTfYuyS+sXCIAYAnBYUAKgHUGs/S9GAPja+Bt+CQLgEAE4q3Nd1ML0so46GlvpLv+TQX/xO2+iulALXP+Y+3ddB0AAxBAAUdv/Yvlf6f6YedkCEABHCMC6O8sC/eybdSMAoSsuI2Od81n+rBE/H5NvPkuBqcj6p5uueLm+IAClAafUiJSvi9oACNn/SvfHsxfcAQIgnACsXd4wa8NXsjG9rO+6GEm3XP7NS+dTQ3PK9RGfLv2EepZ234uQEQhAacCxQwD2CFoC+GnEqCg4zk4dvXLP6vZrQAAEEoDBnT1rh9z2xjfKAvzcm0UYI6fLGJY4m1pXPCJtiV9m9L9hKTV13Iz5frj7lSR/IABiCICoJYDHkACoJAHa1DoNBEAUAehYu2bIvPe+lYvnZf92GryrLR8ufzkjymr7Cc/L7ScQADEE4KOAmCRAXhmlO9mO/SPPBQEQQADO6uxZVPfgW39QNtjne0BVww2Xv1xAUVUPUK/8egACIIYA7AhUvwcALwF0Eji9UjYvBUSq3qqyAR6t7Vx7yQCiM/JheUXnVDSwcPnnN/oq9hXq5E5fgQCIIQDbBWQB5B0AvQLSTrfjPzreAgmoxAswt+eN2o63flwRyBd7SDUDDpe/O4Cimh6gPsX1AARADAHYJsAD8AEIgG0CVH/nayAA5RGAD8+a23P+kOkrvlQMxyu+poqhhcu/uMFXpZ9QDzX6CQRADAH4UIAHgMtweuTslfKHzHkTBMAOAehY9x4D/5m3rvpqxeBu50EVDDpc/mqAigq6gDrY0wUQADEEYJcAArArhCyAdgjKkfh4gH9x8F9/VmfP7Y64+guRAbcNLlz+xQ1+Q3M7jTh3YiYREScjUuHTeMEkamgdjyWSLi6RBAEQQwAOho2q9wI4GAYBsEMADo4873BtZ8+v/P4Z3NmztHbuuoWDO3s6Bnf2XHRWR8/wIXPWDyyE0Y6ed4sAwOVfGPgbRpvUNO8WSrzypNzcB5uWlfU+zpA4+qHZNCx5jpJr5d3SbRnvBQEQQwB4M6AtVewGyM9yGXYAEPeYGx0FMxRevgRkGKvcdzS0nU2tKx8tC2yyU/NW8t3csIRO5PIvDLy59XTjd+jqK8hYLzfVcSXyPOWZ3y2h+O03gARI9AiAAIgD3f1VZAPkZwHsn/cFk6EjEYM4MyLvs3AgZND+cJL6wknaH0z+d/kIhScclYBskOONfJJvPCsV/BOvP0OByRcpD1DRmddSauNSqbI5BcjL9ADkPsveANn65Nf3gQB8DjoiAHhnBSSAswiKeLeOZTDI89TH3mCCWA7bggnaXGJFxY5AYpOjYIbCy5eATAM6NJagxOonpALcuBfup6FjTOWBief2Uxv0BX+LDERvvlZ5WcvUeafeBQIglgAcj5q0uwwSwIThuE/S//Ko/lDYoH2hJPGKh/cDbRXFTewMtv2ifITCE45KwCkDla/ceMfN0sBfF5d/Rk7hFmpbtVCabCywduJovv0CNYzF5kn59F/kORAAsQTAGoWz25rX9f9PY36Q42t8j3W/V49HI2bGbc+ZEt8vIItCMip0fndSoHT/AAAgAElEQVQocamjYIbCy5eASKNUtKxIKyXfek4KyOni8rfkFbr8MilycQLw85WZibWQOB9uydFPRxAAZwiABeiHIwb1hQ3aG0pmPvydz1nXvXg8GjGoN5QsSoAKgbud83sDLf9YPkLhCUclIMtoBiZPkQJyOm7fO/qxDimyyQfWTpzjnRtl6ZVf3wMC4CwB8CLA52sTu/f3hwwSkRGxGAnYGmjrdxTIUHhlEpBlQGO3XOcoyGnl8s8ZHbf8WvJWx1UG+5UiDeY7i0EAcvpY9P8ZCAAIQD5At3uOg/h2hxLEGxkVA25R13YEk29XhlB4ylEJiDZMhcprcnD+XzeXf66MEq887Sg5KgXYTlyvb0qABDhIAkAAQADsgn32fZ+EjUzUvihgt1vOrrDxM0eBDIVXJoFcMHLqd+w2ZzwAOrr8c2UsOyeCE4CfXab53hKqC7WAAIAAeHrOPBtYVf/O6/JF7HtgF/Cz7+Mgwv2N7d+qDKHwlKMSyAUjp34Hp00TO8rdsJTYq1AXUjuxjx15jnnqLrGycdjFnw32+b63dS8E+DsI/qxT8ADAA2CHdHDg4g4B+x1kA3q537cHEh85CmIovHIJ2AEoEfcMjSfJeOcXQoBOd5d/rjzD11wtRC75wNiNc0133QoCAAKA0b+LKYKPRQzaU0Zeg3JBvZz7d4UTt1aOUHjSUQnkgpGTv0fNn1U10OmS2KccOXKCpOTrz1QtGzfA/rR3/m4J9gZwGPxZt+ABgAegkAeA0xNvrjBZTznAbufeLYFE//b29q85CmIovHIJlANU1d7bMCZFybWV5QLQOcrfjty84gUYeTdG/3b6u9p7QABAAHIJAK/j58Q9doBZ1j07Q4lfVo5OeNJxCVRriMp9vnHSRWS+u7is0a7XXP6FZDbqgeo9JKeNyCXGAzQvmU/14Va4/+EBgPtfsvufExWJytgnihxwffY0tv694yCGF1QugUJg5OT5xomTbW8ING7RfVrk8hcir1ALZdIlbyxvW143Qd9695jHO6k+1gbwlwD+rGvwAMADwB6A/qh6o36LQOwIJN6pHJnwpBQJCAGuCoze0JEGNc2bWXBKoOWlBRS88jJfAsqICRfQuOfupdTvlpTlKbHAWNpx4zJq/uVDxBsZuaVHfn0vCAAIwCcRg7YoMtdvgb513NzYdnxfqO2fpYAYXlK5BFw3oOEWajzvQgr/7EqKXj+DgpdfSg0t4wEowWYaOjKZAVeOD4hcP0OZT/jn0yl4ySXY9KcC4ivq/w0EwN8EYH84qZzL3wJ/Pu4MJpdVjkp4UpoERBkklKN/PgL0oT59CALgTwLAWxDvdHldfzbQ5/u+NZA42ldvfFMaiOFFlUsARl8fo4++Ql9ZOgAC4D8CwBv3bFcsyj+bAPDSQ842uC+UuLNyRMKTUiVgGRQcAS7QAX10AATAXwTgaNRwbJvebBC3+53B/qNgIrN98KGwQf2nb5V8lGLmNoqm3qSYuYSixv0UMS+imPFfFId3QCrIF3sZjL4+Rh99hb6ydAAEwD8E4EjEpC2N7q/vZ+/DvlCSeF+B49Uvc9xMMeM5iqYmUzj1N8UwCtcclIBlUHAEuEAH9NEBEAB/EAC3wX9rIEF7Q0k6GnFc3hsoat5BsWQdxeO/5yDkoehsCcDo62P00VfoK0sHQAAcByTXkxkdjpiupPTlBD67ggnirYNzsw1K+R0zd1DEuIFC7f8rG6vw3QEJWAYFR4ALdEAfHQAB8DYBOOLCGn8G/t1BKaN9u8TiGEVTyyhmRige/6ID8IciYfT1MfroK/SVpQMgAN4lAJzTf6vEBD+bG9tobzBB/c67+e0Cf7773qGY2QIiIJizWAYFR4ALdEAfHQAB8CYBOBYx6QOJ4M+R/EerD+jLB9hOnVtHMSNOAwacIRgK/VkcjL4+Rh99hb6ydAAEwHsEgCPreR293aV41dz3QSBBh05fuucUaIsvN2Kuonj7P/gTtQW22jIoOAJcoAP66AAIgPcIAAfeVQPqdp59P9BGfaGkiGV84kG9fE/E0UywYMP5XxEIif4qCkZfH6OPvkJfWToAAuAtAsDb+doB8Gru4VH/Ybci+8sH93IIxgaKmUP8hdyCWmsZFBwBLtABfXQABMA7BIAT63AEfjXgXupZ9i7wPgJSlvE5C/aF2nCMYuZ0mj79C4Kg0R/FwOjrY/TRV+grSwdAALwBZpzff4uD+f3Z5X/Qm6P+AkTAWIxUw2VwF8ug4AhwgQ7oowMgAN4gADuDScdG/pyv/xOdA/0q9yRspkjq/5YBg/69FUZfH6OPvkJfWToAAqA/ATjg4Lw/5xHgNMIedvmXatvHFEkF/IvsNltuGRQcAS7QAX10AARAb3DjZD+cgKfU3H0l13nTHsWT+pQCb1HX+ylqtNqEQn/eBqOvj9FHX6GvLB0AAdCbAHwUcMb1vy2QIE4m5OORf27bj1PUOM+f6G6j1ZZBwRHgAh3QRwdAAPQFOQ7Kq2RkX+oZXuaHkX9evThOEfNCG3Dov1tg9PUx+ugr9JWlAyAAeQ197uhPud88Ot/igOuf0wf3Vx40p5ycHPBgHKeYmfAfwpdosWVQcAS4QAf00QEQAD0JwF4Hov63BNqIYwocAE2vlXmEYsm6EpDor8sw+voYffQV+srSARAA/QjA0YjpSMIfny71q5Sc7Kdw8p/8hfJFWmsZFBwBLtABfXQABEA/AuDEmn/O64+Rf9m6sJUCyUFFYNE/l2D09TH66Cv0laUDIABlG31XgfJwxBQe+MfpfQH+FevByxSPf9E/SF+gpZZBwRHgAh3QRwdAACo2/K6A5keCd/rjiP/jUcz7V0WAYuZlBWDRP6dh9PUx+ugr9JWlAyAA+hCAwxHxy/54A6GqwA8rBlh+RymePNM/aJ+npZZBwRHgAh3QRwdAAPQhADsFj/73Yt5fJPnZRGPH/lEeaPTHKRh9fYw++gp9ZekACIAeBKBf8Fa/Gdc/Mv2JJABc1h3+QPs8rbQMCo4AF+iAPjoAAqAHARC97v8TX23tK62P+ylq/mMeePT+KRh9fYw++gp9ZekACIA0cKh4tHk8ahIn6SmVwtfudQ4kxLy/Q/0eMbpowIAzvI/4OS20DAqOABfogD46AALgEBAIDI4TnfPf59v7Ok9+YkY8Bx69/xNGXx+jj75CX1k6AAKgPgH4UGDw3+4gEv5I8H5spnj897yP+lkttAwKjgAX6IA+OgACoDYB4LS/dl37pe57vxEb/UgA/5MeBiOZBY/e/wqjr4/RR1+hrywdAAFQmwD0hcSt/d8dwty/PAJgvkvTp3/B+8h/soWWQXHz2DAmRSPOnUiBqVOlfUacfyE1jGsnN9s9rGU8NV4wSVqbZcrXi+9qvHAyDUueQ3WhFlf1hnUWBEBtArA9kBDmAeBEQhIBEO+KmREQgKDDo61wC0Wum04tLy2g1MZllNrkzqd15WMUm/lzqou0SjHqQ+NJis++iRKrn3CtzW7J2ivvTb72DI285zYaOsaUojP5SCoIgLoEgNf+l3Lr272+A5H/bhCS34IAOEgAhiUmUGvXY0oBYOI3T9Lwc8531KAHJk+h5BvPKdVur4CyG+0w1v+CQldf4ajO5AN/eADUBX8eqe8X6P4/FEbwnyvej4j5Y1+QgEIGxqnzw9vPJWPt80qCoPHOLzIueSfaHrr8Mkr9bomS7XYDPD3zzo1LKXrztdJJADwA6pKAj4JJIR6ArY1tbox+8U5eChozZ4EACPYCsPu7bY3arm8eoYuODciQnnd+AfB3aZrHabJhblhCgYumSCUBIABqEgBO/rO5UUzynz0I/nOTjOykIdO/5HkS4MRot1CZTR03awGCox+aLdSYj1t0nxbtdhoovVx+a/oxqgvLCw7UmQAcjpjESXL2hZK0K5SkHYEEbQsmiPPc84cD6HYFk/Rx2CAGVFdcwBW+99OwuPl/7Pjnct+HjaEgAIK8APXhVjJ6FmkBhDyiGzrKEEIChqXO1aLNXgZnWW0LTpsmRGcKEejs8zoRgKMRg/rCSeJUtuWOjrcG2jJEQBcSIGr5H9z/LoN/hgCmHgQBEEQAGidP0QoIw9OvEmLMY7dfr1W7ZYGlF98j2nOUDfi531UnAMc4GC6cpO2CsuGxt0AHEiBq6989mrRXhz6poo69FI9/0dMkINewOPU7etM1WgFhfO5MIQRg9GMdWrXbi8Asq03Nv3xQiM7Y+R9UlQD0R0zaE0yWPdK3syyuTwNQZI+FnbaUuucQdv1ThPAl/xUEQIAXoGn2TVoB4aiHxcQBjH3+Xq3aLQssvfietlULfUsAjkVM2htK0PuCADAfQHJKXJU3xGGvR756V3KOy6pi5Krls6xDRyIGcewDp1JWov0xYwoIgAACEJ15rVZA2DT3FiHGfPRjnVq124vALKtNLb96SIjO6OYB2Dh95ltbBEW+lwLLXQonxvlEUAIgDohUAvwkkZADoSTl2ziJt1LmYFAmBS7KYxEIgAACELz4Yq2AMHLt1UKMeXz2jVq1WxZYevE9ox/pEKIzuhGATdOufa8UcIu6zkGEx1UZHeYAJAc6imgnT6G4CHjS3s3BodtspExmz4+LMSDejgOwY2xE3FMfbSXOnKaF4d+wVFiaV84uqEWbPbpGX6bsg5dfCgIgwROg6vK43YICHnmJpNcJAI/qeYRfDmFyzfsTTv6TZ70AIsDdbhmcP12mQa70XWMenyvUkDcvna9FuyuVF55bRonfPiVtPwn+f1MpCFCmB4AB42NF0+NyPoNyAK3QvSrHOYggJhzf8EGZ4G/JqteVQNBUEwiAgGmAoaMNSr7+jNJgaKxbRA1tZwslALzTofke0gB7lihsXEqc6tkuERZxHwiAIkFiWdMAnMTIAqpqjrolPyqXFLA7v1L5vN+YkB8gGEldAQIggACw4eNteM23X1CSBHACIKeSuYR/Pp1SG5cq2W7PArOkaY2mTjFLRsshBn4mAKpOATA4VQps1nNbG70dACgiVfJe2V6AiDkfBEAQAciQgAkTKfnq00qBIW9QxMmKyjHC5d4buvJy4g2HALjubP0sWu5MGN3YCIj1zq8EIBMEmDXqLnf06dT9opYA8jSCU3VUoVzOb2CRnUqPHDgouS2rQQAEEgA2YPXxNorfeRMlXnGXCCTfeJaa5t0iLPVvKVLQ0JyiUfNnUbJHzR0RRYOkF8tjEsdxIsOMCY4SxmK65FcCsFvRCHlet14poGU/x4GEksFN6vtEpUqWLKM9IACCCUC2cRvefh4FL72EItf9jCLXz3D8E71+BgUvu5RGnHMB1YWa3THi4RZqPO/CzNyxjDbjHdXrVeiqyzPbRdfH2tzRmaz/QT8SgMz8r4KjfwYjUZsAubjcTQoRYPd9NuGp9Ht/VOpKieM0ffoXPEkCsoEY310iA1mGHX2APrCjA34kAAcUjf5nAiDCtc1g2BuSCmxSQD97tM4enEpBP/s56ZkSA8k/BAEAULk+8rMDDrjH+yTCbwSAk+xkA4lq33nr4myAqvT7ftkBbpI9KpzZr1LZZD8nfaVEpL0GBAAEAAQAOqCEDviFAHDAF6fYVQ3wc+vDyXuyAarS7wc8ngRopwACwJkBc+Xv+O9w6m9AAGD8lTD+GOF7f4Rfqo+9RgA4Kxwnh+Htgz8KJojninUAfgt4GLgrBf3s59iTYJXpxeMOAQRgc8AFAhA3/wUEAAQABAA6oIQO6E4AtgcSmfzun4QNkj6f64Db+6CgfQBYHl4EfqtN2yrMAJhNknjLZas8acdY6iwQABh/JYx/qdEhrnvfQ6AjAWDX7Ynd3dTL4lctkDBwZ4NUpd9d3vnOcWDlPA6VysZ6jklEtf1V/vPG/wEBAAEAAYAOKKEDuhEAduvz7m/lG149yAJ7MZjgWCBVyZFd29KD2xzwhhTqY72TJbX/LQgAjL8Sxh8jfO+P8Ev1sS4E4P1AG6kewV8IsMo9v6PK3QDZO1LuO3W6/7AgL8keN5IlRYzvgwCAAIAAQAeU0AEdCAAH9h328Kg/F3x5j4JKRv7WM153/x8IVScfS059biyVRB4AjLpKjcpwHToiSwdUJwBbGhPk9W1tcwkA/95dYaY7r2cAZNnsEbACgEmACyslDnhy9M+NkmWw8B6AI3RAnA6oTAA40MtPI/9sIsBz+BzvYI1W7Rx3ueHSljj3b8nnwzLlUkh2hyPS40LeAwGA61cJ1y9AVByI6ixLlQnAQTdctC4AmgVs+Y48ouf4h0Igxuc56M8v8RHHIxwkWR4xKiQ7F5aNrgABAAEAAYAOKKMDqhKAnT4ZzeYD/dxzvOqBExptCyY+Az9eKcDJjnpDSeqXP5J1LchQ1DJJd5YAmp0gADD+yhh/nUeuqLsYD4aKBIBd/5J3aXMN0HLB3s5vLy/xK9V+UbsA7g65sV2ycR4IAAgACAB0QBkdUJEA7PX4MrZSIIfrhefmeU+HQi79cs67sldCzBwCAgDjr4zxxyhazChaZzmqSAAw+i8MgH4mB0ejYpb/MVFwYankcQq3/CkIAAgACAB0QBkdUI0A7Ai44ZoF4OpALDggspxRfqF7eYrJhfau8yz4c8PcHAUNaxlP8Vk3UPMvH6Tk68+Q0bNI2off17L8YYp33EzDkucoY9ht90eomUJXXEZjFs6ltlULKdnzvDTZyewnUe9qW/MEjXvmHgpfczXVR1v16+8c8qUaATgQ9nYWOxeAxw2wc+SdvMtjIVAv5zwvr3ShHzpAAHKMj22QKvBcfbiVmubOJOPdFyi1aZnrH3PDEho1fxbVx9q0AIbGiZOpNf2Y63JToe8qqUPilacpeOklWvR1of811QjAUR9FtLsAQm4An5B3VpsdMZsguEQyR4MAFADyQsap2PmhsQSNW/yAkuDVuuIRahhtKg0MoauvIPO9JUrKrxIwdu2Zjcsodvv1Svd1sf8jlQjAxsuvfxugiOmIfDqwU1D2PyYCLi2bfIzi8d/zLAkoZmSEXwu10Nin7lIavJqXzif2UAhvuwAS1TjpIkr9DuAvjDRsXErh6Vcp2del9E8lArDhulmv5TP+OOdvUtAfMareIdHyAHzoZoxJzFxO2Aug+sjr8NVXKA3+FrBEZ16rHCgwKUn85kkt5GfJUYejsW6R8l6ffGRAKQJwa8cagL2/wT5f/4ta+88koDfk8lbSEaOL4hO+7jlPQD7j4tS5tu7HtQCw5JvPKucFiFw3XQvZ6QD6uXWMz52pHOEr9T+oFAGYdfeqfACAc/4lBf1Rs2QqZGt0b+fISwkV0Ke050hAKUMj6vrw9vO0ArDAlKlKgcK4F+7XSn65IKvyb14hIErPZZWjGAHoVsA4qwAQqMPJPRn2CFr6x+TAVff/aXtMpJZ5KiZAlsEK/1yvEWz8zpuUAgV2VasMorrXbehoQ6n+LvV/CQLg39G16mSLV4Twngd2RvZ27jmo3hLTR2jAgDM8MR1QytCIus6AqhNI8LJAUW2vthxeOaGT7HSs6/Dx5ynT33b0BQQABEBVIlDudsjFSMCWQBspuYdCzLgGBKCMyHZecqUTMIy893ZlAIEDAFMblmolP536muuqWzIoEAAQABUJwKGIuLS/TAw4kFDFdlLUPE7RVJP2JMDOaEPEPbx+XSdQiN7yc2UIAMs/8fozWslPp75mcsVeFhF6LqsMEAAQANWA8XjUoK2CNv2xvAKKJ5g6QGHjh1qTAFkGixPs6DSK5aBFWbKx857Rj3WCADiUNZJTUdvpA5XuAQEAAVCNAOwWGPjHBGCnO6l/y/U4vEON7V/TlgTINGrjFt2nBYi1vvyocoDAqxK0GlU7BNZOyCBy3c+U6+9S/5cgACAAKhGAQ2Gxrn8mAIf1SS/dCQJgIx5gxDkXEOfdd8KICytz41IKTFVrCaAFBlgKKH7fCN5ISdXMj1a/5zuCAIAAqEIAOOMfB+tZbnsRR01G/1neAqNRSxKQz7g4eS52y3VKE4CmebcoOxpsaE5R8jXEAogie+bbL9Dw8ecr29/F/g9BAEAAVCAAxyMmbQ8mhIK/ZqN/iwRsp1DbN7QjAcWMjFPX4rffQKmN4kdz1QLDyHtuo7pQ9SmPnZIblzssdS5x4ppq2+r35znbI++q6GRfOVk2CAAIgAoEgEfqIkb82WXoN/r/TBf1mwpw0kgVKzsw+SLi3fdUAKK27oUUvESf7WGHjjKIlyliV8AKSOSGpTTm0Q5qaBmvLfjz/xUIwGdG1xqBlTzyaPXjcJL2hBKZADMGGv7+cdggjmBXAVB1qsM+wUF/TAI4gZDikf/F9OQYRdt/pJUXoBhIy7g2YsJEit95I41+ZA6NeeouaZ/Rj3VQfM5N1HjBJOVH/YX6gbPXhWdcRSPvv53GPDlPmuxk9pOId/EOlJzYKXL9DOJplELy1Ok8CIB9AsCJZHgzmc1FstPxHHZfGCTALgFhWWWP2kV971V33X8x4M++tlqrLIE6GT3UVe3pCfSPvP4BAbBHAI5FDNpRxtp0zmJ3TJ/o82zgkfZ9fzjpCPh/oGrWv9P2Ayipe6O18QLAaMsz2pA1ZC1KB0AAShrhTArZDyuYo94WSFA/pgTyEor9Drj9Le/BJ97xwGykIdO/pAUJEGWQUA7ADTogTwdAAEoTgGrmqD8IJHSei84L3nbd+4Xuq0aeFsgXOu7SI+lPGXI1kiAANnIDADTkgQZk7R1ZgwAUJwAi9qPfGuBkNIgLYEKwOyQ+2t8iA5w++Fj5bvYywLi4rhQiPFWe36SFFwCg4B1QQF/6py9BAIobdVGu6vcDbXTAO67pskGzP2LSjgqmUSxwt3P81KskK2bElfcCADT8Axroa+/0NQhAcQIgcktaBrE9oaSa29I6OHLmOfktRVZO2AH3Uvd4IOq/MKmKmKtAADAN4IllZyAPapEHEIDiBGB7GZH/pUDKus7BgRrlpy8MTCVIAy+bdHK+35Lnh4FExXWs0j0v8b3Jf1WaBMCwq2XY0R/oDzs6AAJQnABsc8htzYlqeNTKIKkPCNmv6+GwQUx0LJB26sjxFRyn4UUZ5rSpAwQAXgB4AaADQnUABKA4eDg9b82rBA55aO6a8yXwNIdTgJ9dLidk8oMn5SQR6FV6u2A7ow3cg1EpdEAtHQABKE4AZLiwGdQ41uCIxomD2JPRx1kSBe/mlw34ud8PhZN+GPlntTHVpKwXAIZdLcOO/kB/2NEBEIDiBOBIxJlUtblgZv3eGUxqtWSQ9z7YHzaIl+BZbZBx3B/y5bLKx0EA4AIW6gK2AxK4x7tkAgSgOAFg96sTO9WVAsmPAkk6pPCyQV7Wx94R3vugVFtEX9/ruWQ/pXXw5DTAx8pOAwAkvAsS6Fvv9i0IQGnjy2C31eFlbIVAcmtjIgO0RxVIKcxuft7xkMkJBzEWqrOT5/fqv8lPlku/tO7lBAISxVINSnoBABLeBQn0rXf7FgTAnhHmqHY3RrvZYMpR9Tzq5rqcBgwORcIz+TkYNmhnKCl1fj+73dZ334N/po9Tt4IAYBoA0wDQASE6AAJgjwAw4HI8wJZGuXPdFvjlHjnYjgMHeSnhJxGDGKhFkAJuI2cs3BNMkhM5EHLbYfc3Ex8R7dO/jNR6EAAYfyHGHyN7747s7fYtCEB5wMkAKTvgzS5IsoeCk+Lwhji8FI/JAYM5j+CzP3yuL5TMeBP2BBOZFL28HNEtt36p9nk6y1/5npvjFE98WzkSYNfg4D6ADnRAHR0AASiPAPAIkjecUWl0XApAdb3O+yccxMj/dM9HxBgOApDjBRjefh7FbruORs2fRWOfuovGSPrw++KzbqAREybKH5WHmqlx4mSKz76JRj08W1qbZcnWq+8Z/UgHNXXOpMDUqVQfbpWvN1n/OyAA5RMAJgEcECd6nwBdgdqJemMHxSJ6GTFngACcNGIMgM0vPkSpTctc/7SufDRj1GWMcMNXX0GJ3zzpeptVkLvOdUi+8SxFb5hBdSF3vAIgAEUMrQ33LLunnQBAP5fJwY5Hbche//n8inXveRCAYDPFZv6czA1L1ALBjUupae5Mqgu1ODKy4xHj6IfnqNVmBciXziSA6z5u0X1U35RwRGeKEVIQgIqN8GeuWV6v7/YKAa8Qht28P4KggEYPE4SNvicAkeumKw2CTR03O2LMRy+YrXS7dQdiN+vfvGS+9CkBEIDqCQADTX/UcHy/e6+AfL528OoKzjHgYdAW2bZjyiUEKjbKEH1t+Pjz1Rv5546CNy6lxslThJKA8IyrAP65cvbY76bZNwnVmVL/eyAAYgiABVycD1/VaPp8wKvCOY6lELWM0eoHzx/jib9TygtQytCIvD7uuXu1AMLWFY8IM+bs+k+++rQW7XZzFK37u823X6ChY0xhelPq/w4EQCwBYODhrH28HE8FcFW5DjxtcsCfOf0FeANS9b4kAA2jTfVH/1mjUl6dUMoI27kevPhigH+WXHUH+mL1zwQFZkXq29GPSu8BARBPAKzRJ6+3R2xA/pTBnKeAtw62ZIVjmXoYM0xfEgCOfi9mPFW7FrvlOiEEYOQ9t2nVbtX6Qaf6jH3mbiE6Y4cUgACUaXjLjE4/FjGJU9hiWuAEEdgR4G2PAfxVE56YeZkvCUDs9uu1AsKR994uxJhzbgOdQAx1rXxZqsipo1IkAATAWQJgGfqjETOTXvd9RVIJy54a4KV9CPITqms3+ZIAxGffqBUQjnrwTjEE4Ll7tGo3CEDlBKCt+3EhOlMK/Pk6CIBQo1zSpc2rBTivPefylw3CbryPMyYC+J3QMeMuXxIA1Zf/5QIfExY7hrjUPaMfwvK/XNl69fe4xQ8I0ZlSOgUC4IRhtlcmR73z1MBmjwYLcmT/p3D1lySEloeoguMCXxKA4ePP02okHJxysRBjHrlW7bwHXgVjN9rlVA6JfIQAHgB7gF2BgbZl/I9HDToQUmvnvUo9BR8E2jLejaMAflt9X6VOPeJLAm5eiosAACAASURBVMBGrG3VQi1IgLH2eWGJXRrGpMh8d7EW7XYDND3zzo1Lafg55wshjfkAP/ccCIC7BCAbBI5EzAyA8s58lYKw7Oc2N7bRrmCSPkESHxmgn/2Ox3xLAEKarATgVMW5Brea31gJUPm8ui4EQeYKANZFEAB1CMCpZMCg3nCSPgyqRwa2BROZ6QsGfd4UKbve+C5JHhHjUd8SAM6zP/ZZtYPiWn71kLDRv0Uaho5MauP90AVwVapn8s1nqaF1vFDSaOlOoSMIgCSDXQVQ8vbDh8LJDOgyIeBRt+yRPr9vfyiJjH1V9KNgcnSPfwlAsJmGxpPU8ssHlXSJt658jBrGphwx5MOS51DiFewCqBJwi6hLcu1z1HjBJEd0phD483kQAPUJQD7g4LX0B8MnVhTsDCZoezBBWxwmBvy+fHXBOVd06A5fEwA2Xpwel93i5nuK7Ai4YSnxZj1O7+rG2RDHPn03pTYuVZIAiQBEP5XRvHQ+MbErBtROXQMBcMV4Owqk/VEzk2yHo/APRQxh3gJe0gewV0ZfrvU9AbCM4rDE2RTvuJk4gUryreekgmKy53lqfflRarrrVhKV9tdqV6lj43kX0qj776DW9GNkrF8ktd1+AmjRbeV8/22rnshs6xyYMtUV4Ld0CwRAGYPuGLiK3JfgE0T4O9ZPZZKrc0EAJOVLt4wljs2ughXkL17+IADeJwA8dy8qZoBjEMoEKtzvSNxAKgoCAAIAQIYOVKUDIADeJwD9AqcBmEgcDCcB6o6Aehm6GE+eCQIA41+V8ceIWvyIWjeZggCUYXTdNvpVvJ834RHlBdja2Ea8MgGeABdlMLr9WyAAIAAgANCBqnQABMBFIy4RRDmCXxQB4HJ2YSrATQK0Vynw58roNvJBfTH6hQ5gGaBfRrGcsGeL4J0IsSzQNfK4GgQAI7+qRn4APxAg1gF4AFwz4tJHkLwLoUgvACck4vTFfiFRCrVzNggACAAIAHSgah0AAfAPgB2LmMKzCPIGQJx3QCFw9H5dYmYCBADGv2rjDy8AvAAgAP4Cr70O7C2wLZBAUKBMEhQ2fggCAAIAAgAdqFoHQAD8RQD6HfAC8LTC9gBWBkjyguym6dO/AAIA41+18YcHAB4AEAB/EQAGqV7BsQBWXMG2QBsdRUyAs1MQMfMJ5cCfKwQwAZhAB/TTARAA/xEAXhHwgcC8ABYB4COvNOBtgiWNhv34nnNAADD6x+gfOiBEB0AA/EcAGJwPCc4LkE0C+DuvOAAJEK5bxylifhcEAMZfiPHHiF2/EbvoPgMBEG6ktQE+3kY4F7hF/uYtig9j8yCR+vCKkuCPKQAAiWhgQnlydAoEwL8E4FjEoK2BNkdJwPuNbbQnmCQOPoRHoEoZRIxLQQAw+sfoHzogTAdAAKo0yjKXfznwLp6vFznqL1TW5kAb7Q0lqT+K+IAKidBxCp39AxAAGH9hxh+jbDmjbJXlDALgbwLAYMTAXAi4RZ9nj8DOYJIOYWqgPI9IxPy1suCPKQAAicogh7oV1k8QABAAJgEfORwPkI9IbAmc2FSI9xTA8sFSemi0ggCUGP0PS55DwSkXU/jqK6R9ghdfTMPbz9V+VF7flKDGCyZR6PLLpMlOZj+JeFfwysuo8cLJ1DDa1L6/LVIEAlDK8PrjOqcJdmppYD7wz3eOCcGHgQTtDiVpf8igI/ASWF6CndTW9vsgAHkIQH2sjWK3XUdta56g1KZlrn2Srz5N8Y6biYHUMq46HBn0xz5/L5nvLXFNdm72W0Xv3rCUmpc9SMFp07Tq63z6CALgD4C3M+98NGLQFofyA+QDfDvntgcS9InfiUAsdZ3S4O/WFMDw8edT4rdPKQVcyTeezYwS8xlblc7Vh1tp1AOzKLVxqVLyqwiQXSR+Y5++m4bGk9oSARAAEIBscsCjbh6J2wFnmfdwnEJ2PX30/VMKJAeBAOSM/kdMmEjm2y8oCV48mg5MnaouKISaaeyz9ygpO90IANe3dcUjVB9vU7e/c/53sokoCAAIQC6Y8tp93upXJsDbeRcvJ8ytqw9+q7f1bz42km1UnP4+dJRBydeeURrAjJ5F1NA6XklQaOq4WWnZ6UgCxjzeqWRfl/pfBAEAAcgHokwCOK2vHWCWeQ9nMMxXX4+eO0wR4/v58Fa5c6UMjcjrTffcqgWAqQgKDS3jyXhXTc+JjsCfXefGiZO1IwEgACAAhcDzaNRwPTAwl1xwoGKh+nrufMy8TTmgL1QhkQBftKxIKxnrF2lBAFIbllLDmJRSoNA0b6YesnNxXj8b1Mv5PubJuUr1ddH/o5PTAiAAIADFgLM/atKHLiwRzAX+7N8+CQrspdHt3yqEt8qdt2NsRNwTuPhirQAsfM3VSoFCa/oxreRXDgC7fS8T07pwi1L9Xep/DgQABKAYAeBrvHugzGRB2WCf77tPNhqaqhzIF6tQKUMj6np05rVaAVjT3FvUAYRQC5b7OexZGNaiZtxHof8/EAAQgFIEwLp+IGwQp/TNB8oyz+0Ken4aYB21t3+5GN4qd62QgRF9vmn2TVoRgFEPz1aGAPByNbdHyV5///Bzzlemv+3874EAgABYAG/nyBn7OFmPTMDPfRdnLbRTV03vOU4xc4hyAF+qQnaMjYh7ojddoxWIxefOVAoQEADobLKohuZ2pfq71P8cCAAIQCVA2cfeAJeWCnp7OWDqzlJYq+T1UoZG1PXAlKlaEYDwjKuUAoTWlYgBcMoLwUs/EQOwmpZ3VfbZMOvu7krACM+4Q2J4Z7/dQXkbCVmegAMhzy4F3EjxCV9XEuBLVUoUwJcqhzPYsaF1yoiLLNfcsISGjjaUIgDskRDZRpT1uUdhzONYBVAp+PNzIADuAHm1BIpzBuyQNC3Auwke82Zq4CMUN/6tFM4qe70UcIu8rguIjX54jlLgz33AeQBUzaCoNZnYuJRGnDtRuf4u9X+HKQA9Qbda0HbieSYCHKBnjdSdOHrY/X+BsuBup2KlDI3I67zhTuKVJ5UeyRprnydV54Pjs25QWnY6EoHRC9QJ9iznfw0EAARANBng/QT2BpO0RXCMwNbGBB2LerC/YuYTdjBW6XvKMToi7h0+/jxlpwLMdxZT46SL1B0NhlqIk9boCLQq1rnlVw9RfbRV3f7GXgBejhpXtm2cP+DjcJJ2BpNVBwwymfDo9sBvaDvvn81IRIB6uWUMN8+ltu6FSgFZ4pWn9XAFh5qp6a5bKbXx8zlsFcFV9TqNfqyTeEvqcnVXlfvhAfDgiFLBUTKTgUPhZCZocFuZ8QI7gknqj3iyn7ZTMPEX2Tiq7Xe3DBoHBUZunEGtLz/qKhFoW7WQYrdfrx0YjDj7Ahrz5DzEBZSRIMh8dzGNW3QfBS5U2MtTZNSf/b8KAuBJYFHWK2BNN7ArnwlBbyiZiRvYHkickmRoayCROf+Jdzf/6aV46p+1BfzcimcbFbe+NzSniDdkCV1xGYWvvsLxT+jKyzMgoOquf+X0A7uwmQwEp01zXG4y+saJdwQvvYR4G2pOqFSObFW+FwQABMACZRWOx7050s8lZIcoYvx7LoZq/VtlI4e6NXsGsNCXYvsSBAAEQAXg91MdDkcS12gN9vkqD8Ms1jBDnpCnDB0AAQAB8BP4utlWnvbgZZKcy2B3KDkrH45qe06GscI7AIrQAbE6AAIAAuAmKPrl3byF8dacjZR2hhK/1hbwcysOwyzWMEOekKcMHQABAAHwCwi70U6OadgTKpwcaUegbR0NGPCFXDzV7rcMY4V3ABShA2J1AAQABMANYPTDOw9FDPogZ9SfLzvijmCiRzvAz60wDLNYwwx5Qp4ydAAEAATAD2Ass41HIibtLDMl8s5gYmUupmr1W4axwjsAitABsToAAgACIBMcvfwuDvLbG0pmgvzyjfRLndsVSD6nFehnVxaGWaxhhjwhTxk6AAIAAuBlUJbRNgb+vnCStthw95ciAbtDiSuycVWb7zKMFd4BUIQOiNUBEAAQABkg6cV3cHrifaHq9znIJgWbG9uO7wmmztIG+K2KwjCLNcyQJ+QpQwdAAEAAvAjOTrbpcNjgdfwVu/qzAT/f922BxP6t8UlftbBVi6MMY4V3ABShA2J1AAQABMBJsPRK2cciBu0PJancjYzyAbydcztDiS4tgN+qJAyzWMMMeUKeMnQABAAEwCsgLbodPLd/MGxktjN+X8D8vh3gt+7hbIF7Q6kGC1+VP8owVngHQBE6IFYHQABAAEQDp87lHY2cCOjbETiRstcCZDeO2xvb9igP/FYFYZjFGmbIE/KUoQMgACAAOgN2NXXnID5O1sOBfB8FkrSlsXDGPjcIAL9zVzhxq4WxSh9lGCu8A6AIHRCrAyAAIADVgKiqzx6PGsTz9kcjBn0SNuhA2KDeUJJ2B5PEo/utAfXAPpdk8DTA/nByD7W1/b7S4M+Vg2EWa5ghT8hThg6AAIAAqAripep1KBONn6DtgUQm5e7mQII2N7ZRLpDq+Js3Dvo0YummMQkEIGgfEIbGkzR0tOH8Z2SSZBhpu+8YOkpCm2XI1ePvqAu1KKM3IACWkcWxFOCqcv3TiCEtGt8N8sBphDkA8TN5R8xdFEj+odIkwC5IOXHf8PZzaeQ9t1Fb9+NkvrOYUpuWSfsY775AidVP0MgH7qAR506UatgDky+i0Q/PocQrT5L53hJpbZYpXy++y9ywhJKvPUNjnphHwcsuJTcJAQhAlqHNNrr4/jkAKSSLgw6uv3cD7LPfyd6Lg+FkAbmnJoMA5HgB6mNtNOrBO4kNqhJAsXEpjVk4l4Y67BloaE7RuF/cp0abJZItJfrYgfa2LH+YhqXOlUoeLSIOAuAsAeCRHLuqeQ56fziZ+RwIJTPLy3iP+MMRg/oVAtjPRp0K1okD9rIB00vfPwomqD9qFAD/jI5upfb2LytLAiyDIuvIIMuGU0VQaFu1kBqa2x0x6AwUPHpUsd2oU+WeJ2PdImqcdJEjOlPsfxIEwBkCwDvCfRS0ny2OA74+CCQyAWp7gskMYeA54OMKArEbJIGD+nhe3Eugz23Zkhn1FwX+z0lBzIiDALAXINRM4164X2kQbF3xCLGHopjxLfcaxzUkfvOk0u0GCaicBCR7nqdhiQlCdaaUjoEAiCcAfaGkMKDiBDQfBhOZXebYk3D8s8Aw8fV2A9jtvlOkTFUgEUz4mOidMtdfmuy9AAIQbKbwNVdrAYLx228QasxHzZ+lRbtBAionAeMW3SdUZ0AA5AIlryl3EmAYOHgZG08n8Dp2uwCq+33bg+ov27Pb79x/7CGqoE+OUqS9RkkSUMrQiLzetuYJLYDQ6FlEdZFWIQa9YWyKUr9TJNbBgXlwkIbPSYPMYFJ4ACoyxHmN98dh+XPUO4KJzHSBlz0DPA1iF1xVvo+XK3LcRwXAn/3MBb4mACPOuUAL8LcALThtmhACEL1+hlbtttqP4+fAblcWTfNmCtEZO6QbBEAMAWCQ4jl8twCI18DvCSXpSPUAkw02Snzn9LxuyVXEe7cH2uhQwej+svXvV74mALoBYdPsm4QY89ELZoMA+MTz0Lz4ASE6AwJQtnGtGPBUilDniHLOflflSFOZ5/s1jf7nET97hQT3wxEKtX1DORJgx9iIuCc++0atgHDUQ3cKMebjnrtXq3bbHe3ivtM9BJzPQsT/ip0y4AEQQxL2KDhHzcGDXiACOk0BcNDmrlAys7xTMPBnEQmj0bcEIHbbdVoBIScosmOIS90z5sm5WrUbwH46sNuVCa8gKaUPoq6DAIghABzYJcJd7EQZO4L6Tw18qLB8uc94+qc3ZJQb1Z8F6mXp4fW+JQChKy/XCgijN18rxJiPvPtWrdptF+xw3+lEYcxTdwnRGTskAQSgLMNb0GCzu9cJ8BZZ5u5Qko5VFn1esN3OjXJP7ZcDYWdXV1QiZ87ctzuUIE5NLEsOJ9+z0rcEgPPdK5P5z8ac9HBTTIa3wJSpIAA25O0FQhG57mcgAKXXRMs2ukXfx9vJVgIisp/ZHMjsMFe0LZLBzFZd3A6ytPppC7v4g8nM3D7XyR1ZpfpowIAzlCIBdkYbou4Z+/TdWoBhy4sPCzPk9eFWSvz2KS3a7QUQdqsNxvpFmU2sRP2vlCoHHgAxRnyvgjEAFmjlO9pIPesSuBXuj8Nhg3iOPV97nDzH3h3O76BUPEXE/K5vCQCnw1V+85uNy6hx4mRhBIANefjqK0AAPO4FEJ08CgSgMKCIHL196kIOgGpBj0ezDkSpO0oceB09ezGqbXuh5znREscbMKFj2RyT7963J7+w+VPfEoAMGCqeDTA+S2wWQMuQ8+ZHbo1O8d7T5+tFyoTTW9eF5W4VDA+AOILAUfeFgEXl87uDSa32HOC8AOzBqEam1t4LPHWzN3hicyatcihETMPXBIABMZMTQLXseBuXUfzOG53b4jXcQiPvvx0kwGOeAA78q29KCPUYWaSx2BEEQBwBOBwxiYGlGmBy61lOtcvr7UV6RZwuiwG7N5SknaFkJj0yr8SwPjuDicxcPSdHYvd9X/jEvD0H7B11be5enK5R1Lzc9wSADRtnBlRlYyCe8xft9i9kvIOXXEJtXY+DCGhOBBKvPE3hGVc5RxhzttDO1ScQAKFGObPNr64kgKcEeJ7daeBG+SJ0LnUnCECWcWtoO5siN86gpntuJc6aJ+sz8t7bKTrzWhIV7Z9roEv9ZgLEuRFG3X+HtDbLkq1X38ObOvEUUeMFkzI7W5bqYyevgwCIMManlsHz1Fsaq3NRu+UJ4KVtSgW7eWO0Lp5URcz7QACyCICTRhJlN0t3TUPmcmQOAnAqeIsanfLmPL3hJG2rcq7aDSLAHoyD4nLXiwc/kAKW6SMgACAAAGboQFU6AALgDAHIJhIcSc7z1ewZ4Mjyg2Ejs50vEwQOwON5660Kxg7sDyUB3qqSjZj5NAgAjH9Vxh+jbDmjbJXlDALgPAHIJgPFvrPXgIPUmBjwNr9urHnP9ThwkF2xOuOaa/qzAAQABAAEADpQlQ6AALhmwEsCK2ea4/n4PcGkqzEFHEEPoFdMTyKpuSAAMP5VGX+VR6aomxzvBAiAYoa9gMuZyQBPH/DyNjdWGewHCVCLBMXMmSAAIAAgANCBqnQABEAPApA9Au+PGpm17U5mxMudCuDfH0fgCcjuB1e/R8yrQQBg/Ksy/hhlyxllqyxnEAD9CIAFPP0Rk/aGko6mxs0mArxE8LBmyYIsWXnweA4IAAgACAB0oCodAAHQlwBYoMZEYJek5Ya8WuFYgWkKqz44StCpmPFfIAAw/lUZf5VHpqibHO8ECIAEYy0JMDlg8IOA8wmIOA8/QN5lvYm3fw8EAAQABAA6UJUOgAC4bMgFkwMOFtwbcp4EYGWAq3rzKU2f/gUQABj/qow/RtlyRtkqyxkEwFVD7thI+lAmHbFzGxPxSgTeAhmeADf0J/WmUuDPlVHZyKFuADroQH4dAAFww4DLeSfverfdwSmBrYEE4gEEe3BsEqrZIAAY/WP0Dx2oWgdAAOSAsU3DLnxEzVMCnDsgO5pf5PfdIcQDSO/bmBEHAYDxr9r4Y1Scf1TsJ7mAAHibAFjgtNtBEsDpi6334Oi4Ph2ngPkdEAAQABAA6EDVOgAC4LjBVgYc94WSjngCeMdDAL80PXpbOfDnCvlp1IS2YuTsFR0AAZBmuJUASU4cJHIKwCoLOwdK0qOIOQMEACO/qkd+XgEwtKM6MgYCIMlwuxMslpd08Ly9BdyijpyWmFMUwxPgtD6l/h4EIJcAhJqpceJkapp7C415fC41L36AmpfMl/IZ88Q8Gnn3rRSYMpXqw61aAnNDc4oi18+g0Qtm09jn75UiN1n9I/I94xbdR6Mf6aDYLdfRsOQ5WvZ1LmECAXDaYKtZPifzEQX+Vjm7g9grwGEC9JaS4O/mFEBw2jRqTT9GqU3LXP8kfvsUha++QhtgaBiTotEPzSZzwxLXZadC/5VVh41LaexTd9GwxNna9Hcu+PNvEAA1AdphIKHjUYN47t4CbxFHzg1wFF4A57wgEeNSEICs0X9Tx82U2rhUOfAaNX8W1YVblAaG4ePPp8QrTysnu7JAWAHSl+x5ngIXTVG6r/MBv3UOBMCfBIAJxpGIQbzBjwjwt8rYFYIXwCHydojiiW+DAJwkALE7blAavEbdf4eyoNDQMp4Srz+jtPx0IgLGuy/QiPMvVLa/LbDPdwQB8C8BYKA6GBYfFHg04m+ZOkIAIsYcZcFf9hRA43kXUmqj+y7/UiAVvOQSJUGhedmDAH/B3oO2NU9oGQMCAgCw4rl7awQv4rgHsQCipwH6KW78FQjAydH/uMUPaAFgbV2PK0cAOGaiFHHB9crIZeTGGcr1d75Rf/Y5EAAQgGMRk7Y0iosH4GkFbBksVK8eVxr8ZXoAGsa1azH6t0B0xDkXKAUKYxbOBQEQPPq3+rrlxYeV6utsoC/0HQRAqKEWPfKTVt7BsCHUC4DdAoXp1WGKjv9rEICTo//w9Ku0ArDYbdcpBQrJN57VSn4WuGpx3LiM6uNtSvV3IeC3zoMACDPU0sDakTnmqEkfClwVsC2A7IBC+imWulF58JfpAYjdfr1WADbyvtuVAQTOU6BD7IQWYF/AizDcPFeZ/rZAvtgRBAAEwAIqXhUgIgbAKgN7BFStWx9RvP2PQQCylv7F77xRKwKQWRKYVf9ixtjpa/WxNq1kpyMRGN5+HghA12paXsFnw6y7uy0wwrFq8KjII7FLoBdgD5YEVtQHn+l+zGzRAvxlegAi107XCsSYsDgN7OWUb/Qs0kp+upGAoaMMpfq7lG7AA+AO0H5m5BVKEcx1EukF2BJoqw4AFZON1D6LmU9rA/4yCcAwY4JWANY46SKlAIHT2eoGqrrUt61bvVUfIAAA+HKB6yOBywI/wVbB5ZOgmLmNwi1/CgJQwHXeulKN1L+lgImT7aiWETB8jV5BlKVkrNL1+JyblCJ7pcCfr8MDUD1B4GV0RyImHQ4bmc+hiEH84TlwHTfIOSwwFoB3HyyXgPj8/mMUNn+qFfjL9ACw0QpedqkWo9jo9QquCw+3UFv3Qi3kpxK4l6pLcu1zNHSkXu5/EAD74M+ucc6aty+UJJ4n3x5I0JbGNuL891bQW6HjB4EE9YaTmfz7uoAbR/EXak8557EawL6OZXQjZkzRDvxlEwA2XKMWzFYaxDhZkWqjf5Ybf0acO5HMdxYrLb9SgKvU9Y1LKaTRJlCWHvARHoDTDTSP6D8OG7Q3lKDtwQS9HygN8nZAcWtjW8YroAMJ4HX8dtpk5x6kBj5dx/LqQMS8T0vwd4MA1Edbaexz9ygJYi2/ekj50WDo8stAAgos5SuLXGxYStGbr9XO9W+RABCAE8aZ3d48ut8uCOwLASOTCZ4eyAsACgW98dSFHe9GoXZmnz+IaQAb/Z16idrbvwwCUGDe3zJYpxxDzRSfdQOZb7+gBBEw311MTXfdSnWRVi0AYcSEidTy0gIlZFcW6IoAbgFltK16goJTLtair0/5v8n6H/MzATgcMTOjfB6ZZwOW0983BxJabJu7Q9A0wO4gkgKVIHzdNHbsH2kL/m54ALIN2tAxZmYUNu6F+4mNMi91k/XhTWCal8wnTlDEu+xl10uL76EWCl58MY1eMJtaX36UOFOgLNnp9p7km88S7+8w5vG5FLryci03/8nVSb8RAM5Rz+5tnpd3GuiLlb9Tgw1z9guaBkAcQJEpgIjRRYHkH2oN/m4TgFyjht8n5vohB8ihlA74hQBwEB/veidqPr8YuNu9pvrcuMicAMej6k97lBil23DjFwH6fNM7MXM5NTf/gfbgDwIAoCkFNLiupo54nQB8GjFJ5Lp2u+Bu5779YfVBcaugmAiOsZAOsPlAV51zCyg+6aueAH8QADWNO0AX/VJKB7xKAHh+f4fAhDZ2AL3ce/ZoMDcuKjXwgTDyAZwkQP0US03zDPBbDSllaHAdYAQdUE8HvEYAjkbNzDr9csHYjft3akAAGLhFyAYJgTLTAx9RLFlnYaanjjDu6hl39An6pJQOeIUAHD8Z3LdZckR/NeC4W4PlcZzNsJo2Ws/qEPTo7BRFaiHFE9/2FOhnN6aUocF1gBF0QD0d8AIB4HzzHwiaq7YAS8aRVyM4CzplBqXlmR/npEgiZMGZE1VvqyP1i5i7KGKOzMZKT36HcVfPuKNP0CeldEBnAnA8s45fjItaBMiVW4bqqwAsQORd/cptW+79nDbZKs8nxyMUNed5etSfzWRKGRpcBxhBB9TTAV0JAEeVu72WPxfkyvnNSXZ0AUIevZfTtnz3clZBXdpbZT2PUzS1kELt/ysbHz3/HcZdPeOOPkGflNIBHQkAL58TlaY2H1g5fY7rzrsHVgk00p7n+XsRMuEkTLq0uYJ6fkLR1IMUNn7oebDP18BShgbXAUbQAfV0QCcCwC5/UcvSRABapWXwroIVAIxrz+wOVe8BYFkd9WYugHcpak6lMef8ST5c9M05GHf1jDv6BH1SSgd0IQA8X75NwFx0paAt4jleoXBIg+Q/ueRkjyACwJkFc8vW83dqPcXM6RQ3/8U3AF+qoaUMDa4DjKAD6umADgTgcNigLQLmoUWAeCVlcBDdnlCS+jVy+2cDM++SWEm7c5/RNBvgpxQxV1HMvI2iqSYKJv6iFBb68jqMu3rGHX2CPimlA6oTAB4xq7q2n/cV4I1uOKEP7zOwN5jMbCnMy/t4I52PwwZpCnqnjNR7Q2JyAXBa5mxioeT3mDmLokYrxcwhFDr7BzRk+pd8CejlNrqUocF1gBF0QD0dUJkAMICqEuzHJOSjYIL6Qkn6JGwQZxxUEsAcqFevIA8AJxViQsT9ynJkr8iuUDJDoHhVBK822BZM0IfBE6TqQNigY7KnDSLmjHKxD/cPGDAAxl09444+QZ+U0gFVCQAHyrkN/jsygG8QT0H4E6DxxQAAIABJREFUBezztZPT+Oa682X9ZuLVK1X+qT7fB/RVwmhKGRpcBxhBB9TTARUJAI8QZQFM7ns4oyCPePuxfe1npIdH6rlykv2byZi0ZYQR49JKMNDXz8C4q2fc0Sfok1I6oBoBOBSR7/ZnTwPP4Xthvj7fCL7ac6osveQpmGrbYvP5zRSPf9HXgF5u40sZGsevh5ppxPkXUvjqKyhy/Qxpn/D0q6hx4mSqD7eS420Mng5o9bE2Cky+iMIzrpLWZpny9eK7wtdcTYGpU6m+KeGKzmTrqVIE4Jrb3uDAOlmjS37XniBH5/vbxV8KFD9UaAUGJ4EqVV8h12NmsFwM9PX92UZF5vehIw1qmjeTkm89R6lNy1z7GD2LaOQDd9DQMaYUo97QdjaNfqyDjHd+4Vqb3ZS3F95tvreExj57Dw0ff74Uncn3f6kSAdg07dr3ZIA/j/h5XlvXZXlCAK6MYMGtEklZqf7nJZW886MEGTzva0Avt/H5jIvT53jknXzjWaUA0Fi3iILTpjlq0Hm0b767WKl2ewGQXWvDhqUUn3WDozpT6H/RbwSAI8x1SsMrAeiKgunRqHvxGIXIgKRkSkcobnyzXBz07f2FDIxT5xsvnKwuCG5YSqHLL3PEoEdunAHgd9HT4yRJGHnPbY7oTLH/Qb8QgC2NCToQ0isFr5vg3x81aXfI/ZUY+UjAXlmxABHT8C2gl9vwYkZG9DV2s7vt8i8FBOyaH2ZMEGrQGy+YROaGJSAAHiUArFOhq68QqjOl/vf8QAA4UQ/va+8moOrybl53z9Mj7zeKyf+fD8CrPce5A6TIM2Y8Vy4O+vb+UoZG5PVR82dpAYJjnrpLqDFvWf6wFu0uRY5wvXCsSvL1Z2hoTF5woJcJAAf5cVY+KWAhZ17a0bYc5JTLjfKCMCslArwqQVKfHqSG87/iW1Avp+EiAb5YWWwczbdf0AMINy6jhuZ2ISRgxLkT9Wizh0fnsohL6KrLhehMsf8j65pXCcAHgYTvE/jYBUnepIcz8VUKyLKfkzYFwKQuZg4pBwd9e69lUJw+coCdLEMs4j2R66YLMebxOTdp1W4RsvNrGby6w+n/I6t8LxIAXrYGl7+9KQ/2kMhceimCLEgKAjzhZYiZV/oW1MtpuGVQnD7GZv5cKyBsmneLEGM+5vG5WrXbr+Atot0tLz4sRGfs/C96jQBwspjjyOJX0kXOmQ45u54IQJZZBgdzSloGaMlwUTk46Nt77RgbEfc0zdZrJDzq4dlCjPnY5+8FAfDJ9ELbqoVCdMbO/5uXCMCukHRwsEBCqyNnW+T19DKBW9S79ockJQL6PKbjI9+CejkNt2NsRNyj2zK4ps6ZQoz56Ec6QAB8QgBafvmgEJ2x8//mFQKwNyQtMEwrsM+NA+BtikWBsexyOE4htz1SfscT3y4HC315rx1jI+KexkkXaQWEopZ1xW67Tqt2i3CF+7UMXuUi4n/FThleIAASo8LdAaDPR6MVv5/d5rzfgWzQFvU+Bn9pmwHlyjvePtiXoF5Oo+0YGyH3hFvIWPu8FmDIqV6HjkwKMebDkudQauNSLdrtV+AW1e7AxRcL0Rk7/2+6E4ATc/72At6kjBZzwUOB37y2X6V8/uWQgsx2wLLW/RfqKyQEKk0F7BgbUffE77xRCyAcef/tQg35uGfu0aLdooDQj+W0dj1GdaHTN30S9b+TW47OBIDT+iLgrzj54f0OtmmwxI+BfksgQbx8k/t1ZyhJB8JJYvLiOnGLmFeXRkCf35FrWJz8zbkAOFBKZYBIvvYMNYxJCSUA7AXgvQZUbjfqVjjJTynZcJZH3t/Cyf+d3LJ1JQC8QQ028ykB/lEjA6jljLidupc3YNoeSBBP1/SGkvRx2MjsyeCaW7/QaD/f+Ygxx+fwXrr5uYbF6d8MhqptBGQZeGP9IuLEPU7IgPMgYCOgykHW6iPljhuXUfT6GY7oTDE91JUAfCJrW9h8gKDBuaNR03Xw3x44sesirzrQAugL9qvxZGkE9PkdxYyMU9caWsZTy0sLlBoRt3U/TsNS5zpqyHlPgOSrTyvVbuUAVaMVA8me5yl42aWO6kyh/0EdCQCPIF13CxcEi+Kjchn1ZrBlV7pTo/li5X4QaKN9oSQd9dbeC0t9Du+lm1/IwDh+PtSS2UBl3NIH3NsoZ+My4uQtket+RvXhVimGvD7WRrFbr6PWlx8FEdAI7LOJUmL1E9TUcTMNHWlI0Zl8/4u6EYAdQYB/MRLB0f7sai8G0qKvsXt/VzBJn3rXK7OiNAL6/I58xkX2ufqmBA1vP48aJ0+hwNSpzn+mTKXh488TFulfqbyGjjZoxNkXON9eGTL1wTtGTJhIDWPFxodUqjs6EQAOFOtXIShM4dH/RxKX+jHw89JCnm4oRkp0v7ap9ZLe2s6eXyn3mduzrHbuuoVnzV03r7ajZ+rguesaa+98d5ArVKRSA4Tn5EV8Q9aQda4O6EQA+uD6Lwq0e0Ly1vnvCSWI0wnrDu526v+GeTXVdvbo9HmntnPdnWfO6TlrANEZUghBrmHBb4ANdEB9HdCFAGwLtMnOAa8VuPFWvqJd+/nK4yV6h33mheke/3OdwD+3rhtqO9Zd+C/zXv2ao0QAxl59Y48+Qh/l6oAuBABR/4Xd7AzI7I7PB9iizvH0C6/LtzNi9to9L557Uy6o6vh751lz107+l3mvftkRIpBrWPAbYAMdUF8HdCAAO4Mu5YDXYG6btz3e2uhs0B+P+j0W1V8WkXn+/Nt1BPxCde75See6WuEkAMZefWOPPkIf5eqADgTgsHejy8sConwja06sI2qUn68cjiuQvP1u1TLJJ6dqzj0+aU4hMNX1fP/gjnVXDJhOXxBGBHINC34DbKAD6uuA6gSAc/1XY7y9/OwhB+f92eXP5XtZfnbbducl83UF+hL1Xrd4yJz1XxdCAmDs1Tf26CP0Ua4OqE4APvVZwJldUOJkP5wOOd+ovdpzDP6Q++cxFxfPeK4EkGq1QuCUtgzu7PnNkHnvfatqEpBrWPAbYAMdUF8HVCYAPPdsFxD9dt+ukDOu/62BBB0B6TpF70bfsvIU0NRsSWDJug/u7Fk7uGPtn1RFAmDs1Tf26CP0Ua4OqEwADsAFfQoQWSSHM+5VO8rP9zyn8fXL2n5LlqWO/bEUDZnzZkkQ9QApWNEwa8NXKiYBuYYFvwE20AH1dUBVAvB+oE3zDWQ+dyGXAplyrzuR6ndLYxsd9Ulin3LkvbV5ih/AP9PGwZ09HSAAQfWNNoAVfSRKB1QlAJxbvhxD7Zd7eS1+vtF7Ned4zv+wtzbvEaY7S8+7xTcEgL0YgzvWxisiAaIMEsoBuEEH5OmAqgTgE8xDnwZivBxPdODf+40JBPwVyfdw3ZWP+YoA1Hb27P632e/8adkkAEZbntGGrCFrUTqgIgFgd7RfRvTltHO/A7n+ucxy6uC3e+O3pv1GAGhw59q7QAAwFeDaFrWiwA3llCZKKhKAnXD/nwbKmdG/4Ix/kHPxOI2Pxk7yHfifDGY8Vjt7/d+XRQJgbEsbW8gIMlJNB1QkAPt9mnO+2OiaZVLNPH/usxzxz2mEi73T79deON9f8/+nrmRYtwAEAF4AeAE8rgMqEgBEo58OzB8ExK77R3rl02WcS3guuvYXfvUAcLv7z5r99vdtkwBVRjb10VZqaB1PwxITHP80tJ1N9bE2T4Fkw5iU43KT0TdOvKOhOUV1oRZP9bdqBIAT0eQaYr//PhQRu+5/D6ZYSupY36jz+v9jzpv/XdvZs0nRz5bazp5PTx21i81ImNkvwC4DcJMAjDj/Qhq1YDYlXn+GUpuWSf8k33yWxjw+lwIXTdEOHOqbEhS7/XpqWf4wme8tkS47N/qrmneaG5ZQa9dj1NRxMzWMTWnX37n/p6oRAOz8d/rIlPdDyHXhV/p7C/IrlAT/DOGMmbPsYp+b9/3o7re+e1bnulRtZ89vhZOBjnXv2W5brmGR8ZvBa8yT8yi1cakywDXuF/fR0DGmFsAQuvoKMtY+r4zsqgFmN5413vkFxWb+XIu+LvT/qBoB2Ieo9FMAijPzvd8oLuf/QWRXPEW+hb1L7T+yDX4q3Eh0xuCOtWNqO3v2iyQC/z737b+21bxCBsap8+yqbut+XEnwSr76NA1LnqM0MMRvv0Ep4uQGgIt65+iHZivd18X+B1UjAAcRAHgKQPUKXPrHGQQLA97pngcf37uOBgw4wxbwKXbTmfPW/kNtZ88ucSRg7XhbTSxmZERfqw+3UsuvHlIS/C1QYXLCHgrRbRdRXuiqywH+gqeKeBpFRN/ILkM1AnAYCYBOAeltAoP/Psbo/xTZFiE442yBnqI3/aRj7X9wEJ8QEjC35yFbzZRpuCI3zlAa/C0SEO+4WTlQGBpPUvKN57SQnyVHHY7mu4tpWNvZyvV3qf9LlQjAxouvfY+3uS1imH117ajA4L9tASRXsqlXm6m9/cu2QE/hm2o7e+4WQgA6e1611cxShkbY9VALsYtdB1Aw1v+ChsbU8gJEb/m5FrLToX9z6zjygTtAALpW0/IKPxuvvGGdTSPtCyIg0v2PqRWbxDKSmmAL8BS/6cedb/ygtrPnuAASsH8AUenpEGEAX2LddeN5F2oFYMHLLlUKFJp/qfbUSS6o6vQ7+doz2i0TVMoDMH3mWyAAnwPVdkHR/7x/AOT6uVyLyOJDik/6quLYbrt6Z3X2vCaAANCPZm34o5IvlUUAItfr4f63gEu1aQCOXLfqhqP4JaO6rACx/l9VIgAbrr399SLG2VcgxlMhlS71y30OKytsgT9RzEyUBDqNbhA1DXBm55t/XrLZlkFx+hiffZNWAKZShHh9vE0r2elIUEacfYFSHp9S/49KEYCb7nwFBOAEWHHAXi6QV/r7CAIr7ZDH39L06V8oCXQa3VDbuW6GCA/AmfPW/m3JZpcyNKKu6zaH3XTPreoAQqiZOJGNjsCqS505O6QoXZdRjkoE4He3zV0DAnCCAOwJiUn+g6V/tkb/xyhu/FtJkNPsBs7kJ4IAnNX51g9LNl2GseJ3hC6/TCsAi954jVKAkHjlSa3kpwvwcz05kyKnopb1vyDiPSoRgA2z7u4GATgBWKKW//Uhr4Kd0X9HSYDT8AZPEgBexsZLrnQBBtUSAo2aP0sb2enSx1Y9xy26TyvwZwKhEgF4t+P+lSAAJvHWv5W6+3OfO4Id/0oRgE0Ub/9jDfG9ZJU9SQDYaHHe/f+/vbMPb6rK83hQhplZV8dXyI2Czi7L7OA+67OPoyu27nYdG0aUps1NeG1r29wUfFmxjAjjqtuBcQZB8Y1pioiAggjiOKiAYEMh96TprkUhaZ11F5a3BRlLyQ3lndLfPifQSt+T5iY559zfH3nS+3Zyft/f7fl+7rn3ntPW6LL8XbBxOXOG8OCj03AQIJ0HAWo7B3OfeZq5fPfVS8ASANQvWelFAFCAztTX2cj7s7x/LD7938f5dBbsyl19OimnOwgLAGOKp4Ly1XqmIYDea6dm21cDnI7tk1Z7mNauzVB5+qYjU/I4UyBLALDjndWb+2iw+7qaE2J7c64+ANBow6F/ez2f7MoTnHp7TNUWFgCoadqefZrpK1l5Hlv3/i8FDXobpUhlcx4Fnky/ra4lX3wI9xdOYRL2Ls17d3+zBABfrPnj+l4bbIOMEqjXA4DNOPRvb0C4ntfx/mNyf5PJJDQA0MaMjmnPWk8AvfLnYYa4+ycqULDpbewJSPB2QFHt+zDG/SiX5k//h1gCgNp1G9chAChw2Faiyy0AnFehxzcAgpBbdHWsRsrrfsIDAG3AxhQ/ApPWVqb/9bZdm2DyR0vggSmPcWMGdFIlOq8CvYJtu5rF79gGB3KFPgbn6/OAjq3Q3ZU1L+tYAoCtW9XVICstRoeA/9NpAqBW2dXbFbBRtx0AW/FQXk09nnobAgDaGtpfTHQBnd/e8epcGL94Qco+zoUvQN7s5+D+yW5+jSC3AMZOmw7y/N/AuMoXU6ZdKvOkx2+NW/QSOF76LdiefAooPLWdezx/swQAXjWwCmRlr9EBYN/YooR7AA7g1L9dAOe0c+qJGXM+eTGzIjiz8yejIjQjsyJYmllZP3GUp340HUvfVA5cDwzUHQDcW/k5FC37AP5t1WswZ/ULMP/98uj39JVvwPi3NsI9lTuh89gBTI0DwHNji3UvEMI0RcojcwDgUAz9JkCrXZ9XAA8jAHQAgJPjHobSuZ91MbfOZtdp+WSGJ7Qt0xMqv7syOCqmSXHiuURP8r5tAPDgYl/U6Gs2Z8MRdShoROrxc2DbCFi/fhw89W4FZFV+EdULAaCPCYpEMgSMxViQwhwA2JXFRu4BoO/t9+eVv87HNNlKOhigkTWNTHgMpszdHK/5d7f/bgoDWb9vMCfZu3UpvnjZ2vnvfeSCRnVYj4bfGwz8b/XfRcFBfvOzf+izQmgcxjIOzLcY+WYOABzK00Y2q9M6jQGAEwBdeADwUH4ZTHzJ152ZJ7LuVEZlcGFMk+T06Zz67wBgGhAmUtkRddiZ3gw+1m3f+m7ec8xnyei1pmgIYhgC5tFYeWQOAOyuB4wMAKd0AgAcAliB3Q/NhNxXahMx+r6OPXZ3ZXB6Vnn1wF7NMYUbm2qvvSpMLJ/Eau5x7HdOI+YZPYaCxmEs48B8i5Fv5gAgr/A6kJVWo0LASbs+gwAdM/gcAJ89Mg+yX9/el4Hrtf0/MyuCf9WjOaZoQ7PPfINGpC/iMPW4bw2Eifk12sPQJSQ0BDEMAfNorDyyBgC0YQFZ+dqoAHAiT58xAI4bdBCgM86p8Mqv3tHL2OMpR8uoaMjpYowpWtFIrr9SI1JdMs2/vWy/eW6XsNA4jGUcmG8x8s0oACxDAEjsVcCTBgSAvYUzoHB+dTymrfe+LfRVwi7mmIIVGpE+aDfoXp7y12ufiCoVdAgLDUEMQ8A8GiuPTAKAwzXFqACg1zMAdEIho2h41jkFlj35Bvx84Zd6G3o/ywuWdTDHJC9ofsmtl7HHUU5z2C/d3B4aGoexjAPzLUa+mQQAp/Jjo5hX5zjP6zAV8N6cIqDldC5bxOXP3b+GyS9u66dRh5J1XGumJ9TxCrndKfX941i15XqNSE1xGHfc9/17LNsvfdgeDRqCGIaAeTRWHlkEANqogKzsFNGwYonpG1txQmMB/NkAswDuK5gBs2b/MVkGrke5ZzMWNWS2G2SS/tCI9LseDToVtwL85juioaFxGMs4MN9i5JtZAHAo5bGYpYj70Pv3nQf2iWeZ3kYQURca0/8U/QrmPLcG7qkI6mHSyS5j/50L/3RdkrzfdKjO8heaatHSCQAasaxGAMCRAnGIX07PAWYBIK/kNlFNLJa4vu1nL0CjgCMAnpfdQLv6y57/JNmGrXv5mZ7g+8kCgAixTEqv+UeHFD6lqcOuMeEVoRhXhJhHY+WRVQCgjSbIyq5YzFLEfeicAIfinBXwm5xioMeJoseuh2ZCxcylkPdyje7G3GnM/+SWXxkckwwIoFffDAAAaMQyHgGA0ytANHxjGX7nfLMNAK7nRDGz/sRBp/NtjLEn4EhuMbRy/uAffZr/S+XfYcmMxVA4f2tyTdmTtAcAu9a7ov7rZIwWqBHpMBsAIHkQABAA8DYAh+cA0wBgL5VAVs72xzxFOua03QX0lkDnaYL35RRBY24JnLHzd8+/xeGGA/lPQqB0Dix98g14/PkNcO/vd3Q1z1QadVJ/KzhZz16AZv+QwYyYP0SIpCIAcNj4d74axGXj9QawDAAXbgO414hk5onG0iIrUcNvkdk2fXo1v+7xV2DFLyvhzRlvwuuzlsMLz6yCmbPXRSfnyRLa7LvtXWjQczrhCBlyFysAECaWQwgACADYA8DhOcA8ANhL/iVR08TjU/9cwMePvyzw1Xy3Bt93vDq+FhipkUazAgAakU5QADiHV5DGu4LEnPOdc+YBwGQaALJSjyaeehNPQPPznlnL8zIrgrfz8hnlabgzs7J+LJ3dL6MytCXDEzqv94OCd1fWL9LrNkDEb36AIQA4RwFAQzPg2wwwf8bLH+sAEL0NYFfGJ2BGwjwVz48G7jV6GV26ysmsrL8twxOq1hkCGk3lcJkeMYVVcxZDAHCUAsB+NBDjGQjmnO+ccwEAF3oBvuTHALm6WtcfkJzK7XqYXLrLcK5Zc3mGJ7hATwigYKFHXMfUG0cwBAAhk9VWGEAz4NsMMH/Gyx8PAEAbTJBdYxEAuACLj/UwOJbKyPDUL9ULAjIrQ9P0iA2qTQM1Ip1mBALWmqy5+cvQQIxnIJhzvnPOCwBcgAAlgBDANAScAWfJT/QwOJbKyFq65wcZntA+PSDgbk9oiV6x0dfvWACAMJHKTNacwhloBnybAebPePnjCgCcpZkgK60IAcxCwDy9zI21cjIqQy49ACDDEyJ6xRYh5mdZAIAmYr7VdN/YyXehgRjPQDDnfOecJwCgDSfIrjcQABgEAIdyGJylP9LL3Fgr5/ZFdT/K8ITOJA4BwYN6xab5B/+1RqTWNEPAjmg8WVlZA622gggaAt+GgPkzVv64A4BJD18DsvINQgBrEOB6SC9jY7WcjIpgbcIAUBE6rmd8mip9mmYAmNIej9VW8B4aiLEMBPPNd755AwDa2IDDPQEBgCkA+BRMpgHtRiDoHxme0NqEAcATaqVvF+gl0VHVkplGANgHG4Z/vz0Wa17hg2gIfBsC5s9Y+eMRAGiDAw7XOoQAJiDgz5CjDGk3AYH/yKwMvaUDAMCoBTU/1FMmzS+9mxYI8Etyhzgu3AYoPIgmYiwTwXzzm29uASB6K8C1ByEgzRBgd+d0MAGBF1gFADoxUISYD6YWAiyru011dk7hdDQEfg0Bc2es3PEKALTxAafrTpCVMwgBaYOAim5NQNCVrAIAlfsoke5J1bgAYSI1NNVee1W3abZaC64YbStoRCMxlpFgvvnMN88AQBsgkF1lCABpAYDPwVmma1d2t4bC0EqWAYDKpPklWSOWs0nuCdjbtM0ytNe0ZNsKp6Ah8GkImDdj5Y17AKDDBDuU9xECUgoBByCnxNKrCQi4kXUAoJJHiHmMRqTjSYKA4JGam27sM7Xl5eWX4dDAxjISBAc+8807ANDGCJzOQSArVQgBKYGAk2B339GnCQi4Aw8AQGVvDkg/1YgU1BMCIsSy9PCmIVfEnNaf5xWOsNoKjqEx8GkMmDdj5E0EAKCNEh2EBmRlJ0JAUiHgPMiu3JhNQLAdeQGA6P9Dw8hBmmqZpREpkhAIqNJXmt9i7Vcqs3PzJ6KRGMNIMM985lkUAIg2erbioSArBxACkgIB58HhUvplBIIcxBMAtEkerr7l6osg8F9xgECLRqTNmmp2ApgSm744O6fgRTQHPs0B8yZ+3kQCgCgEOItHgkM5iBCgKwScB7viajMVo37zCACX5oqO2R/xW/5VI9LiCJF8GpF2aMSySyNSnUakjREivRzxWybQ1wovPS7Rvwdk2wreRjMR30wwx/zlWDQAoI0V5E69BWRlF0KALhDQCrJ7aqImIMLxvANA2nLgdDovt+YULEKD4M8gMGdi50xEAIhCgF25CWTlTwgBCUHAOZDFH+M/VmNEAIhVqe73GzA6J3+21VbQiqYitqlgfvnJr6gAEIWAvKmDQVa2IwT0CwLCkKdkd9+UG3MtAoAOeR9tK7zPais4jCbBj0lgrsTNlcgAEIWAoqIfgOxaihAQFwTsBmfxSB2ae6GKQADQKZ3ZORMso3ML1qCxiGssmFs+cis6ALQ1WSC7p4OsnEMQ6AME7MpWyCu8rk03/P5OAQSA77TQ5S9rTn621ZZfh2bBh1lgnsTLk1EAgDZYkKfcC7LyLUJAtxBwDmT3ryGrfKAujbuAhSAAJCmpo3Pyf2G15W+y2gpa0GTEMxnMKbs5NRIAXIAA+lyAay1CwKUQ4NoDDuWeJDXvwhSLAJDkVF68NfDLizBwAo2DXePA3IiRG6MBQFsTBrIyEWTliOFBwK68BTklV7bpgt89K4AA0LM2um9xOp2DsnMKfjbaVjjJmltYbrXlV1ptBSvoswP4QQ3wHNDnHHhr5Zr9XjUAjHxW6d6Q9FIg5ChDDDyR0E5wuv+5F3lwUycFegKAMYsJKMvXwKPvvA1PrFgCU99eAc4ln8I/Ve6ADE+oy2fUghpDzaLYSUZcRAVQAVYU8KqBVYyYP4WQlAJAWw5ALv1HkBWfQXoDjoLsnob3+tuyH/t3GwDcu6gOnln1Kny0fgLs2ToSehpit1EdCjWbs2HhB7PAsWRTOwggAMSuOe6JCqACSVQAAeCCuBCdVtjlFHgEweMguxfgE/79/2fKW+J9d/GHT8DBbcN7NP2eYCBMLODdOBbcy1cBAkD/c4BHogKogI4KIAB0FPPC1MKuEpCVoCA9AmFwuObAxNLrO0aKS/EooPkl92Hfj0/3ZPDxrG8iN67We7z9eGLBfVEBVAAViCqAAND9iRDtEchTskF2bQBZaeUQBnaD3fUUTJ58VfcR4tpYFGgk11+pEemDeAw+ln0jxHzwKJHwzYtYkoD7oAKoQHIUQADoW1eQS/8WHO7fgqzsZhwEmkFWltGH+yjA9B0Z7tGbAs0+8w0XZ8qLu8s/FgjQiHQ6TCR7b3XAbagAKoAKJE0BBID4pAWn606QXS+BrOxnBAaOgqysBodSCM5H/jK+aHDvnhRoqr32Ks0vbY/RyBMBhJawKuX1VA9cjwqgAqhA0hRAAOi/tJCn/JROlQt21yqQlUMpAoJTILtqwa48D87STHA6L+9/BHhkdwoAmAaEieWTFJh/Gzgcb/aZce6F7pKB61ABVCB5CiAA6Kct5LlHgOweBw7lWZCVlWBX6kBWaLc89ONzKnrLgY7NL7tfB4dSDHklt0Fp6ff0qzGW1J0CYSKVpdD82yAgCA0jB3VXH1yHCqACqEBSFEAASIqsHQqlr96B0zUc7O6KtQsAAAAEhUlEQVQ7wFFiBbsyHuxKKThcCjhczvaP3X0fyMrfg7P4hg4F4ELKFGjaZhmqEak5DQAAmmqZlbJA8YdQAVQAFUAAwHMAFfhOAc0vLUqL+ROJ9gRENHXYNd/VBv9CBVABVCCJCiAAJFFcLJorBY7XDh5Cn8xPIwBgLwBXZwxWFhXgXAEEAM4TiNXXTYGwX5qeVvOnvQB+6b91CwgLQgVQAVSgNwUQAHpTB7cZSYEIkdS0AwCRoImYbzWS7hgrKoAKpEkBBIA0CY8/y5QChzcNuUIj0hkWACBCLI8xJQ5WBhVABcRUAAFAzLxiVPEpoBHpZyyY/8U6LI6v9rg3KoAKoAL9UAABoB+i4SHCKRDxWyYwAwB+aatwAmNAqAAqwJ4CCADs5QRrlHoFNL/5YWYAgJh3pl4B/EVUABUwnAJeNbDSqwaAhc8WX2CF4RKAATOhQFiVprEDANLXTIiClUAFUAGxFahSaxaxYP7ROvgCHrHVxuhYVUDzS26GAKCOVZ2wXqgAKiCQAl41MIcVAKjy1cwWSFoMhSMFwsSSwxAAbOBIOqwqKoAK8KpAla82nxkAIIHJvOqI9eZbgWPE8hNWACBCpJf5VhNrjwqgAlwoUKX+xwhWAKC6pmY4F6JhJYVTAMB0mUakI2xAgGW8cAJjQKgAKsCmAl41sC/tEEACe9hUB2tlFAU0Iq1lAABamv1DBhtFc4wTFUAF0qxAFamdl3YAUGt+l2YZ8OcNroDmNzsYAIDNBk8Dho8KoAKpVODibYCWNEJAy+ZttX+Typjxt1CBzgrAhuHfjxDzwbRCgGp2dq4XLqMCqAAqkFQFtvgC76UPAGrfTWpwWDgqEKMCYSKVpQ0AVOkr+ixCjFXF3VABVAAV0EeBz1R1mFcNHE8DBJysrg7cok8UWAoqkJgC0DBykKZKX6UDAiLEfH9itcejUQFUABXopwJbfIGyVANAlVo7rZ/VxcNQgaQocFS1ZGpEOpdKCIgQy9KkBIOFogKoACoQiwIAMMCrBv6QKgioIoG19DdjqRvugwqkUgGNmGekEACCdDriVMaHv4UKoAKoQBcFampqfrhFDajJhgD6G/S3ulQAV6ACjCgQJubXUgABe4/U3HQjIyFjNVABVMDoCmzatPMKrxrYkEQIqCKEXGl0nTF+thUAMA3Q/Oa5yYKAMJEamrZZhrKtAtYOFUAFDKdAdXX1QK8aKPeqgfM6gkBrlRp4ta6u7nuGExQD5lYBzS/JmmrRdAaBP4Srb7maW1Gw4qgAKiC+Alt8gYwqtfZLHSBge5XfP0p8xTBCERUI+6WbNb/0oQ4QsJ8OOCSiRhgTKoAKCKhAOcBlXrUmz6sGtnrVQGscMEB7D7ZW+Wpy8WE/AU8MA4YU8Zvv0IhltUakU/HBgHmnRqQpdLAhA8qGIaMCqIAICnj9/pu3qLWlW3yBFV41sN3rCxzxqoEzFz+NXjVQ5yWBd7y+gJuOLSBCzBgDKtBZAdp9rxHLeI1InjCRiEakwxqRTmhEatGIdDRCpHo6twAdWKiJmG/tfLxoy/8PccQrB3UwYysAAAAASUVORK5CYII=;" vertex="1" parent="1">
          <mxGeometry x="531.5" y="470" width="77" height="77" as="geometry" />
        </mxCell>
        <mxCell id="_GYrti46DQ62szRbojxJ-64" value="BI &amp;amp; Reporting" style="text;html=1;align=center;verticalAlign=middle;whiteSpace=wrap;rounded=0;fontSize=15;" vertex="1" parent="1">
          <mxGeometry x="525" y="230" width="100" height="30" as="geometry" />
        </mxCell>
        <mxCell id="_GYrti46DQ62szRbojxJ-65" value="AD-hoc&lt;div&gt;SQL Queries&lt;/div&gt;" style="text;html=1;align=center;verticalAlign=middle;whiteSpace=wrap;rounded=0;fontSize=15;" vertex="1" parent="1">
          <mxGeometry x="522.5" y="410" width="95" height="30" as="geometry" />
        </mxCell>
        <mxCell id="_GYrti46DQ62szRbojxJ-66" value="Machine Learing" style="text;html=1;align=center;verticalAlign=middle;whiteSpace=wrap;rounded=0;fontSize=15;" vertex="1" parent="1">
          <mxGeometry x="505" y="570" width="120" height="30" as="geometry" />
        </mxCell>
        <mxCell id="_GYrti46DQ62szRbojxJ-67" value="" style="shape=image;verticalLabelPosition=bottom;labelBackgroundColor=default;verticalAlign=top;aspect=fixed;imageAspect=0;image=data:image/png,iVBORw0KGgoAAAANSUhEUgAAAgAAAAIACAYAAAD0eNT6AAAAAXNSR0IArs4c6QAAIABJREFUeAHsnQl8G1e1//vgsfQB5fEea4E/ZXnAa3lA63iRZjQz2nd5lZOW0gellD6gCzwgLQ9ogEIXuqVbmqRN2jRNs+9x9njftVrWZnmX7diOHWdfbd8/d6QrjWTJlrwkTjj9fO5nRtLMvXe+zqfnN+ece+4NN8B/QAAIAAEgAASAABAAAkAACAABIAAEgAAQAAJAAAgAASAABIAAEAACQAAIAAEgAASAABAAAkAACAABIAAEgAAQAAJAAAgAASAABIAAEAACQAAIAAEgAASAABAAAkAACAABIAAEgAAQAAJAAAgAASAABIAAEAACQAAIAAEgAASAABAAAkAACAABIAAEgAAQAAJAAAgAASAABIAAEAACQAAIAAEgAASAABAAAkAACAABIAAEgAAQAAJAAAgAASAABIAAEAACQAAIAAEgAASAABAAAkAACAABIAAEgAAQAAJAAAgAASAABIAAEAACQAAIAAEgAASAABAAAkAACAABIAAEgAAQAAJAAAgAASAABIAAEAACQAAIAAEgAASAABAAAkAACAABIAAEgAAQAAJAAAgAASAABIAAEAACQAAIAAEgAASAABAAAkAACAABIAAEgAAQAAJAAAgAASAABIAAEAACQAAIAAEgAASAABAAAkAACAABIAAEgAAQAAJAAAgAASAABIAAEAACQAAIAAEgAASAABAAAkAACAABIAAEgAAQAAJAAAgAASAABIAAEAACQAAIAAEgAASAABAAAkAACAABIAAEgAAQAAJAAAgAASAABIAAEAACQAAIAAEgAASAABAAAkAACAABIAAEgAAQAAJAAAgAASAABIAAEAACQAAIAAEgAASAABAAAkAACAABIAAEgAAQAAJAAAgAASAABIAAEAACQAAIAAEgAASAABAAAkAACAABIAAEgAAQAAJAAAgAASAABIAAEAACQAAIAAEgAASAABAAAtcIgWAweOPAwMD/nDhx4hPXyJRhmkAACAABIAAEgMB0CfT19X0y2Nu7uK+vr+/o0X40MDDw/en2BfcBASAABIAAEAAC85xAZ2fnl7u6gkuDweDZnp5e1Nvbh44ePYr6+we2zvOpw/SAABAAAkAACACBdAkEAoE72ts713R2dl7u6upC3d1BFOzpQb29vaivDwuA/nP9/f0fSbdfuB4IAAEgAASAABCYZwQQQv/U0tKiCAQCu1pb21Bbezvq6OhEnZ1YAHSjYLAH9fACAHsB+DBAwTx7BJgOEAACQAAIAAEgkCoBt9v9QY/Hc4/f72/2+1tQSyCAeAHQ1o7aOzp4AdDVhQVAEPFhgL5IGOCdVMeA64AAEAACQAAIAIF5QiAQCNzkcrkebna7gx6PF3m9PuTz+1FLSwAFWltRW1sbam/vQB2dnShJGOCE240+OE8eB6YBBIAAEAACQAAITEbAZrN9yel0vuBsajrtcjWj5mY3cns8IQHg8yN/SwsKBFp5L0A7CQPweQATwwCDg4O6ycaC34AAEAACQAAIAIGrTKC+3vF1q9W62mazX7I7nMjpbEJNTS7kwgLA7UEerxf5sABIEAbo6Ohq6OrqWhIMBsfjwgDrrvJjwfBAAAgAASAABIBAIgINDQ231dc3rmlstFy2WK3IZrMju92BHE5nSABgL4DbjUgYwB8NA7jb2tqWtLW1fZ30GwwGq3v41QB9ZDXA2WPHjn2M/A5HIAAEgAAQAAJA4CoTqKur+3ZNTd2aurr60fr6BtTQaEEWixVZbTZkwwIAewGamlBsGMDr9nr9S/x+/zcTTT8YDD6YYDXAPYmuhe+AABAAAkAACACBK0igrKxaVFFVvaequma8pqYW1dbVI14ANDSiRiwArLaQF4CEAVyuU263e1lzc/N3pppmR0fHZ4PB4GhcGGD/VPfB70AACAABIAAEgMAcESgvL/+vsrKKjeUVlaiysgpVVVWjaiwAautQXX09qscCAHsBwmEAh8PhdTQ1LW5qakqrrn8wGDwUCQPwVQH7x4aGhj4/R48F3QIBIAAEgAAQAAKJCBw5cuS2w4ePbDlSWjZeWlaOyssrUAURANU1qAYLAOIFaLSct1qta+x2uzhRX6l8FwwGf4TDAKGqgJGiQL9M5V64BggAASAABIAAEJghgZKSw1/df+DQOwcPHh47dPgIOnKkFGEBUIYFAPYCVFWjKiwAQmGAgfr6xt/W19f/+wyHvcF37NjHgsHgqbgwgGum/cL9QAAIAAEgAASAwCQESkpKvrBn7/6l+/btv7D/wEF04OAhdOjQYXQYC4DSMlSGvQAkDFBd3VFTU/ewxWL5l0m6TPun7u7gK3FhALxD4LS9CmlPAG4AAkAACAABIPCPQqCkpOSmnbtLntq9p+R8Sck+tHfffrR//wFeABzEAgB7AUrLeC9ARUVFZ2Vl5b2lpaX/PBd8urq6bg0Ge8bJ5kDhvQHenouxoE8gAASAABAAAv+QBDZu3Pj+HTt2PbBj566BXbv2oN17StCekr1o7979aB8WAAcOooMHD6NwGKCvtLz8Z7i+/1zDCgaDR+LCAOdOnDiRVkLhXM8R+gcCQAAIAAEgcE0S2Lx5u3rr1u3N27bvQDt27EI7d+1Gu3fv4QVAyd59aB/2AoTCAOcOHTr0p/3791+xLXqDwWBhfBhgcHDwoWsSNEwaCAABIAAEgMB8ILB58+bbNm3asnfzlq1o69btCAuA7Tt2op07d6NdWADsKUHhMMD4vn0H1h08ePD/Xel5I4TeHwwG3ZEwQD+/RXDzlZ4HjAcEgAAQAAJA4JonsHr1tn9dv37Dqxs2brq8cdMWhAXAlq3b0LZtIQGwY+cuJAgD+Pft2ye9mg8dDAYLcBigL7pFMBocHKSv5pxgbCAABIAAEAAC1xSBdevW3bnuvfVH31u/AW3YsAlt3LQZbdq8BW3Zsg1t3bYdbcdhgJ18GODi7t0lfyotLf3w1X5AhNA/9fT0NPT29qG+UFEgNDAwuPlqzwvGBwJAAAgAASAw7wmsevfdr7zzztq9a99dh95dtx5hAbB+w0a0cWNIACQJA/SVlJRs3LNv38P79+/PwIb4aj1od3efKi4MMDowMPDVqzUfGBcIAAEgAASAwLwmsHz58g+8/fY7v317zTvn1rzzLlq7FguA99C69zag9es3og0bN6FNU4cByGqAgYMHD+46cOjQH44cOaLbv3//p6/kw/f29u4LhQH6UX//AA4DLL2S48NYQAAIAAEgAASuCQJvvvkmvWr1W82r33obvfX2O2jNO2vRO2vfRe++iwVAyAsQDQNsxWGAE6EwwE4SBkC7d4eWA4ZWAxzgVwMc5IsCHeGLApWVlXWVlZfvLK+sfLKqququ6urq75aUlHxoLgB1dXV9pbe376wgDHB6ZGTkX+diLOgTCAABIAAEgMA1R+D55zfeuHLlm0vfeHPV+Jur3kKrV2MBsAa9vSYkAHAYYF3iMIBj8+adt23dseOB7dt3btu5a/epyGqAvcmLAvFVAcsro3sD1NRerqmtb62rq99X12B5tbGx8RdWq9VosTjvsFgsn8M1B6YLta+v76G+vqPoaGg1ABoYGPrNdPuC+4AAEAACQAAIXDcEli174/blK1a4V6x8E618YxV6c9VqtAoLgLewAMBegEgY4CIfBtgQHwbYGqm0t3y55QM7d5awe/bs/WtJyV7r3n37xyNFgQ5FigLxVQH5zYHCewNUR/cGCG0R3NiILGSLYLsdORzOMaez6WiTy+Vwudx73G73ao/H94TX2/Kg3+9f2NbWpmttbZW2trZmtLW1fb21tfeLXV1dn8BLAnEeQl9f33ZcFbB/gA8DBBFCH7hu/oDwIEAACAABIAAE0iGA36qXLVv+6LLXl198fflKtGLFG2jlG2+iN97EAuAttBoLgFAYYO/atWupdevWyda9t370PZwHEFkNEFkO+HCisXHMf+/eA3eHNgc61IOrAkb2BiivEOwNEN4ciN8iuAE14C2CLXiLYBuy2ezI7nAgp7MJNTW5kKu5GbndHuTxeJHX50N+fwtqaQmg1tZW1NbWjto7OlBnZyfq6upG3cEg6unpudDb23f6aHQ1ABoaGvrvRPOF74AAEAACQAAIXNcEXnhh2S2vvvpaxauvvY5eW7Ycvb58BVqOBcBKLACwF4APAwyuXrOmQAjivfc2PJ5kNcDotm278oTXJjovLS295dCh0rtLS8uXlZWVu8orKsciWwTj3QHJFsFYADRaQl4ALADsDuRwOpETCwBXM2p2u0MCwOtDPr+fFwCBQCtqbWtD7e0dqKMDC4Au1N0dRMEeskVwNAwwOHisBXsHEs0RvgMCQAAIAAEgcF0SePHFl+556eVXT778ymvo1deW8QJg2etYAKxEOAzwBh8GeKtx1apVX4wHsGTJkve9+97GQ3g5YILVAGe3bduVFX/PZJ8rKys/UVFRoa+sqnqyurq6sqa29nxtXX2CMIADhwFCXgAsAJrdyO3xIC8WAD4/8re0IF4AtLahtvZ2XgB0dmIB0I2CwR4ULQoUCQNgL8Ddk80NfgMCQAAIAAEgcF0QWLJk9YdfeGHpWy8ufRktfekVhAXAK68uQ6+99jrCAoAPA6zkwwBVa9euvSnZQ69bt+4z723YGMQCABcF2rw5FAYIrwYY2r1797eS3TvV93g1QG1tLVVf3/jrhobG9Y0Wi99itY2lFAYITBYG6EW4KFAoDDCABgYH0bFjx7zgBZjqLwK/AwEgAASAwDVN4Lnnnvvic8+92PD8C0vRi0tf4gXASy+/il55FXsBYsIA7tWrV0+5TG79+vWZ6zdsPB8tChSqChjeHOjonj17vj5bwKqqqj5msThom83xoMPpfKOpyVXrcjWPJAsDtJEwAJ8HMDEM0B9eDTA4eAyLgDtna57QDxAAAkAACACBeUXg2WefZZ559vn+Z597AWEB8MKLL6GlS19GWADEhQFOLV++POVKeRs2bLg7QRggvDnQru6SkpKU+5oOMJ/Pd7Pb7ZZ7vd6f+3y+pX6/f3sg0GprbW0fShgG6CV7A0TDAMeODbkRQu+bzvhwDxAAAkAACACBeUvgqaee+dnTzzx76W/PPo+wAHju+Rd5AZAwDLBsxb3pPsiGTZv+liAMQIoC9f69LPCt6fY5G9f39fX9S1dX161dXV10V1eXsaen555gsO/h3t4+R1wYAA0PDy+cjTGhDyAABIAAEAACV53ASy+99KG/PvX0G08+9Qx6+pln0TN/ew49+9zzvABIEgaonU7dfpwUuGHDlveEmwOFwwBo5y5+i+Dje/bsyb7aQFpb+z8d7OnZTPYGEIYBhoeH2xBCH7zac4TxgQAQAAJAAAjMiAC64YZ/Wvbgz+598bHHerEAeOrpv/ECgHgBImGAl6JhgJeXLaOmO+jGjRs/uGnT5pL4LYJ34i2Cd+9Bu/eUnNi7d698uv3P9L6uri5zd3f3IL8aIHEYAK8I+PlMx4H7gQAQAAJAAAjMCwIHOGrBVo1q75sP3N/77JNPIiIAhGGAl0KrAapmOmGcvb9585adW7aSLYIn7A1wae/evT+a6Tjp3B8IBL7Q3tGxAS8HxEWBgnxRoF7U28evBhjDmwOFVwNgATA4PDycdOVDOuPCtUAACAABIAAErjqBjWbz+/eLF/zffmrBuS35hrNvPvwQevHpp/lkwMhqgJdePfbqq69ve+W15b997bWVOdOtu493EdyyZdsavBwwLgyA9uzZi/DmQHv37n8Shw3mEkwgELgp0Nr6l7a2trN8UaAJqwH6fD09Pd/t7+93DgwMosFjx7AAQMePH39iLucFfQMBIAAEgAAQuOIEDoi/+91D4ozmg6I70AFxBtpp1KB37/8RWvH4H9DL4ZoAkaJAy1YMLl+x4ulVq1Z9ZToT3bJtx2Pbtu8Y275jJ9q5k88DwGEAVFIS2Rxoz6FDh/59On1Pdo/FYvmA3+//mb+lZZAUBWonRYH4qoDd48Fg7wrypn/06NGsgYGB0UG+JsAQTgY8OzQ09PnJxoDfgAAQAAJAAAhccwRKtF/70EEq42+HxBljh8QZiLSDbA7aWWBAG+//EVrzf4+hlS8uJUWBxla+sWrj6tWrb0n3Ybds367Yvn1nzw6cB7BrNy8A9pTsRXv37kPhzYE6Dx8+nFbVwGRzKC0t/We32/09j9fr56sC4r0B+KJAbZG9ATo6upq6urom5CH09w++GA0DDKORkZE3k40D3wMBIAAEgAAQuKYJHBLfLjoozggcojLQ4Zi2AB2hQu2AkkG7FhWizQ//HL37l79ceGvlyieWL1/+L4kefOPGjTdu3Ljx8+u3bv3Wli1bmM2bt+Vt3b79h9u27fjrjh27LoRXA0TCAPv27Uf7DxxEBw4eunjo0KH/nW5IwO12f9TpdD3scjV3RooCCTYHCoQ2B+psb2+/J9la/8HBwY8ODAz6SRhgePj46IkTJ+5I9JzwHRAAAkAACACBa57AwYyMjx+i7thMBAAx/EfoBYi0UnoBIu2INAftKzBc2P3D7we2PLbYu/6ll/1r177b++669ef/vkEQCu0NsBlt2rQF4dUAW7eG8gAmCQOgAwcOoYOHDqPDh49UlZeX/0eqUOtcrs/Y7c4nHA7nsLOpKbQ50MS9AQYDgbZHAoHAh6bqd3Bw8LuDg4Pnjx3jwwA4F6AumWCYqi/4HQgAASAABIDANUHgCL3g/iPUgovE6OMjMfqRo2QBKpNkTmilcjE6UJyHSn52P9rxx8fR1mXL0KaNm+L3BuCLAsWGAfbzYQDsBTh48DDCWwQfOVJ29siRsl/iOH4icLhGQUNDA9tota6xWm3nQ3sDkM2BXKHNgfAWwV6v0+/33xcMBm9M1E+y7wYHB392jE8GHMYCAJ04ceK+ZNfC90AACAABIAAErgsCR+iM7CP0gs4Jxl+yYKhMkjkSb/zLmUwU3yqYTFTBZKFyFYMO3W1G+3/xINrz5BNo5xtvoJ3btvNFgXbv3oNwHgBeDSAIA6BD2AtwpBSVlpahsrJyb2VlpYGAraqqurmmpu6xuvr6lnqyRbDVingBwG8R3ISamlyjLlfzFpfLy5H7pnMcHBrahFcDDA8fx7kAx06dOjXriYrTmRfcAwSAABAAAkBgzgjsE4n+rZResJd/65csQKWhN/7eciZTjG644X3VYvGn8XmFJOu+cibzb+VMZnk5k3mBGP4KNguRVslmIWGrkIlQWbEJHf75/ejgnx5H+19/He3bvh3t338A5wGQMAA6UlqGSsvKUXl5BaqsrDpQVVWzs7q65nJNbR2qi2wRbEEWixVZbTZktzsbHQ7HLx0Ox6xk7uPVAceGhnzDw9gLMIKOnzixfM6AQ8dAAAgAASAABOYLAVwz4IhkwfNxb/wXy+jMnyaaY41IdGM5kyUr57KeqGCzfEKjz59zWaiSy0JVfMtGVVy0VXPZqDJPjSp+fA8q++2vUdkLz6LSd9ei0oOHUFl5BaqoqESVVdWoqroG1dTUoloiABoa+ywWy+/tdnvKOQOJ5p7su+Hh4VuHhoZP4zDAyMjI2MmTJzOTXQvfAwEgAASAABC4rgiU0Zk/LJNkXsBCgLj6y9jMlZaMjITxefLwFZKcOyqYzL9Vcln9SQ2/NBtVJ2g10myEW7VMjKoLdaj6pz9C1Ut+i6pfewVVb9mCaquqUV19A2poaBxrbLRss1qthmT5AmQ+0z0ODw+bh4ePj4+MjOBcACtC6J+n2xfcBwSAABAAAkDgmiJQIVlAlTOZA0QA4GMFk7W/Ljt7ynK51WyWqIrLHo9545/E6NdIc1CNLNpqZTloQlOIUO1CE6p/6Ceo/i9LUMObK5B1z67jjsb61x0OBz3bcIeHh5/FYYATJ07g9tvZ7h/6AwJAAAgAASAwbwlU0plfKWeyAji5j298nD+zqZTL/sJUk67ict7CAmCyt32h0cfnE4w+/k6eg+omNBGqk4davYpGDd8rQJaf//h4g0H2ZIMip7hOnv3tgFY75fK/yZ4Bv/UfP368lPcCnDx54fTp07dNdj38BgSAABAAAkDguiLAJ/+xWY1xCX6d5Uz2pDH4KiV1c7U0+5xQAGAXf6006zfVsuzvV8uz/7damvNcjUy0pkYm2l8ry2mqleX018pyxqc0+nIRqlckbw0KEWpQiEYbtGyv7ef3nXU88bsTzW8uH/GW7D7eand0dnZ2urq6ui3BYPBwMBjc39fXt7Gvv39tf3//8oGBgeXHjh1bPjw8vPz48ePbwmEAdPLUqQYIBVxX/7ThYYAAEAACQGAqAvtV3/5IJZtdEpPkh+P80qzvTHZvtTTrOSwASHw/9MYv+ttk97jNt36wUZ75lVp5jqJOLrq/Xp7zVJ1CtLFOJqqqV4jaEhn+sMHHRj/UlCLUwDcxalCGWqNSjEiz5CqR/b7vIdcfHkW+5a+itu2bUVdjA+rr60MDAwNocPAYOsYvBwytBsBhgJMnT6JTp049Otnc4TcgAASAABAAAtcdAfett36wks18Lya5j80ermYzk2bJV6vEn66R5pwXuvprZTk9aMkN094NEPfZoBTJG+TihxoUOSsaFCJrg1J0aTKDTwx/zFElRo3hZlGJEW5WgxQ13X838j6+GLWueAV17dmB+h02dHzwGBEAOBRw63X3x4UHAgJAAAgAASAwGQG8TLCKy1obl9w3UinNzkh2X4005634+H6dPFua7PrpfI+XIzaoROJGhegRi5La2qgUH09k7Imhn/pIIYsqpo07inTHm+//fsD90P07rUrxD2xKaoHFmJFwb4TpPAPcAwSAABAAAkBgXhPAIqBamr0Gr+MXxPeHaxjR7YkmXi0XZ8Yk9+GEPlnOikTXztZ32MNgVdEZVhX1a4tKXGFRiUcnGv2ogbeqKBRpagpZU29jVjXValFT220q6q82DX2nTU1/B4cxZutZoB8gAASAABAAAvOGADaw+M2eCIBwjH+oTp6d0D1eK8upj0nsU4iOX0kjadNKPtWoon5kUVF90zT0vCiwqSmUYrtsU9Mem4beZFeJH7epxEUWleibpRwH9QTmzb9imAgQAAJAAAhMiwAWAdXS7HUh4x9Zw9+Fs//jO6xXiO4JLeWLLt+rU4hz46+bq89WtehrVg21f7I3+xQNO7JpqPRbVDhctKkph00tXmfXUI/ZNJTJrsm5Za6eG/oFAkAACAABIDAnBPBbPF7CR5L8sKu/Tp5tr9PGFgsq5bgP18lFI3jtfn10Cd+aOZmUoFM8rlVDL7GqqfNC4x829pesanqF0PDbNdQGm4ZeateIl9s04nX4Dd6moQ7aNJTFpqE6rBr6lF1Do3SbTUOjaEsoIIZtGvEhq4b6m11N32VV5PwnDrUIHgVOgQAQAAJAAAjMLwKlHPdR3sVPCvngGL9CtD++bHC9XLw2bgnf0FwaOatGpLaqqYDQwEfONXS1UyX+FhYI0Td6bNglP5iKLn4ui1ryOZuOWhB6g6d/atPQf3Zo6DV2DV1t19L96QoEfH0CgXDGpqFqrCrxq1a1+IcONXXbTFZPTPVc8DsQAAJAAAgAgbQJWLiMT9bKcrzCOH+tXPQWuuGGfyKd1SnEhUQAkPX69WpKQn6frWODjvusXU1tiBh77H4nbns1NWJTUw8IDaldQ5+MGGw1/cRszMPNcR/FyYB2DW226+gldi29ya6lPXYtfTkyVoqehJAwiDzDSd5ToKb+gsWHS579mdmYL/QBBIAAEAACQGDaBGo40dfq5DnDpEQvf1SK/kQ6dKq+/ZEGhegcMf64QE+jUvw0+X02jja1uNCmpo5FDD5v+EMue5tash6Lg/hx7BpJgDfKWhrZtJL18b/P5mccMnGqJXfYtZIfO3T0604t3ejQ0hcdWhrZSZtCGMQJApyU2GlTU+utauoRi1pyx1x6VWaTBfQFBIAAEAAC1xGBcPW+y4I4P2pQ5kTc6g0K8Q5SsCe8Tt8zG49vUWR83Kam3o4a/mic3qahu21aSptsHIeGrsYGmDfCGtqS7Lq5+h6LAoeGoh0a+ndOHX3QoaXPRuaTgiiIEQShZMOTNhW1x6amF9tVInF8KGaungP6BQJAAAgAgX9wArhCH3H142ODQnS+ThUqFFSvpO4Lv/lHyvLiDP2ZILNraM6moToTuNbHHRr6DYtC8fHJ+ndo6W3E4Dq01InJrr0Sv2FBYNdKqL+HC/7PoaUPOLT0GTK/qbwECcQA9hCctWqow9bQckQGliJeib8ijAEEgAAQ+AclUK8QvRl19YtQvVLcaeG4T+LsdmGFvnBxngeng4lP4NPSz9o19NgE46+l+xwaiTqVfh1aZrlTJ0Gk4ZoBqdx3pa7Bb/AODfWoQ0tfJkKAHHlBkCRkEPWGxNYusKqpk1a1eJtVQ/3EqWK+fKWeA8YBAkAACACBfwACuERug1LULHT3NyjF+3B8mi/TG669HxYA29JFgr0Gdg3tiDH8YTe+Q0fvTseIO3T0n4nxx8cmAytKdz5zdb3dQHNNWkmpUytBTvJ8SY7JxEASr0Ck2qFFTfltKnppo5LSQWnjufpLQr9AAAgAgX8gAo0q8bcalOJzwjf+BpXoV1aVqCS2LC81kk7iml0rybNrqBMR4x81iBedOvph4cqDVHC7dPRDTdjwh5tLR38/lfvm8hqXgeacOkm5UJjEnIcEQaNDS20m3gDhMbkYCK8miBYmigiBcJ2E8zh/AFdNTEdEzSUL6BsIAAEgAASuQQIWJfUAEQBho3/RqhbvCJ2H6++rKdSoFmVN9Xh46Z5DQz9p19Dj2MAJDZ5DS/fjRLqp+kj0u1MvWdSklyDSnAZmSaLrrsR3zQb6O016yV4iRoRHIgAcOvqAUyOR4/k4dJJV2DuAWTi1kt/iJYcODb3XoaWP4+9mIATwZkijFiVValGJH2xQMV+8Es8PYwABIAAEgMB1RKAxYvBDW+5aVNQYX49fsOGORUU9OtkOBYLfAAAgAElEQVQjO1Wqj9g19NYEhh9X5bO4ZmCgnFpG5tJLkEvPkLZ2srnMxW92DXeLS8++49JLxvBciBiJHHWS8SadZFuTno7ZdbFJJ3ETYeDSM/9J5oa9IE4N9Q2Hjv6+U0uvcGhpX8RjIsgZiOQJJPMIRHZEFI9bVOJ6i0r06EyTNskc4QgEgAAQAALXOQGbkrrZohKfiLz1Cww/djuHC/YcTIbBYRB93qalrXFv/Pxbb5NOsrvGLLox2b2pfO/Uc98SGH/UpGfqUrlvNq4JaLNvchnYZ1x65qJwDtFzXgzsdemoBfHj4dUNTTrJGBEAU7ns3Trusw4dVWzX0K/Y1bRHKAjihYCwbDJ/HhUCCP8dG1XiGouaeqBJT38ifl7wGQgAASAABIBAhIBVRd8f/9YvMP64Ut+ZROvVHTr6604t3RVv/LHbu0lHb0h0T2TQFE+c+eJPNxsYJGhDKd467ctwOMOlZ+5tNjD9gnH5ObgMxBMhKXUbuKRhjSY9rRCECEaF1Q1TmZhNJ/6SQ0P9xK6mt9k19KlEyYIxQiBOBISFwPlGJbXRqhIZYHlhKtThGiAABIDAPxgB7JK2qsRlxKBEyvSGS/Tit1Gnjs4WYnFomdsdWnpAaPz5bHidBOHYdzqJg8J+489xP80GZkxoiOfyzdalZ8TNBtYiHC/u3Osy0ob4ecZ/dhmYJZEQgZ7uj/89nc98hUItI7NrqGdsGrqJ9wiEvTPkb0aOFl4IkHAO7w0gNR36GxWi5+vk2d9OZ2y4FggAASAABK5zAo0a6htWNXUp1vhHK/bZtdSvCAK7nhHjojzE+BPDj93dTVpm62wZfzKe28AMug0MIq3ZyGaS32briEWFx8SucBvZcbeRRZEWHXfIbZD8PFWvhksvKSWhgmY9XTFb88T9OLXcF+xa8Y9tGmqLTU2dxH8zIgD4YyJvQKi0MxED1Q0qamGqzzKbc4e+gAAQAAJAYB4SsGmol0i8WRiD5s+1kh14yniXPWL8hYYfG3+HTlI905h/IixuI9scMchGFjUb2TsTXTfd77xG5i6Pke33GFmEm3Ast5G93GxkXrDncf+aav8dHPdhl4E5HxUAzPJU7033uoBW+yGrijbaVdQ7oSJCYTGQSATg/ACBEGhQinsbVOLfVavEn053XLgeCAABIAAEriMCFiP3SZuaGok3/uE3/WG8g55TKxnCn+ONv0snafHmy/99LnC4jewRbJSJgfaY2N/PxjjePO4WTy6732NiEd+EY4TOa9067rvpjuXRMYwwbOAyMA+n28d0rsfVF+1qca5NTb1rVVOnsDdgkpAALwZw6ecGpehCo0L0dr1yYjLjdOYB9wABIAAEgMA1SAC7+iMCYOJ6/pPxhj+c6HYxfgncbD66x8itFxh/bKzfnkn/OOfBZ+Ie8JrYU14Ti4QtLAaOu01czLbE6YyH4/8xAsDEKtO5fzauxZ4Yq4bOt6ro9ywq6kxolUcoN6BxoicAiwC8LwSqV4hqapU5pnQLNs3GnKEPIAAEgAAQuIoEsEvZrqF7SHxfeCRL2sgxkuWupxfP5ZS9uexL5C09bKyrpzueRyf7ktfEHfSaOJS4sZtcJvlnpts/vs9tYOoi+Qp41cAM+5vJXPC9WAw0qsRFVpV4s0UlvhheIRAfDhCKACwEbPVyUR4IgZnSh/uBABAAAtcQAYdG8osYw49L2wo25IkYfpz0p5eUp7vELV0UPhP3u+hbOjbc7EC6feDrfSbpvb5c9qQvl0MJ2jFfnrR4Ov0K7/EbuU+6jexYNI+ACQh/v9rneNOnRhX1C4tS5J7CE4BFAKqX5zgaFDkFIASu9l8OxgcCQAAIXAECuLKfQ0sfSxTrjxj/cEW8UHU8pqpJzyx2m7gZbR2c7NG8udxPyNs6MdwBrfamZNfHf99mVnzcb5KuI/fGH/0mbpfPpLw5/r7pfHabuLtJuCIsAlZNp58rcY9VRWc0qsTLG5Xi0yQ5kM8JCG0THRIAobAAqpOLmusVontme4XHlXhOGAMIAAEgAATSIODQSv6QJN4fKYVLstzJsdnAjDcbmPpmPbPYY2D+I43hJr3Un8vmxxttj0F2x6Q3hX/057ISXy7b5c/l0MTGnvSZuO+l0k+q13hN3NqYhEIDd1+q916t66pM1McaVKL7G5Xi+lBSoJjPBwjnBESEQJ1chGplIleNXKS5WnOFcYEAEAACQGCOCbjVon9z6iTnses/8tYfcvmjuNr8wip9kfNQDJxtcpu4JS6TZEbFZ3wmKSUUANiQT+WuR2bz+/15siX+POmoP0+KErT6QJ7sq7OJERfs8ZnYERyuIDkLfiP3zdkcY677ssqzv92gpF5pUIovYwGQSARgIVCnyNlToxJdU8821+ygfyAABIDAdUPAoZesjRj/qMufbMrDH4XZ7vicN/xGJmYtfdglHvAY2KfdudLsdOPJ2JsQeXvP45Aft1zpb5OBDpgln2rJ4w605ElRgjbekid92nJ/xgeS3T/d7z0mqZ6EKsI5C73pPut0x57pfW6O+2iDgipoVIpXNSrFg+HlgRMEQD02/nzLQXXynEs1ctGLlTTsOTBT/nA/EAACQGBeEWjSSlheACQy/rH1+fk3/5DxjxbSIbFw/hh+Kw4bxqA3V/qSz8RK8Zv6VA/Nx/B5wx99k2/JlyaMrQfy5aKWPGkwxvDnS1FLqB0L5MlUU4033d/9udxq7KkgIsBn5FZOt68rcR/eRtiiEv9Po4raa1GJz6eUFKggAgAfeRGAamU5Q3Xy7J/BfgNX4q8GYwABIAAErgAB/PbaZJD4cE17Eufnj3HGnyx5i2a+xxTt4d3hsVn8HPKSTHwTN+gzcW/4c6U6vAQx2WO15EkvxBj1PG5Ced2WAtmDLfnSi4F8KUrQLO0Fsi8l63+m37vN5g/6crnjwlCFJ5fNn2m/s31/o5z+ilUt/o1VQzUmKhssFAFT5QMQT0CtPAeLANzc9bIs2WzPGfoDAkAACACBq0DAZZA8JjT+iV3+yd/6Jxh+U8IleKEEvTzuhC+PfbclT1rYZzT+i/BxI2/10bf5PvI7Nr6BAukbCYw+EQKrOn7AfZhcPxdHn0lq4nMTiLDJ5S74TNTH5mKsdPu0qkVfs2moR20aykL2epi4d4BgA6HYcsGkPoC7XiGq4JcG8ssDiScg7AWIioDxWlnOijptdsqrNNJ9HrgeCAABIAAErgABp4b6BhEAMcZfz652G5idbiN7hrz5R1z+se7+qEs8ahwj6/D52D6J64eT9cJv+uda8rmtgTzu7o487l9b8qXWOAM/jpcr4nh/a76sIpAvQ6S15stQawHfLrblyx64Aphu8OdJt4dyE0KrDby53MErMW6yMVwq5osOLb3YrqVskcqOGhpv7YwSiYAJJYOV4ouNKuqgRSV+CHsN+JUCClF7RADEhQIEXgDeG1AtzemG1QLJ/jrwPRAAAkDgGiHg0jOeGOPPJ/uxP8TTx5nvboNU7jGxz3gMbBPJfg+9+Qvi4XHGfxLDH0rcC7/ph40+duufjQqAsLHPk9/dWiDrCBt7YvRDx0LZ8UCRgrsSiD0Fks+15EkvR1cacKjFxF0R4SF8PotC8XGHlr7XqaGPOLT0GCnmFCsAkoiA0OZBgxYV9TauGhj/Bt+oFC2LWxVQVq8QnSVhAJwPIBQBNbIchFu1LHt1KffdlDdSEj4PnAMBIAAEgMBVJuA2Sv4iFAB8zN/EPpZoWoEC7gseI/Mjr4nb5DNxI8KYOD6PzeYPJfXFxPZjDT9x4Uff7kNv9sTYjyc0/gWy1naz9BuJ5jcX3wVyucXkGcIi4BKuCDgXY8X3ibf0dWppY5OO3kCWbeKlm8T4k2OsCKAingCrmnLZNNSTdpVInKzIT6OKUjYoxeOC/QJ8eOOhKiV1c71cvLJOLhoVJASSfABeAPBCQJrdWynLMcbPHT4DASAABIDAPCfg1tHZRABEMv0N3ItTTRtnhfvzOdqXyz3hy+Us/lx2jHeThzP6idHkj5MY/iRGnhcBbQUyFNMKZVX+O6+M8cXPj5YseV9LvqyFX2VAlh3mSndPxWamv/OhGQP7TJNBMoCTNMlyzUjJZm2sCLBraRQWARftGsl+q5r6uV2Tc8tU88CegEaluAtXCgxXCRxvUIkZ4X0NUuq2OrlodzIvQI00G1XjJst+x6LI+LjwXjgHAkAACACBeUwAG/JmA3M6YvyNOOmPW5/ulFvzVZ/25XF3+/KkONFvMCIAEmbtR+L45G0/cowz+KitUEba5dZC6a/nMts//pkDuTIjCU2ElxqiQP7sVhckY+JNfVxG9vsuI1Pu0jPjodwMfj+GUHVGwX4NvBCIioCzDi212a6m78JhAtJfKsdGpeiNuDLBy5PdVyfPltbKclzhFQG8JyDkAchBEREgzW6rkYmykvUB3wMBIAAEgMA8I+A2SA6SZD989BiZsplMEb85+wvkmS0F0t8HCqTVgXzpaMiQJjb8EaMfNfZhoy9H7YUTW1uh3NpRJFuMQxIzmedU9wbyZWWh5MPw0sMC6Rm3mfvoVPel87s3l/kvj4F5pdnAjBBPjAvvMqgnLSwCwlUbw16AE7iQk0NDFViMGTErKlId26IW6xtV4nEiABqV4l47x00az8chiVpZzuJaWc5ZLARILoBAAGBvwKUqLvtX10qRpFR5wXVAAAgAgeuSgNvI/oEIAJzt7zay3tl80C49/YlAobQ4kC9/szVfdpK4/RMb/okGPyICiuSoXdA6iuRj7UWyQx2FsjvxcsHZnHNbgTyTzDMiAgqkb8zGGNjr4jaxZreRKSPcsQeGCAB8jAoAhuzPcNKlY95u0jA6nJw5k3nYtJJPWVTifn7r4PCyQFwpMNU+61VZX66V5ewRCoAYEcBloyouezdUEUyVKFwHBIAAELhKBNxGRhZ68w8X+TGxQ3MxldYC2Q9aC2SXExn+iJEXvvGHjX1HkRyl0I52Fsn/1Fmg/txszL21QLqeCAB8xCIAi4KZ9O3WcZ/1mNjfe0xsD1lWGREAWHhNFAFnXXpmg8vA5ndws1frwKqmdmDjzwsAfFRSW6fzXDUykblGltMfTgYM5QKEcwKqeBGQ1Vohz57RXhHTmRfcAwSAABAAAikSCGglnyIGKbzU71KKt6Z8WVuh7NHWAtk4b/wFrv4Jhj89o486i+SRFhYJ59uL5K/OJFcgUCi9ra1ANornKhAB1pQfNu5Cv5HN9BrZd70m9iIpniTcVTAiAkIC4GIzX4OBuWu2ww14WlYVfb+VXxYYKQ50wqakpr1dcoVE8qkauWh7jAdAynsAsBcAtzOVbNadcUjgIxAAAkAACMwXAl4jO8CLABOLsJGarTdOnA/QWiB7aeJbP+/qH20rkL/Hi4Ap3vI7zQqUZrvUaVa81n6n/DPpMm4rlG2LJB8SEZAv+3E6/eAYeItJqveZuDKyXJLsI4D5kpoKRHi5jWyD28T9fC6XGNqVzH9Y1dQZXCkwUhxITc1KTYNaLue+Gmn2aX5FAPYChIx/WARkoQpp5l8hLyCdf0FwLRAAAkDgChHwGNlSbJTIGyrO6p/p0Lj+f1uhbGO88Q+/9V9qL1QUt5nl2xK49y/h79I0+MmuP9VZpPhdquWCOwql2e2F8vG2QjlZfYCXIg6n+jaOn9mXL73Xn8e648oH8xUSQyIgxNljYrvdBvavf3fz/+dMWU91P847sKqpOlImmBcAanElWnLD+6a6N9XfazjR16ql2bVEBIQ9AKiKy0KVXBaqYjI3WzKml7SY6hzgOiAABIAAEEiTgMfIvhoVABwK5Mm+mmYXMZfjXf5a86WlsS7/SILfhY4iRS6O13cWyS8LBUBnkeJy90LZV4NmxX91mZUPd5oVezrNigtdZgVK2IoVqEvYElyHhUSHWdHSaVZNuZlNR5H8sDAsEfIESP8Y83AJPgS02pv8edLHWvKkfXgJZKhoUKg4EvEA4KPXxJ33mri1PiMjm03jm2BKMV/Z1fQTuEwwEQBWFXXBohJ9M+aiWfiAhUYVl/23amn2eFQAZPMCoJLNQpVsVmMVNf2QwyxMEboAAkAACAABIQGPkVlM3v7xW2pLHvdd4e/pnPtMyptbC2TOJMb/fGeRTIv76yiSPxZj/ENu/nfjxwp8T3tT90L5oq5i+c6uYsXlGIMvNP7JzqOiYLyzWLEK9xc/Bv7cbpaa8Hz4lQbRZMSzkxUfcpvV/xbIl/4xkC8dERYMEpYOxp4Aby7r9uVxj+DrE409l9/Z1LTCpqbGhALApqF/N5dj1siyzFVc9mkiArAHICwAUAWb1VnKZcy6+JjL54G+gQAQAALXLQGvkftBSACEavy3mGQxFeFSffCOQu6bf8/270xi/M+0FSnluC8cD+4olLfGufrH2wvlk2aNd5i5zwaLlb/pLlZ2dRcr0eQtzjuABUJIDLR1muUi4TPhHQo7iuSdRJBERECR7CXhdeQcb1QUyJc92ZovO0WKBeFjnAg4589n38YVE8l9V/rokmd/xqahj5KNgrAHwKam6/Gb+lzPpUKefWsVl+0LiYBQGEAgAoYqpTnZcz0H6B8IAAEgAASmIOA3sloiAHhXdZ5MNcUtE34O5MtFrQWyodiYf8Ttf6q9ICoquoqU8jjjj2P4KZfZRRz3z90LVYu6Fypd3QuVKKYlFAZxYsCsuNxZrPgVeYgus+JJYvzJsb1IfiF+NUFngeRzbfnS59oKZGfICoFInYCoAGgN5Ep/gXc6JP1fjSMOMeDSwLhMMBEANjV1tlFDXbG9FHC54So2ewfJAxAIAOwJOFPFLuC9QVeDD4wJBIAAEAACeOc/E3M7yVLHAsCfx6b1P+ZAoczYWiA7i42i8O0/HE8f6ShQ5AhBdxTJ34tP8usyK9J+U0Zm8/u7i1X3BouVweBCJRK2iCiIEQQCIYBDDkWKdV1mVUanWXGRzxUQrkYolEf2ROjJl/97e6H8mbZC2VkicIgAwMdAvmy8NU96EJcPxisfhM96tc5tGupRslFQRACoxA9e6flgIVLNZb4YFwbAAgBVMFmXytgs85WeE4wHBIAAEAACYQI+I/NloQDw5nOGVOG0FUrvxQV+khj/oVazNEPYFzamOLFPKAC6zIpK4TXpnmMXfk+x6rHgQuUJoQgg57wYiAiBWBHQhb0BgmWGYQ/AyYBZ+ymfifpYh1n+h/ZC+QksZuKXB4Y8AdLXce2AdOc8l9fb9YzYrqEvxwgALXXgai7Fq2CzflHJZo1hLwBv/EMCAJUzmZfLmczvzSUP6BsIAAEgAASSEPAbZJ/HAiCSsW6SmpJcGvN1S57sd7jAD3kbjr79867/gUQx/Y5CxS+EBhfH5TvNCn1Mx9P8cNSs/VRPsXITMfzCY6wIUEZXD4STBIVzai+S/6XTLP9lZ5H8WCQfgBcAYRFQIOtvK5A+hsscT3Oqc3Zbk57+hFNLdwl2CcRx/xGnNntO905I5YEq2SxzJZt1Pk4AYBEwWsZm/jCVPuAaIAAEgAAQmEUCeN2/UAD4c9n8ybrHrvdAgew1YvgTvP33deYrEq5v7zQr3MTYho2/c7bfTIOL1Hf1LFIOCwUAORcmDkZWFAg8APzcihTHSS4APgpEQHtbkfSnQbPoxsn4XK3fMEeHlt7mwFsER7cJRnYtNW/esCu5bLqCzRoJhwCw8SdtrFSSdd/VYgfjAgEgAAT+IQngt0ahAPDmSQuTgcDFbgL50g04+S2xAJB2txUq/yPR/V3FSkpo/LEA6C5Wzkmp2IE75Z/pWaTe0ZMoNyBJOIDMDR9jBIBZ5movUtxzJbLnE3FL9TuHVvIgNv6khUMA06r1n+qY07munFlwewWbNRQSAREBgIXAWKkk8+7p9An3AAEgAASAwDQI4Fi3UAD4TGzCxCzs8m7N5yoSbe8bcv9L2zvNqi8nm0KXWb6aGFl+Sd5CRRv2JiS7fibf939f9ZHeheqVPYtUaDIRkNwLEN6EqFD25Gx7KGbyXMnudWiZ251ayQVi/HkvgIbuq5dn/Xuye67m99Vc5ncr2KxjFVEPAO8JKJNkXj4iWZBUgF7NOcPYQAAIAIHrjoCnQPI5b64gB8AozY1/yEAB94WWfGlzdN37BA9AS2uu6ovx95HPuDpgp1lxVigAuouVs1KLnoxBjsG71Fm9i1QtvPHHAiCRCIj3AiTIBQh7AUY7i2R/ttyf8QHS/3w7YgHn1En8Tq0k8vbv0NLjdg2lm29zFc6nnBH9VwWTOSAIA6AySSZuF49IsmYlL0Q4HpwDASAABIBAHAFvvvzrkQRALARMnEZ4ScAova0lX9odNf7SGPd/a4HMg9fIC++JP+8wK/5HaPy7zIqjqdboj+8r2WfsTehbpPpd352qS72LVAi3qAhIsEwwLAKSeQFiwgBF8vpkoY1k87lS3zv0krVOnQTFCAAd/fqVGn8m41RRmbeVC0RAWABgEXDuMJMpnknfcC8QAAJAAAhMQcCbJ80QCgBvHseRW3Alu5Y86XFc5S6JAHCmsnlQp1lhjREAxcrFZIzZOPZ/X/XlvkWaqr47VaiXtMQCoA0nBApXBaQoAFB7ofx0W5GiYDbmO1t9NOmYn/DGP1YA+N0c99HZGmOu+6mQZNxRzmSexJ4AgQBAZZIFw+XMHQmTSed6TtA/EAACQOAfggA2+EIBEMhn+VK5/jwuryVPeg5vcJNEAFi8+fIpY8xdZikuthPZsa/LrDiRrCb/dIAfvUt9T99d6pN9d6rRJAKgM7hQ9b3gQlXrDAQAFgHj7QXyP82Hgj8uHbWgSSe5ECcAztt14mnv5TAd/rNxTxmbLS1nMi8IBUCpZAEqoxd0HRaJPj8bY0AfQAAIAAEgEEfAa2TvjBEAJub2lnzuAX+edJQ3/gkFgLw21XK3HUWKZZ1FAgFQrPxr3BSm9bHrLv0neu9UbwgZ/pDxjwiAaAjgcs+d6ucGzdxHg4IaAdP0AGABwBcEai2S7ZhNEZMuALda9G9NOklHE37zJ00rQXYN/dN0+5ov11dIFhSWSTJHiQjAAqCU5kWAs4qiPjZf5gnzAAJAAAhcNwS8udyjwiRAv0m6zp+HSwKHtrZNIALKceJZKgBwNn5HkfwkjqeHvQDn2u+UfyaVeye75uhdamnfnapubPBJi7j+cQiAd/8rG3oXKW7H/QQXKh4ktQB4D4AgCbC7WL61y6wYCdclIPOMXQqI6wGEdwkkFQHbC2S2dtPMn2Wy50z0Gy6v26SX7MbGP0YA6JiNia6/lr4rpxfcHy8AsAg4Qi/YvXGOVoxcS3xgrkAACACBWSXgMXHLYpYB4v0A+D0BEgqAMrc59fhyZ6HiXpJMxwuAIvkrM5k8zsbvvUu1pPdO1ViMwRfE/XsXqc4EF6kXkyWG3YuUC4ILlReIAIh5+1+oWIPngwVNV7FycadZcTw8z1gBEN0iOKYkcFuBtL3VzH1tJs+U7r0uPf1/TfqQ8RcIgDaLQvHxdPuaj9eXMplPYRFAPABhAYAO05nPzsf5wpyAABAAAtcsAZ+R3ZNYAIS8AMQDEMjnStLN3O8oklcLBMDlyeoETAXwqFl7a89ClZ1k+Cc5bg2aZZGYMQ5TBBcq2xMZ/+5iZX388+Dlih1F8qc6iuQXybwFlQBRG9kToCBmGWRvaz73ranmPxu/u7WMzKWXjMYJgAs4H2A2+p8PfaAbbnhfmSRzV7wAOEIvQKXUgh/NhznCHIAAEAAC1wUBr4nzTSUAAnmybW6z+YPpPDDeJAcbT2JIO4vk76RzP7kWF+LpXaj4ec8i1bnosj7hEj/+vKt3kTJmDwN8X3ChYhsx/rGuf9VRoVAgY5EjXvLXXiTfjeceKwBkIQ9ArADAOwIem+tNgRwG2eddBmaAN/5hDwCO/zt0zE/IvK+XY0l29k1ldIabvP1j44/bYWrBxSN0Rvb18pzwHEAACACBq0bAqVJ9xGtiRycTAP486YbpFMJpK1K8IBAA4635qrTfkjvM3GeDC5UlxIjjqn49i0jjDf9ozyLV8zjJLx5iz0LFI+Q+odu/u1h5sXORLKU15u1mqam9UN4XSv6LbAbEb3ssLIWMSyMH8qVH2/LlX4+fx2x8tmRkfMClZ6pcegYJBYBDJ1k1G/3Pxz4OizO+WipZMESM/xGKFwDoMJXRhgXCfJwzzAkIAAEgcM0Q8BpYkdfEIiwAEosA6RoSS0/nobBrvb1QPsQnzmEvgFm+M5378bXdZqWpe6FykBjxBMfG3oXqOxL1G1ykyg4uVF7E98QafwXqXKhMa9MZvIVxW4H8PZL8h8seJzD+fJ2ElnxpEG+vnGhOM/muWSd5Dht/F37zj8b/LR0c9+GZ9Dvf7sXZ/hWS7FsPMxmqUknmD8okC/YkEADoCJWxdr7NHeYDBIAAELimCHhM7P9MIgBWTne9e1uh7E6SNY+9AJ1Fqb1xY3h45UBwoWK5cOc+bMSjAkBxKrhQ+XAyYRI0q/8tuFDZGWv4lai7WIE6ixWvTvcP1F4kM7cVyE5MIQBQS5404Ddyn5zuOPH3NRslhS49Mx4jALSSIY9O/KX4a+f752qx+NNVXHZOOZP5vQpJ5u/L2MzV5UzmgXIm010myTyVZAUA7/4XeACwFwAdpO7Ime/PC/MDAkAACMxbAh4TuyIkAEJeAFIPwJvLvTKTTXDaCmVHcMJcWASUpwqge6E8s7NY4SfV+WJEAL90T7Gt53vapHvb4zl3Fyt3xt6nQLi/zmJF2XRCGcK544z/QIHMQTwAYdc/efvHxp+0SrxzovDe6Zx7dfTXXQbmZMj4R9z/oy4dq5xOf1finlIu45PVskymUpp9fxWX/bcqNntLJZflqGSzTlWyWYjfBRAfmSyyFTDZCChSCTBRAmC8ADgkzvjllXgeGAMIAAEgcF0S8BhZj4cPAUTDAN489rmZGH9sJNsKZeMhlzn/9q+dCh5+m+8sVv6206y4xO8UiHyzaLMAACAASURBVDfnKY627mJFd/dCxYRNiuL77S5W/Cpk/KP38v0sVHQeNWs/FX/9dD4HzaIbAwWyVa2huH+kRDKulkgEAK6h0JLLrZ0JR4sx41+aDYyTGH/i/ndpmf+dzrxn+55aLueWGrlIUyvP+WWtNGdFDZddUS3NPlYtzUbVXDaqirQsVMllIWz8YwVAzFbAEeOfaAkgHwagFgwfpjM8R6g7Dh6hFvzlYEbGdbHscbb/LtAfEAACQGBKAm4d91mPkR2PCgBeBIx7c9lyf670D/586Xem7CTBBYF82ZOh7YFxxrzcPpUR7FjE3dJpVlQKywXj87AQGO1aKH8xlcJD3Yvkkq5ixWWhcAj3cbazMFQQKMF0p/1VIF/6i0C+dAzvkRBv/ENFlDgsAv5vugM0G5m3mg047k8ajv8zb063v+neVyMS3VivpBbUynLuq5flvFQnzy6vk2WP1MpyUA1p2OgLWtT4Zycx/tgDECMA+sskmdVlzIK3y+kFj5dKMu4rozONOOO/nMn8Yon2azP2pkz3+eE+IAAEgMB1R6DZyN7pMbKIb3FegGgogHW35EofSrX4D3axtxbIjmIXOR8rL5Ivmgxce6H87o4i+Qm83E5YLjgsBqxdZlXGZPeT33B1wS6zojfiPYhu7zveYZYvJNfN9rEV75dQID0zUQCEiin5crlRn4mVpjtus4H9cazxZ3DVvzK3+da0lmKmO26dNvumOjUlbVSIft2gzHmvXiHy1CtEo3VyEQq1HFQrz0HY+E9DABytYLMOl7OZyyvYrN/g0r+VdNZ3SrlbJ6zgSHfecD0QAAJAAAikQQDH/ycKgGgogIgAfGzJ5Y778qS/iS+cEz9ca4Esn8THWwtkgWSJerhAT1uR/D1SI0B47CySn+4oUjyS7N74MfnwgVlxJN6DwH8uVvw5/vrZ/uwr5Ba05EkHsPufvPnjSooCfkextyXVcT0GyR3NBuZ8rACQtKay8VKqY+DrcIihUZlDNShFDzcqxe80KsS+BqV4rEEhQrjVkyYw/nXY+E8tAIar2OzyKmnWa5XSzJ9WSDPZennWlJtGpTN3uBYIAAEgAARmQMBtZDvcxAOAjxEvQGxCIDFkofLAXCveIjjZsIF8WUlUAMgTFqgJFCm49kJ5t3CVQFQAKHa0LlJ9MVn/ib7vMiueTGj8zfKt013FkGicyb7zmaTf8OdJu5MIAOQ1sYdTmUuTnv5Es4FpjzX+zAmXnpnxtrgOHf11i4r6b6uKet2iopwWlXi0USVGjcpQa1CKUYMyzvgryJs/PsYa/1pZzqUaWY61WpazskaW/Ugtl6OokGR8bjJO8BsQAAJAAAhcZQL4LRMb/3gBEBUBE+sCYCEQEgHsmC9P+vv42H6bWfH/AvnSURwTb82X98VnweNKgm1F0qfbCmVjOEEwIgD48rrynk6zLD9dLF2FMmNnkXw8KiAilQedqYYt0h0z2fXePO4Wfx4XiHv7j9RY8JrYSbPWMc9mA7OTN/7R2P+l6WT847d7m07M2FTUozY1tcOqpgatagpZVRSyqMSRRow/Pk4mAOrlogt1clFjnTz79Tpp9v110uyMuQ5HJOMM3wMBIAAEgMAMCLj1zBNuA8MLgHREAC8A+I2C8D4BsndKOe6fyTT8BbIl2PiHk+J+Tb7Hx5Z8xX+2FshsfHIgzg8ojLTR9kL50lSS/IT94fOuAvlXOooUxycaf9kgTiyMv/5KfPYUSD7ny+W8xGuCd1kMFVnCXhX2nMfA/EeyebgNzKPY+Ave/sddesndya4Xfo83ArKrJXq7ln7aoaFrbRrqkk1NIdx4wx8+WgQCYOLbv5h3/TcoROfrlKL6eoX4tXpZzn01CtHtuBKhcDw4BwJAAAgAgWuUQLOB8WBD4zbyIuCc28gOpJoPIBQBvjzpuzgGj1tLnrQLJ8MF8qUjxKDjt9pAgfSnrQWyc9HQQChBEG+n21Ygz5wOQpyL0GGWW4XGn6/ZXyS/2F4kl0ynz9m6x2dS3uzP5QJYBAiMPx9i8RjZSrydb/xYzXpW6jYwowLjj5oN7G/iryOfLUbuk3atJM+plbzg0FI2u5YetWtohJuNbyHjHyMABMYfewEEb/+BeqV4TYNK/NNGheh2oagj48ERCAABIAAErgMC7lzJreRNM+wF2IONksvELfCYmD97jOxQNBSQOCkwGg7gwwJP+vNkWrIGviVf9gTG1G6Sf6YlT7on5BWIKZ97OlAo/+VMDE17oWyFMIQQOS+Qz4vd4twGxf/zmrgOUmQJ84wILCP7U+E/I5+JurnZwPTzxp+4/g3MUuE1AW32TU49Y3LqmKVOHe1yaOlxh5ZGpBHjHxIACYy/Grv+cROdsarEZRaV6K+NSspk00pmpTaCcK5wDgSAABAAAvOUQLOBeZIIAP6oZxYLp4rf3t1G9rceE3uSGLBEewUIRMC4P0/ayhe/yZOebc1XfTqQKzO25EsHSEggciyQ7cS5AsLx0j3vKJD9IGLwo9UGcc2BF9Ptay6vb9HTX/Ga2B7e+AsEgNvIDpOMfiyCmg1MBfl74DX/zXpmY41ZdCP2Crj0zBNNOqbWqZNcxjv/8U0riRh+LABijT/2AMS4/lutKuodq5L+Gbzdz+VfG/oGAkAACMxzAtjguPRMHzE4+NhkYEWJpo3L0HpMbFOKIgD58zhcCe/NllxuWUuedJz3CISL5ATypT0tedLCROOk8117ofzbbYWys4IcApJPsH8mHoV05pDOtd5c5r88JnaEvP1HEi8NzCu4H5eReZb8LcIFf0Zdeqa8SS85J9j0J2T4sQCIN/6xAmDMpqbsVrX4RbtKkudUiT+dzlzhWiAABIAAELiOCTQbWCOpLBc2PGcmS/DC2eReE7sxJRHAJweyJ0NL4SJlcccCedzLAa12xtu3tpkVH28rkLVEEgnDxYbaCmT+Lj39ifn6Z3PrWYnHyOI8i1DSZSjR73Kzgflds4EZx38H8jfBR+F2v03krT98JC7/8BHH/S02Df2cU0sb8RLC+coA5gUEgAAQAAJXmUCTXrJdaGzcRmb3VFPC1f28JnZvNC+AJLfFFLvhC9+ElgniFQK4Se3+PFnWVP2n8jtOJmwtlG0RJhKGz0fazdJvpNLH1bzGbWLNvAAIZ/mTt/5440/q/WPDH2/8nVr6skNH1zt11DM44x9X7buazwRjAwEgAASAwDVCwGaibm7SSy7jN0wiApoMzPdSmb5TpfqIx8jWR0VA8uRAXy53piWX+9VsuuRbC+T/izffiRMAo4FCqTqV+V+Na/CmQR4jl+c2smvcRnYEJ1wKDX8Kxv+SUyupadLRTzp1tIasrLgazwJjAgEgAASAwDVMoEnLPMW/WerxpjK8CDiTarEcj0mq9xjZXj6WHVcxcGKCINs70213hZgD+XJRIF96KZJIGK41ECiQPSK8bj6c8yETA2v0hIz+qTi3f4wAICIsdAz9TZp0krYmLbO8SU+b8dr++fBMMAcgAASAABC4hgngN3inTjJMXMvhOPPaqR7Jnsf9q9vILieGjCSzkcz2+NwAXPiGL4JjYs1T9Z3K7/xSwnxpT7zxb8mXvpXK/VfiGhx79+Qy93iN7EaPkT2DGRFeKbj9j+Gs/yY9fb9HJ/7SlZgvjAEEgAAQAAL/QAScOuZhsowsIgK0lHYyBC69RN9sZPqEFQOxQYuIgND+AaNeI/cDb2S1QKSEcMVkfafyGw4h+PO5I5H6AnmRxMJKXFY4lT7m6hq8uY/PxD3gMbEHPSb2MmESb/gTuP3PN+uZQ016ZrHTILkjUVGguZoz9AsEgAAQAAL/YASwIXXq6HYiAPCxSSfxJzM+2PXsMkhWCePVIREQLR0cFgLjbhNzL8aJiwt5TexZoUfAb5B+Zyao/bnck+HaAnh5Id/8edJOXGdgJv1O916PTvYlj5F7xGNiKz0mdoz3gggEUbzxJ/zcBqap2SB5zq3jNDhEMN3x4T4gAASAABAAAmkRcGgkd5PlYxERoJX8T6JOXEZG5dIx3TguTQyY8BjnDXhI2IfbxP5VGBrwmNjXhL+nc+4zSU3+PG48tJogsqrgtD9/ZqIinTnga7358q97c7lHvSa20Wtix8nzkTf+RO5+t4E53mxg3/v7rn73eNQS2B0vXehwPRAAAkAACMycwEaz+f0OLe0jAgAfcS4AzgkQ9o7fTJ0GZmmTXjIem5w2UQjwIkDP/lZ4Pz7H1e08RvYUbxxx5TsT2xe/Y2D8PYk+ewpkX/LlckN8LgHZgTCXG/flSYsTXT/b37mN0ts8Rm6x18RUEY/GlIbfyLS5DcxSj55TwC55s/0Xgf6AABAAAkAgbQI2DfUju6BmPC8EdPSfhR059Ky0SSfpiF0hEF0qyAsCwRI2l4H9q/B+4bnHxCwTvh1786QZwt+nOu/guA97czkbMf6Ro4n73VT3Tvd3LFJwvQJfLveU18QGJjP6gjf+i24Djv8zD7u0sq9Od2y4DwgAASAABIDArBPAb6J2Dd1JasWHvQCn8E5yeDDsBXDoJS87dZLxcF4AX3wmVgjEVqlzGSUvTTZRl4HjSCwcG0uvgXl8suvjf/MZuZVkWWFkRUEut346noT4voWf8e6FHpOM8RrZpT4T2z3B6Atq9xNBg3dMdBvZVc1GaSGsyRfShHMgAASAABCYVwSsavpnxPiToyP89u/QULRdS7eGQwLRWvPhCnSxIiDsDdBJVk1liHFiYdhQ8kvhmo2sJVUo4dUEiBhjLAR8Js5uMRpnJXGOr2hoZFReE7vca2L78TgR134Cgx9+27c1m5g/u3Ol2cmSJlN9PrgOCAABIAAEgMCcE7AoMj5uU1MD/M5w4X3i7Wp6xKakbsa14x1aeizsEeB3lsObzEQSBIUiAJ/zhYPoDTifIJWJNxvYTXyegIFfNTAeSGHLWZ9J8m2PiT0nNMheEzvozeNuSWXMZNfgkILPxJg8JvZtj4k9LuyfvNkLj958+WjggbvdbiPzE6eW+0KyfuF7IAAEgAAQAALzkoBVQz1vU4f3hcfbw2ooZNdI9tg1tC/iDYjPDQglCE4QAk6dZNdkGwbFA2jWSx4Rrhxo1ksmLdeL3ekeI+sTGmKPkb3kNXBcfN+pfMbVDd1GpthjYjd4TOzpuH5j6xjgMEWxdrzn2T+jk9XlaOz8eYQQGkplHLgGCAABIAAEgMC8ImBRib5pVVOXrEQA4GNEBMTuHz8hQRCLAKE3QC85hN+i03lAj45hhALAbZA8Ntn9HiO7juQNCI4PTnZP/G98NT4Dc4/XwO7wGNnziYy+oG/kW6Qf733hSXSqvhqNX7qEjb7wv3GEUFrPHD8f+AwEgAAQAAJA4IoTaFRRe7HxF7ZYb0CcCNDQfBhAGBLgcwO0TK2b4z6a7gP4TNTNMSsHjMzGZH1gV7sgXBDKGzCxbye7Xvg9v+wQr7U3srvcRvai0MAnOvfdZUQ9z/8lZPQvTzD6QgGAz6EsrxA2nAMBIAAEgMD8JtCopEwWlRhZVBSy4hYSAtPwBlA2vA/AdJ4WJwq69MyZaD0BSWuiftw67rvNBua80FvgMjC1Aa32Q4mux9+5cpkvuo3sQ24jW+42sqOJDL3biHMPGISFhf/uXNT36nPojN2CxkdH4438ZJ9zks0BvgcCQAAIAAEgMK8IVJmoj1lU4u6QAIiKAIuKetSqplzEIxDrDcC5AXEeAS3ttqWQuDfZwzfpJQ68t31YBIwH4vaux5+bDUyL0PjjfQew9yC+X7eJ+1qznlncbGDqmw3MeMw9gvoE5HvfPfmod9kL6HSTDY2PjU1m5Cf7rSB+HvAZCAABIAAEgMC8JNCoFL3cqBSjRt4DgAUA32px9r5NTf2RCAB8jIiASH5ARAS04pUCM31Al06yObzjYGjrYZPk28I+XXpmbdRDwNcauOTUsxJyjdtI3cYbfT1TRQz7ZEfffxfyRv9Ukx2NXr6ExsbG0Pj4ON8ms/KT/PYzMhc4AgEgAASAABCYtwQaVCJxo1I8xguAqAg416ihvoEn3aAUf1cQEiChgagQCCUJdts1M1t2RwA16SRPR3YdxEsJBTsPOvX0T7E4EHgIsKfgRy4dt6DZwDzZrGf8ceKAeBJijt4fFKGela+gk81OdOniRXTp0iV0+fJlNDo6ygsAIgImMfLkp4vkRHB8gjwLHIEAEAACQAAIzEsCOGbeoBS5G7DhFzaF6BHhhC0qUXtcboBQCPQ7w2JBeM90z506+qGYugJayY9xX3gL3Cad5IKw0FCTXnLKqZd0RkXBBHEQMfzuRQbUtfRpNGxtROfPnUMXLlxAFy9eRBcvXooRAEQEYC9Agv8GEEK7EEKL/37MQAiJE1zz5nSfHe4DAkAACAABIHBFCDQocv7coBChBiVuYr41KsRH4ivXWdTi52LyA8IrBWxqatiqiXXRz3TiTp2kME4A/BFvM+zUSVonlB1OWHiIFCCSIFeBErU/9TgarCxFZ06eRGfPnkPnzp1D58+f5wXAhQtYAEQ9AJdHRyNegLAA6EEIrUUI3Y8Q+mb8syGEbkQIXY4TAXvjr4PPQAAIAAEgAATmDYEGmUhcrxCN1mMBQJpSNJgojm9RUHRUAESSBE81qkVZs/1ATi2VQ5YV4roCTVrmTadeskkoCuLPhSEDl0mGWn//K9S3bxc6OXQMnT59Gp05cwadOXsWnT17NiIAzl+4EPECkBDA5cuX+0ZHRzeOjY1hg39bKs+GEHLFCYCGVO6Da4AAEAACQAAIXHECVRT1sXq5qA0bf9IaFKLxeoVYn2gy2CPQqKKOCkTA2QaliE107Uy/c6mYLxIBED6eJp/5QkPCYkO6aBli70P3oeCmd9HxniA6cfIkOnnyFDp16lRUAJyJEwAhL0DbxYsX11y6dOn+8+fPf3k6c0cIvR0nAFqm0w/cAwSAABAAAkBgzgnUycWr6+QihBsRAPUK0fPJBsbr8xuVopLwSoGLVrVIk+zamX5v14gzE1UZJCJAeGz+fgFqX/4SGnA3o+PHj6ORkRF04sQJdOIEFgAnIwLg9OkzvBfg7Nmz4+fOnVt/7ty5hWfPnv3cTOeK70cI/SJOAAzORr/QBxAAAkAACACBWSVQIxPl18lzUKiFRYBcZMFbACcaqE6e/ZkGpXhHOElwtEFBFSe6bibfOVXMlx1aerFDQ3sn1BbAtQYEew84TTLkf/w3KHigBB0bHERDQ8NoeHg4IgBGRrAAOBERAKdOnY54AXAI4OzZc6Pnzp0rP3fu3K+m+9YvfFaEkCFOAFwS/g7nQAAIAAEgAASuOoFqmfhLtbKc4dqIAMBCQDRSw4m+lmhyDYqc4gaFaCiUKCgea1CK70503XS+w0bfrqEes6kpB9lvIGYHQmGRIS2DPL/6GerYthn19/SgwcFBdOzYMXTs2FCMADh+fGR8ZOREOxEAE8IAE/MAxi9cuFB+6dKlHyCE0i5djJ8bIfSfcQIAf/zIdJjAPUAACAABIAAEZp1AiVb7oVpZTkOtLAdFmjzncp08Wxk/WKWe/kS9QrSOhAf4/ABlzgPx16X7GScYWtXUI1Y1VZe0uFCkwBCFHHeaUMtrL6KeJic62t+P+vsH0MDAAC8ABiMCYIj3AAwfP46OHx/hSwefOHEiY+TkyaUnT54aIHkAp3Ei4JkzkUTAc+fPR1YDhFcCnLp06dJShNAX03kuvPkPQii+bODn0+kDrgUCQAAIAAEgMGcEaqSiV2pkOQg3IgDqpNk/jR8QC4I6uShYL8wPkOf8Jv66VD/zCYTqHIVFTW20qKhLyeoJEEFg10pQ8y8eQG3bt6Ce7iDq6+tDfUePoqNHsQDo5wXAwOAgGhzEHoBjaGhoCA0N4zAAnwMQs3kQQugDp06dMp06c2b36dNnxmIEwLlYASBYDnhxdHR0VTpCACHUHecFSGkFQaoM4TogAASAABAAAtMiUCXNKa6RZiO+hUVAjSznZWFnNSLRjfXynKfq5DljMfkBspzHhdeleo7f9i1K8WKLStwhWD1Aygzzmw4JxYDjnkLke/UF1OF0oGCwB/X09KLe3l7UiwVAX1QA9A9gLwAWAOEwABYA0TyAxcnmd/78+S+dPn36z2fPnu2bsh5AqCrgubGxsb8ghG5K1if5HiFUGycAKPIbHIEAEAACQAAIXBUClfKsr1dLs09WS7MRblgEVHM5/5+984Bu7Kr2fmiPFkp4EEuWIQECfARSJ1NSZyYFyAshoQQIgVAeBBJ6f8ADBh4Zjz0uM+69V7lLlqxqyZYlq9myumRZbpJ7793741zpytca2ZbrOMmZte667bT70yzf/91nn70FknPn3koOqPn8mdPNj56xE5aBzf4BV8gyweyJr/3HzjyueeJBpuaJB1Y2RRf83DW5BqDlqbNg+NNvoL2uFnq6u6Gntxd6e11eAeAGNxIAfaQAQCJgoNUzDUARABQ/gLGxsWumM/zHjawCs7OzLy4sLJhQQKCFhc3xAJaXV/zDArsAYNtVDwDA9RMAAZdT+o8Fn2MCmAAmgAlgAodCQPv4iffJzp22kC9/794qOXc3ka4Xef4rHjt9UfHomVVyWoDcKx87nYKW/wUzMO3jD35E/cT9/1Q/fr/bE1WQElmQGmLYe9z6gxfAnJ0GTpMZurq6obu7G7p7eqCnhxQALnC7SStA/9jAwECc2+2+G41lcHBo0ucHQEwDIAsA4QewNjk5eVMw40VlAOBNc4uLX1xYWGjyhQVe9gsLvLZGJgdCcYHTtnLuA4BCPwHwjWDHgcthApgAJoAJYAIHSgBl8ms6d5rbdO40oE2OtvOn+2WPnfwY6kjxyP13KM6f1vlNC5D+Afn+4YADDU792AMnlY8/UKJ6/P4VisMgNbLgRojhZx4Hw//9FewSMXQ4neDs7ITOzq6tBMBar9vd5HL1v9Tf3/8uat+Dg4NmJAAC+AEYqeV2c7y4uPj40tKSjuIHQIQEDpAXQA8At/q3DQAJfgLgO/5l8DkmgAlgApgAJnAkBGRnT0XLzp2CJmI7DU1nT4+hlz4SBvLzp/4gP39qkbQM+PkHVFKnB/wHi4RB8/kzX1I+dn9DgGBC1MBChBBo+f7zYMzLBLvJDA5HB3R0dHgEgJMUAF3QhSwA3T3Q29vb09PT84+urq5rXrLkOAYHB4WB/ADGxsZSyTJ72QPAm5eXl7+7vLzcizIDUrMD+qUHHgSAM9Q+AOBffgLgh9T7+BgTwAQwAUwAEzgSAk2PnPqu7OwpIDYkAM6empOdO/1Q87kzt8rPnZISFgGvTwApAoj9udMCtFww0CDRdcX5+19sfuyMZSOQEBFHgIgoSEQVJFcOfP5haP39L8BUXQk2ux3s9nZob3eAw+EABxIAHU5wEgKgEzq7upa6u7vZPT09z/37RerzSwg0BnRtcHCwkuoHQFkO+OJWdXZzHQDetbS0dGllZWWVtAAESA88CwCPkO0GEADXrK4gy+I9JoAJYAKYACZwKATQi77x7KklnwA4e2pedu7k47Lzp19qOndqhpwSIPcUAdCgffrEJnM7GiCKBKh47P5/Nj96ZoT0DyCdBTcHFDoD6q88CbroS2BWKsFqtYHVZgObbUMAtCMBQFgBCAFgcHZ1/dLtdv/nbkAMDg5WbYoH4PUDGB4eDhjMaDdtU8suLy+fWVtbM62u+vwA/D7yYQoATqM6/44FcMnv5qZ0ytR28TEmgAlgApgAJnDgBGQPnfpk4yOnRhrPngLvNi87e/o7jWdPcUhrwKZpAa9/gOzsaRVKEEQdEPIVkD96Kl1x/tQiGT+AGkOAKgbUP/oO6PKzwaQ3gNlsAYvFCharlRABpACwtxNWgKmOjo6Uzs7OPWcR7O8frPbFAyCWAxLxAFzUsR/UMQC8fXV1NTmABYB83w+heAEAEE1e8O73HDfhoMaO28EEMAFMABN4gxBofPieDzU8crK94ZGT0PjIKbQtNp49nd141iMIKBYBQCKAIgQMqsdO+b7CZY+f+Ij8/Omr2/gIeIIJfe4hUP/h16DjcsFgNIHRZAKTyUwIALPFQhUA6za7vdFut7/o79C3l59mYGCAhQSAnx9A/l7aCrbO6urqd9fX1+eRL0CAfyoASPW7/tdg28blMAFMABPABDCBPROQnLv9xoZHTmrQy5+yDRNCYMMaQFgF/ISADZn4UccoT4Ds/Om0pnOnl7fyEUDOgs1fewo0sZdBp1CAXm8AvcEIBqMRjEaPADCZLUAIAIu132azXbJarZ/c84MFqDgwMCC7Jizw8PB/Byh6oJcA4O719fUBvxc9ebpIHnj3/3egnePGMAFMABPABDABfwLIq1/68Mka6cMnAW0UAeA79hcCXhHQi176DY+c/LDs7OmrsnOnFnwrBrxTA1QhoPj+t0CTnQGtLS2g07VBW5se2ggBYACDwScA1oxms9BsNj+n1Wrf5j/WgzjvHxiwe8ICe/ICoOWAQ0NDxNLGg2h/uzYA4JMAgAID7fTv0nbt4HuYACaACWACmMC+CKBAPdJH7sskX/7Uvb8QaCSnBgiLwMm+xvMnz8rOnk6UnT216LMKbJ4aAPnnHoHmP/8BNFwutLS0QktrK7S26igCQE9YAUgBYDQaX97XAwVRub9/YIyaF2B4eLg3iGoHVgQAPgYA3TsogKgD6xA3hAlgApgAJoAJ+BOof/C+SMlD94HkYbR5LADbiQAkChofObnW+MgpceNZ5CPgcRb0CQDv0sGmLz0BzZdeBXVDA2g0WtBqW0CLBEDLhgDQIQtA24YA8E4DDJjN5g/4j/Ogzs1m83/09w+sDwwMEImBPH4AI3kH1X6w7XhTAKNVAFv9iwi2LVwOE8AEMAFMABPYFYH6h0/+rR69/Knbw/cR0wBUEYCO/a0BXiHgcRak+AjIvvEMKK7GglKuAJVaDWq1hhAAGkIAtPgEQKuuDXRtbaDX6zX+fgBGozlrVw+yi8Iul+sT3AhKkQAAIABJREFUKDsgEgCkH8Dw8PD3d9HEgRUFgGcAIKBX4L/zDbx6YB3hhjABTAATwAQwAZKA+IETP0cvf3LbJAK8FgF/EbCdEJC9+E2QZ6ZDs6IZmpUqUKpUoFJ5BIBaowWN1mMF8EwD6KBVR0wDqJVK5Xvb9IYBvWHDD8BoMq+bzebHyLEe5L6/v//z/umBBwcHP3qQfeymrX8vAczcwgTwz920g8tiApgAJoAJYAI7EhA/eOKH4gdPrIsfvA/q0baVECCmBbaxCJw/A42/fAWaystBLleAQtEMimalRwAoPQJApdbMqjUeK4BvGsDjB7DW1tZGrOXX6fWvICuAzw/AsxywQ6vVXhNUaMeH26GA2+1+2S89cPcOVQ7lNgDcDgAV21gA/nYoHeNGMQFMABPABN6YBMQP3fe8+METq+IHT4Bn84qA3QiBxx6Ehj/8GhpYLJA1yaGpSU4IADkpAJqVoFQqm1QqzfNqtfYf5DSATwAQfgBtGeQvgLz99XpjOxIAm5YDmiy5ZJmD2rv7+6Op6YGHhoayD6rtYNpBiYDW1tZy1tfXV7f48icv/yWY9nAZTAATwAQwAUxgRwLi+088J3rgxIroAfLlT91faw24xj/giYdA+offQENtLTQ0yqBR1gQyWRMhAJrkCpArmufk8uZ0uVxNpN1FDncqlbqfFACEH4CW8AMYb21t/RB1wHq9/mvUaQAUEMhkNoPJZH2JWm6/x66+Pr5HAHj9AAYGvrvfNoOpDwAhq6urcWtra0vbRAUkX/5o/8dg2sVlMAFMABPABDCBbQkIKC9/JADIbcMSQIqBAELg8+dA8tc/g4THA6m0AaQNjf4CwCGXN/9GJpPdRB2EUqn8TmA/gJYfU8uRx3qDoXpjGsAjAMxmy4LFYrmXLLPfvdvdN9jX1wekH0B/f/8t+21zu/oA8P6lpaVXV1ZWZlFiIDI5kF9EQOQIuER9+wPA77ZrF9/DBDABTAATwAR2JCC4/57nhfffuyp84ASgjXz5U/cBhcAXPwfiiHAQC4VQL5GCRCKlCoC1xsam2qampidRGtxAg1CpVK1IAKjUGqD4AdQDwJsClTebzTSDwTh6TVhgs9VpMBg2iYtA9Xe61tk5FOJ29wESAF4/AOdOdfZ6/9/Jfd6xuLj4+6WlpbHl5WUiNXCA9MDoxV/z7+0eAEDhgKn/cDKgvcLH9TABTAATwARuuEF45t6vC+6/d0V4/73g23YSAk89DqJLr4JIIASRuB7E9RKor5eQAmCsoaHxskwm2zZynkKhfkxJrAbwCgDPcsA5rVb78e1+F73e9E2qHwBKDOQJC2xrdLlc79yu7k73enr6nnC73eBGAqCPmALI3KnObu8jMbSwsPDiwsJiz+LiIiwtLQESAMvLK4QIoFgA2ABwgmwfAJqob38AOPSASGTfeI8JYAKYACbwOiPAP3PvC4L7710V3H8vkJtPBCBB4C8EnnkSBNGRIOALQSgUgVAk9ggAMRIA0pb6+oYfKBSKoF7CCoWy0bMcUO1bDqjRtAT1VWs0Gos38gJ4kgMR2QEttmoAeMtef6be3t7fuZAAIKwA/Wga4Nt7bStQvdnZ2c/Nz8+3zc8vwMLCApACYGkJCQCPFWB1dZWzvAwn/esDALKMUP+94F8Gn2MCmAAmgAlgAjsS4J259+v8M/eu8M/cCwK0UUQAOqYKAcEzT67xIy4Bj8cHPl8IAoEQBB4BsCgS1ReIRKL7d+yQUkAuVz3a7LccUK3WKLaaKqBUJQ71ev27jUaTjpodcCM9sDXNv3yw5y6XK29DAPSB2+0OC7buduXm5ubumZ2dFczNzcHc/DzMz8/7BMDi0hJhBVhaWuItLy+f2aodAOBR3/4A8KWtyuLrmAAmgAlgAphAQAJ1p+55nn/mnlX+mXsACQBy8xcC/Ke/sFgXHQVcbh3U8fjA4wuAjzaBsFcoFP9FJBIRWf4CdrLNRYVC2eCJB4CWAxLxAJDp//9tU+WaWxaL5Raj2TwcKD2w1WqP3sqP4JqGKBd6XS69y0VaAPraKbf2dDgxMXHL9PR03szMzNrs7CzMIgEwN7dZACwu8lZWVh7YqYMAAuDcTnXwfUwAE8AEMAFMwEeAf/qer/FO37PCO30P8AgBgETAZiHA//z56brwV4FTywUOtw64dTwkANbr6vjiujrhVyQSyVt9De7yoKmp6fzmeAAqUKrVr+yyGaK4wWB5xGQyL1HSA4PVagObzQ52uz01WIsCagwtSeztdS15BIAbOQLu2ZIwOTl50+Tk5OWpqemF6elpmJmZAUIAzPoEwPr8/Dxrfn6ZCHQUzLMDgMjPAnBgKx+C6R+XwQQwAUwAE3gNE+CdvuerdeTLHwkAciOFwLkHJjj/+Nsym10LtbVcqOUQAmC6ro6XUFsr/PR+Hx19lcvkChUhAFBIYM80AGcvX+vkWIxG41dMZvMKcgZE0wBIAFhtHhFgs7UXBitWuru77+ntdYHL5QI0DeBy7X7+v6ur6x2Tk5O/m5ycHJ+cnIKpqSkgBcDMzCwSAWtzc3MVaEqAHH+wewCQ+gmATwRbF5fDBDABTAATeAMTqDt511fqTt29XHf6HiA3UgDUPXRyuPZ//zJSU10DLHYtsNkcqK3lWDgczk9ramrec1DYGuXybxIBgTbCAg8plco9TSNQx2QymZ43my2rG34ApBWgHezt7YJgsgd2d/f+oLe3F3qRACCmAdyfpPax3TGyNIyPj397fHy8e2JiAiYmJmFyctInAKanZ9ZmZmaKZ2ZmPrtdO9vdC7AKYN/ctusP38MEMAFMABN4HRBAL3/uqbuXuafuhjpi84qAMydG2T9/xVZdXgnVNSyoYbGBxSIEAGs/X+WBkHG53LfLmhSdZFhglBegubn56UBl93LNZLJ+12yxrFqsHisAmgaw2e1IAEB7uwP9u327dnt7exMoAmAs2OcfGxt7YmxsTDc2Ngbj4+MwvlkArExNT+dNT0/vyr8h0DgBoM3PAhDUaotAbeFrmAAmgAlgAm8AAuxTd32Ze9Lz8kcCwCMC7lqoO/9wZGVZ+WJVVQ1UVdf4CQD2sweNpkEm+y01L0CTQply0H1YLJZnLRbrnG8aAAkAOyEAwOFwTHV0dHxjqz57enrkPcgCQEwD9PG2KkdeHx4evnt4eJg/MjIKo6OjgATAGBIA48gCMLE8OTmZMTk5uW1MA7KtYPYA0EMRAMvB1MFlMAFMABPABN6gBDin7voi5+TdS5yTdwMXbafuBs7pu4Xs03d/orKy8q7KymqorKreEAA1bGQFWGIymTceJLLGxsYPNcqaxil5AWx8vf7dB9kH2ZbFYjljtdqGST8AjwBoh3aHAxyODujo6MhzOBzvJcujPYod0N3TM9vT4xEAbrd7y1S7KDXw0NBQ/tDw8Nrw8AiMjIwQAmB0bAxGR8cXx8fHk5D3P7X9gzgGgGmKABg6iDZxG5gAJoAJYAKvQwLce+98lHPyrgXOybsACQDOybvHau+76yW44QYizG5FRc0jFZVVGwKgmuW1ArA0B42jsVGW1dgoIxIDyZrky3K5/JpANwfZp9lsvs1qtRk8qwEIPwA0DUAKAOhwOrs7Ozt96+i7u7s/3d3dAx4B0AvdbvdT/uMZHh6mDQwMxg8ODi4NDg3B0NAwUATA/Ojo2NXR0VGGf72DOAeAt61vTg6gP4h2cRuYACaACWACrzMCnBN3nq69767p2vvugtqTd61zTt2Vxz5x4oPUxywvr37aJwCqaqCanAZgs4up5fZ73NDQ8EBDQ+M6EgBEdkC5/EjS2Gq12nfZ7fZswg/ANw3QAY4OZAVwgtPZCZ2dXayenp7bu7u7X/AIgB5A0wADAwO+TIRdXV3vd7v7X+3vH5gdGBiAwcFBGBwkBcDwzMjIyOWhoaFDdcgDgJs3v/9BsN/fBdfHBDABTAATeJ0R4Jy44w72fXehr32oPXFXO7IEBHrEssrKrxACoLIaNvkB1LD/L1D5vVxjMplvkUobdA0b2QFl6Npe2tprHVt7+/ft9vZpZAEgpgEoAsDZ2QmdXV1rXV3d3RQB0In66u/vf5fL5fqju69vfFN6YI8AmBkcHLzY39+/SVTtdYw71QOAT/kJgLyd6uD7mAAmgAlgAm8gAuy77/4E+8RdA+wTd82z77v7Ave2296+1eOXVVY+QwoAqh9AdTXrh1vV2e31eqn0Fyg9sFcATDU0NHx0t20cRHmr1Xqr3W6v3/ADQBYAJxACoLMLurq6obu7G7p70DRAT3lvb+/LLperfyMsMJEXAPoHkBVgKOKoXvzks/87CuAZPwEQSd7De0wAE8AEMIE3OIHqk5/9MOvEnd2sE3dI2Cfu2HHZWVll5RcrKqrANw2ApgCqWVDFYn3vIFCKxeJbJBLpNBIAUmQBkMlePIh299oGWtbncDhedjg6JjqQFQAJAM80AHR1dUEXEgAeP4A1ynJAb2Kgvrn+/v7owcHBm/fa/37qra6u/hcSABQR8Nv9tIfrYgKYACaACbxOCFTeeefNrHvvbGDfd+eLpJPfTo9WWVn5hfKKyg0B4F0OWMVi/fdOdXe6j1629fUSnkQiBQkhAGSlO9U5qvudnZ0hjo6O3I4O57pHABDTAF4rAGEBIPwAPMsB3fNutzu2a3iYdlTjC9TP6urqD9fW1qgCAGcCDAQKX8MEMAFM4I1EgHnixPuq773j1/5OfjsxYDKrTvkEAOEH4FkOWFPD/tFOdXe6LxZLvldfL4F6jwBwyWSym3aqc1T3Ozo6bu7o6LjS0eFcQgIg8DRA71JPjyuut7c39KjGtV0/K2trF/wEwGPblcf3MAFMABPABN4ABPh33rmn9fQVFRW3EAKgogo2xQOoZv15P9gkEglNLK4fFyMBIJWuicUNAZ0Q99PHXuqazeYbbQ7HH9sdjilPPACnZxoAOQJe4wfQu+5yua6iBEF76eug66yurmb6CYDPHHQfuD1MABPABDCBNwgBJpP5TlIAbPYDqMndDwKRSMwSiesBCQCJpOHyfto6iLpoOaDNZvuj3W4f84YFpsYDQH4A0x4BsMkPALx+AKre3t4Di+a31+dZXV3lkwLA6wfwvr22hethApgAJoAJYAI3VFRUjvimAVBEQE88gOa9ohEKhT8SicTgFQBtKP7/Xtvabz2bzfYeq9X6P1arbciXF8AXD8Cx7ujoqOvo6Hiys7Pzz52e5YDID2CZshzQGxbYNeV2u7+z3/Hsp/7KyooZCQCvCBjdT1u4LiaACWACmAAmcENZeaXEJwA2wgJPBZtCl4pQLBZ/XCgUzQg9AmChvr7+upipDQbDTWaz+W9ms2XMPz0wigfgcDjibTbbp8ixO53OctIPoLOz+3c9PT1/7O7pWSTDApPpgd3uPoHL5bouKXhXV1enVld9AuDAIzWSLPAeE8AEMAFM4A1CoLy8Ip6cBqD6AVRWss7uBgEK7iMQCJsEQhEQAkBU/4vd1D+Isnq9/maj0fyq0WSaMpnMYDZbgJIe2G2z2f7gdDo3mc7RaoUOp7OfXA7odPbeh8bS29v72Z4eVyuaBiAEAJEeuA/6+voW/h0N8O8Oh+PILBsA8N6V1VVYXV0lLABra2vHZkXFQfxuuA1MABPABDCBLQiglxTatri9r8tlZRU/Li+vhE3xAKpqoKaGHbGbhvl84V/4AiEQAkAo4h3WeAONyWAw/L+2NkOqwWBcMBhNYDSZgBQAZovFaLVav7eVM19nZ+edlHgAE1TLh1arfVtPT88/el2uZRchANxIAEBfPwoKNOAcGBh4ESURCjSmg7y2tLT0mZWVFaoACD/I9nFbmAAmgAlgAseQQF5e3rsP82XKZDJvRwLANw2w4QdgDbZfPp//CI8vWPEKgBEej0c/CpRtbW3ndW1t7LY2/bpebwC9wQgGoxGMRiQALBKLxfJfOz1De0fH78m8AE6nM2AOBJfLdafL5W52u93gRgKgjxAAKF8ADAwOWgcGhr8OAG8+rGdeXV190k8AvHRYfeF2MQFMABPABI4BgaSkzE8hAXDYQykrq+jzCYANPwCoqan5wk598/n8m+t4/D4eXwBIAAiFwq/uVGc/95HpvbW19TstLbrWVp0OdLo2aGvTQxshAAyrBoOJaTQaCTN+MP20t3eoPQKACA38ra3qoBd8b1/fT93u/kkyL0A/EgADZGKgIcPg8PB/u1yud27Vxl6vLy8v/5gUAGgaYGVl5fG9toXrYQKYACaACRxjAmg+PSUl5YnU1NR3HcUwy8or80k/gM3LAdn12/V/4cKFN9fV1fHreHwgBABfULZd+f3cU6lUH9VotJe02pZhbUsrtLS2QmurTwDMtbW1JRgMho/tpo+Ojo7bKPEA5v39AwK1hQID9ff3l3mnAbwCYBCGfOmBh0dHRkYiJiYmbglUfy/XlpaWXkUCYGXF4wcAALt6zr30ietgApgAJoAJHDGB7OzsdySmpHzjKDPmlZeXf90zDUDJC+BND1xTU/PgVgi4XO5fuHU8IAQATzAqEokONCUu+upWqVRfVKk0HLVas6bRaEGrbQFCALQQAmBYp9P/XavV7ikjn93u+AcSACg9sMPhLNjqOQNdd7sHzvf397f50gNvCAAYGRmBkdHR1dHRMfHY2NiPpqen/zNQG8FeW15ezl8mBADhB7ACAG8Lti4uhwlgApgAJvAaIBAbG/v+xMTkX6emph7pH3giIFB55SR1GoCSHtiG7vvj43K5ZznculVCANTxoa5O8G3/Mns9R1/7CoXyb0qlqkupUoNKrQa1WgNIAGgIAdDSodXqXkEBfvbaB3L2a293uMn0wE6nc9ehdZEDYH9//48HBgeHBweHCCvA8PAwDCMBMDIKo6OjMDY2BmPj48vj45PcycnJH05MTNy62zEvLy83LC8vI9M/2my7rY/LYwKYACaACRxjAvHx8aGJickRcXFxR7a8jIqjvLwigyoAqOmBWSz2VWpZNO9fy+X2cbh1gAQAl8tjU+/v5VipVL5XplD8QK5QNigUzevNzUpoVqpAqVKBSuURAGpNi1qr1T53ENYRu93+5fb2dkACoKOjo2s/TnxdXRPvHxoaihgaGpobQgJgGAmAEUIAjCIBMDYO4+PjMDExAROTkzA5OeWYmppKnpmZ+drCwsJHduK1tLTURQqA1dXV8p3K4/uYACaACWACrxECCQkJn4xPSGInJibeeL2GzGRWPhTYD4AF1TWs9ZqaWuILH83719ZyBLUcLhACgMub4XK5YXsZN1pm19TU9KRMJi+SNcnnm+QKkMsVoFA0g4IUAErVmlqtrmnWaM7tpY+t6tjtdvlGWGDn37cqt5vrIyMj9KGh4YShoZEl7zQAjI4iATC2IQAmkACYhKmpKZienobp6RmYmZkZmZ2d5c/Pz1+anV341vz8/P1zc3PESgpkZVhaWlomBcDKysqF3YwJl8UEMAFMABM4pgRiEhI+Exef2I5EwPUeYnl5hdxnBfAuB6yqrkECAGrY7GU2m/19Npvzv+xaDhACgFMHXC73j7sZN5utfVd9Q8NXpNLG/IaGxvHGRhk0yppA1iSHpiY5IQDkHgEwrlAoL6PpgN20H0xZm832qM1uB7snLPCa1dq1a7P8dv0MDAzcOjw8nDMyMrpCFQDj4xOEFYAUAFNTSABMIwEAs7OzMDs7B3NzczA/Pw8LCwuwsLC4sLi4aF9aWgIkAJaXCR+A57brG9/DBDABTAATeA0QiE5I+OTVuPj++Pj4Lx2H4ZaXVz/tEwBEeuAa8AmAGjawWGxgsWvXCAFQywUOh2tnMpk7ZsuTSCQfFIul35FIJJX1UumcRNoAUmkjNDQ0QgMpAGRNhABokisMCoXypf3M7+/E0mqziVFuACQAHA5H1U7l93p/YGDi1tHR0bixsbG5sXE0DbAhACanpnxWACQAZggBMOsTAPOEAFiAxcVFQAJgiRAAy+j403sdD66HCWACmAAmcAwIxMbG3nrlarzralxC0jEYDjEEFDSnvKJSj6ICUsMCV1ezUGRAqPEIAGCzOVBby0Ff/08GGrtIJPpPgUDwZYFAdFUoEhtE4vp1sTc7YL1ECh4B0ADSDQEw39TUlN/YqNhV+OFAfe90zWq1PmC12YAiAO7fqc5+709PT39wbGzswvj4+AjFD8AnAKaRAJhBFgCPAJibn/dZAXwCwGMFWASAt+53PLg+JoAJYAKYwHUiEJ6UdFPMlTjzlavxg8jz/zoNI2C3lZWVj24KC4ymAKoJP4BNAoDN4bBQA2w2+10cjuA+Lpf3ozo+P5HH5+v5fMGagAwLjBIDicSwSQBIpCCVNiALgFba2PiyRCI5MgYWm41jtXoEgM3WLg0I4ZAuAsDbx8fHn5+YmJRMTk6u+/kBbAiAuc0CYHFxibACLC8v6w9paLhZTAATwAQwgcMmcOHChf+IiY2TxF6Jg9i4uBcOu7+9tF9eWVnqCwhURZkGQBYAVi2aBgB2Lcdey+H2cwg/AM9qAG88AOB7owJ68gJ4BIA3PTDU10tG6uulcfX1srv2Mrb91LFYLGcsFus6KQDsdntAC8Z++gi27vT09KcmJycjpqamnTv4AfimAZaXlwuDbR+XwwQwAUwAEzhmBKJiriTHxF6FmCtX5TvFqb9eQ6+urv5wRWX1ApoGoMQDIKYBvH4ASABArccPwLMaAAUEquMDj4wKiCwAAhEIieyAon6RqD5RLBY/ehBL+PbCBbE2my3NlPTAbceF/+zs7F0zMzMXZmZnW2ZnZ1dIR8Br/ABWVv60l2fHdTABTAATwASuM4HLMTHfj465AoQAiLn65es8nE3dM5nM25jMipfKyitLyysqh4P1A6AsB4Q6MiogsgDwRV18vjBWKBQ+hJYObursOpyYzeYXNqcHtm4Z9/86DM/XJQC8e2Fh4ezcwkIduRqA9ANYXFz8vK8gPsAEMAFMABN4bRCIioq6PSr6ygISALGxVzqu15cwSSs/v4JeVFr67ZLS0qwSZlk3k1kOzLJyKCuv8GQGrKCEBd7KD4BcDogCAnHrXNw6PpPH4/1EIBB8guznOOzRigKTyexCAsBssYLFajUfRRrf3T77xMTE+2dnZ381Pz9vm7vGD2BxHQA+sNs2cXlMABPABDCB60gAhfa9HB3TEhUdC9ExsRAVe/XnRz2cwsLCmwoKir9cWFwcX1RUYikqLoXiklIoKWVCaWkZlDLLNgRAgPTAvuWAm/0AUDyA7r0GAjoqBkaj8YLJZAaPALCA2Wx75qj6DqafycnJ+6anpzNnZmbmtogHgPwA2oNpC5fBBDABTAATOEYEIqNi/nY5KgaiotEWuxoVFbWn5DW7eSSUSTAnp+BzeXkFEXn5hZr8gsLVgsIiKCwshsKiEigqLvEIgBImlFAFQFkFlFEFACU9MBEQiLoc0OsHUFtb99+7GdtRljUajR82Gk1zSACYzEgEmJuOsv+t+kIJfaampr45OTmlIlcDEPEAKMsB0RTA/DwKCERsu0pWtFW/+DomgAlgApjAERGIjIz8eOTl6AUkAAgREBWrOIyukZUhMzP3oaycvL9l5+Q25OTmLeXm5kNuXgHk5RdAfkEhFBQUQQEhAIo9AoCwAiABwPRYAJjlY8yyilpmeUUbGRb42ngArE3LAVE8gFoOdwzlBziM59pvm0ajkWU0msBoMoHHCmB+aL9t7qc+MvOPj4//YWJiotebF8AvHoAnKiByBPSLB/DL/fSL62ICmAAmgAkcMYGIyCh25OVoQBsSANHRsX89iCEgx7qMjIx70tMzf5uRmcXNzMyZyczKgazsXMjOyYWcnDzIoQqA/ELIJwRAERQWFUNRUcl6UXGJtaikNKuYyfxvJpN5O/KKR1nyyssrelF64E3xAIj0wJR4AKxaYHuWAxJhgWtr647dF6rBYPiWwWAEw4YAqDkI9ntpY3h4+LbR0fH4sbGxGZQYaBwlBqLkBZjayAuA4gHoZ+fm6sjVAMgCgPID7KVfXAcTwAQwAUzgOhC4GBn5YERkFESizSsAYmJi7tvrUJKSMj+Vmpr6clpaellqesZoWnompGdkQkZmFmRkZoNHAOQQAiDbJwDyCQtAXn7hXH5+kbSwsPjVgoKSL+bmVgbMUV9aXv4s4QhInQbw5AVoq6pmqYhpgGv9AMATD4D74l6f7aDr6fX6m/V644ieEABGMBrNq2az+TMH3c9O7Q0NDT0wMjJSNTIyukZJDxwgLPD00tTUVPH09DRhoZibm0ukCIBlALgmJfNOfeP7mAAmgAlgAteJwKXIy+KIyMtAiACPAFhFgYCCHU5cXHpYYmLKi4lJKbnJyamu5JQ0SElFWzqkpmVAWnoGIQDSM0gBkA1Z2TmQTVgB8npzcvKKc/LyfpGXl3cf+rIPpl9mWZmgjPAD8K4GqPSEBa6oqHmqooJzSzWLNbYpLDDpB+DJDjjH4XDuCKafwy7T1qYvadMbQG8wAGEFMJgSDrtPsn1kSRkcHHx6aGhItlN64MnJSdfU1NT/zs7O0sj6aD83NycjBcD8/GIL9R4+xgQwAUwAEzjGBMLDo++5FHEZ0EYRAJ3bDTkhIeE/4+ISvxYXl5SUkJBkS0hMgoTEZEhMSoGk5FRITkGbnwAgrABZyxmZ2aqsrOwrmZk5X09PL9hTet6SkpJPMpnl60yqAPAsB5SR466pqXmKSA/slxeAEg/AzuVy30uWvx57nU73bFubHtr0etDrCQEwqNPpDj3csNls/o+BgYHvDgwMmgYHB2FoaAiGhoZheHgEUHpgZAHwZAccXx8bGxNNTEx8JVBsfyQg/r0ccJLwA5gjMgMem3wR1+P3xH1iApgAJvCaInDpUkRG+KXITQIgMjJaQH2IxMTEG2Nj45+MjY2/fOVqXOuVq/FrV+MSIC4+EeITEiEhgSoAUiCZEAGEABhJTU1npaVl/CklI+MR5PFPbXevxyUl5fErWdQdAAAgAElEQVSl1HgAxDRAFZRVVz9MbbOaxfozkRjIzw9gIyxwHT+YLIHUNg/quLW19UM6XVu/DgmANo8AMBqN3zmo9gO1MzIy8h632/2bvr5+V3//AAwMDAASAIM+ATBMCICR0dHJ0dHxuNHR0f8XqB3y2sTExK3EckDkCOhJD/w8eQ/vMQFMABPABI4xgZiYmHdeDI+YoQoAZAWIuBydERV15ZGoqJh/REXHyqJjriyjqIAoL8AVtF2NB58AIEQAIQDWEpNSTElJyemJyWnfQ34Ah/HoxcXFoaWlZQu+eABlFYAcAcsrqjiB+qupYWdS8gIECAssKD3qCIDoy7mlRVfbqmsDXVsbKQCk6HqgZ9jvtc7OzpDeXverbrd73N3XB319/dDf308IgAEkAAaRBWAIhoeHDUMjIz8ZHh6+MZg+Z2ZmvuqXHpgRTD1cBhPABDABTOA6E7h4MeLZi+ER4BMAm6cBIIqICYCCAnnCAseSIsAjAGbi4hPEV+MT/xkfn/TkUWULLClhxvuWA6KIgJ5pgNXy8vI7A+FMTdW+rYbNFnoTAxECwDcNQOQF4AGXJ0gOVPewrmm1ul+2tOqgVacDnY4QAMttbW0H7vjncrlu6+npTe7tdS24XC5wud3gdm8IgP4BZAUYXBocHCwZHh5+ZLfPOz09fZlMDzw7O4sDAO0WIC6PCWACmMD1InDxUkQaVQBs9gPwLAf0RAVEAuBKV8yVq4VXrsT9LC4u7p4LFy4E5ax3kM9WUFARVlzCXPAJAO80QHl5xbZzz3w+/92s2tomNpvjSQ7kcQQELpcHXF9eAH7SUVgCNBrNPdqW1sWW1lZobfUIAF1bW8RBcnI6nfd1d3czu7t7Vnt6eqG3txd6kQBwkQKgD/r6+90DAwN/HRkZoe+17+npGRkKCoSmAebm5tL32g6uhwlgApgAJnDEBC6GR1pJAeCzAniWAi5FRkY3R0bFxERHX/lqRER86BEPLWB3hcWlCZvDAqO8ABXjRUXsHSMWIoc/NpujJrIDIgEQID2wQCAoPUyfALPZfKNGq7VrW1qhpcUjANra2qwKheJAls51dnZ+rrOzU9TZ1QVdXd3Q3d0DPT090IMEQC8hANbdbrfY1d//1UBOfQGhb3ERRQicnp6eJwXA7Ozst7coii9jApgAJoAJHCcCly5det/F8Ih1JABIEUBaACIioh87TmNFY8nPZ95WVFyySAgASljgsrKKoPMV1NbW3sSu5ai2Tw8sENTUNL3nMJ5fo9HmarQtoNW2kAJgRavXn95PX2jZZHu783mn06lzOjvB2dkJnZ0bAqAbCYCe3qneXld8d3f3p/fTF7Xu1NTUqenpaSDCAs/OogBAH6bex8eYACaACWACx5TAvyIi7iNf/lQBgETA5cuXj1UKYISwoKi4lsgLUFwKJYQAIMICm1Fo4d0gRtMBHA6H7+8HUMfjAw+lBxYIQSAQ2kUi0e27aXenshqN5mdqjRY0Wq1PALS06F7dqd5W9x0Ox9vtdvuLDofD7nB0QEeHE5xOp58A6Lb19PT8saur68CXFk5OTv4FCYDpmRkkApxbjRNfxwQwAUwAEzhmBC5ejPjKNQLAuxwwMjL6e8dpuEVFRU8TYYFRYqCN7IDrxWVl5/YyTolE8g4Oh1vFIdIDU/0ABMAnRYBQNCWor//SXtr3r6NWq8+q1JpltUYDGo1HAGhbWg3oJe5fdqdzu93+Qbvd/ne73T5ib2+H9nYHeARAB3QgAeDsXO7s7Crt6uo6u1Nb+7k/OTkpJQTANOEDkLWftnBdTAATwAQwgSMkcPFixPf9BYDPD+Dy5V8d4VC27So7O/sdBYVFTm9eAPClBy5hZmxbcYebTCbzLVxuXRwhAkhHQN4mAQBCoWhdLBaH78cvQC6X36JSqYdVag2o1R4BoNG2LCNnwB2GuOm21Wq91Wq1xlmttlmbzQ42ux3s9g0B4Ojo6Pu3BeDv3d3de3bq29ThNidomeDU1NTS1NQ0IBEwOzt7bEIrbzNsfAsTwAQwAUwAEQgPj3iFKgA2TQNERv3juFDKLyz8e4D0wINMJvMDBzFGDof3U24db6Wujg+8TdMAIiQAQCgSg0gsbq2vr9/1Mj2tVvuuZpWqValSg0qlJgQAmgZQa7W/C3bsJpPpLpPZXGg2W1YsFitYrTaw2myARIBXAEgcDsdzWq12V1MhwfYfqNzU1NRTk5NTZHbA9bm5uUMXHYHGga9hApgAJoAJ7IHAq+GR39tKAERERBbtockDr5KXl/fZ/PzCRf/0wCUlJd88yM44HN4XeDzehM8PgE/4AYCAFACiehCL6xdE9fW/QZaDYPpGQX2am5UlzUoVKJUqnwBQabTVwQT8MZlM5w0GU53RZFr3pAe2ABIAFishAqZttvYkh8Oxa1ESzNh3KjMxMXGVFABTU1OtO5XH9zEBTAATwASOEYHw8MtfDiQA0DRAeMRl/fUeKjK75+Xnt+Zfmx44YMS//Y6Xy+V+vI7HbyMcATf8ADwWAMIKUA/iegnUS6Sa+vr6Ezv1p1AoLiualdCsVPoEgEqt6ZQZDDdtVReJC53B8JzBYFD7pQcGs9kCZgvx76cOh+O65jCYnJy0TE5OkhaAi1s9D76OCWACmAAmcAwJvPpq5L3XCgBfVMDF6xHoh4opJy/vX3n5BbBZAJRMFBcXH9pyM+QcyOfzM3yrAZAFQCgCEVUA1EtAKpWu1Usb80QiUcBUxXK5/BW5ohkIAdDsEwCLSqUyoHCw2WzvadHpXtK1tdnJvAAb6YFNayaThW2xWB4PxnJAZXgYx2NjY2ETExNAEQCb8i8cRp+4TUwAE8AEMIEDJBAREfGei+ERa9eKAE9ioItRUdsmgjnAoVzTVF5e3uncvPyVvLwCyCMsAIXg8QMoeeGawodwgScQ/JAvEM4IBFQ/AGIaAOo9VgCQSBtAKm0YkkobX6amMJbL5d9skivWCAGgaIZmwgqApgA0P/Yfqkql/2hLiy6mpVU3RQkLTGQG1BsMAwaD6Z9tbW3HKr7+2NjYD0gBMDk5NYkCAvk/Fz7HBDABTAATOOYELoZH6LcSAJcuXf7R9Rh+IpN5Y05unj03Nx9yCQFQAPkFhVBQUMw8yvHweLzbBAJhs58fADkNABKJFAkAkDY0QoNMZm1sbHymsbHxMVmTfKlJrgC5XAEK0gqgUkVTx67RaB7UaFrKtdqWVRQRkMgL4A0L3Naml+n1+m+ilL3UOsfleGJiohwJgImJSWQFKD8u48LjwAQwAUwAE9gFgYsXL8UFEgAeP4DIml00dSBFkYk7OzeXmZOTBzmEAMgHzzRAwUBRUdGO4X4PZBCURtCXvUAg+ptQKF7ZPA0gJQQAYQVAAqBBBo2NMmiUNa3KmuTQ1CTfEABKJRMA3qzX69+tVKpfUqk1OnI5IIoI6A0LPKvT6VJbWowBExpRhnRdDwcHB989Pj4+N74hAH54XQeEO8cEMAFMABPYG4FXX4047y8A0Lk3HsDshQsX3rG3lvdWKzMn57fZ2bmQTRUAeQXreXmF/7W3Fg+mllgsPiUUie0isdcRkDoNQAiARlIAAFUAyOXNMoVCcU9zsypOqVRNEssB1Z7lgCggkEbbYtNqtb/UarXvO5iRHm4rY2NjXxsbH4fxcWQBmADkD3C4PeLWMQFMABPABA6FAPI6vxh+ye0vAsiAQJeiop48lI4DNJqVlXU2KydnJcsnAPIgNy8f8vLyYwIUP/JLKISwUCxJFovr1/38AKABiQCPBQBksibCAoCmAZoUzXqFonmd9ANQqojlgKsajaZKo9E8cRyc+nYDcmRsrGRsDAmAcSQADLupi8tiApgAJoAJHDMC4eERf91SAERcLj6K4ebm5jIys7IHs7JywCMAciEnNw+9/NX7icJ3GGOvr6+P8C4H3OwHgARAo4wQAIQVwN8PQKlaVSqV4Vqt9iOHMa7DbtPlcr1zdHRsZmxsjBQA/zzsPnH7mAAmgAlgAodI4PLlyzdfDI+YoYoAwgfAkxdgKTIyknaI3d+Ql5f37szMLHVmZjZkEgIgB7JzciEnJ28iLy/vo4fZd7BtC4XC9wmF4p+JRGLTxjSAvx/AFtMApCMgsRxQLdBqta/JqHmjo6PPjo6OIbM/KQB2Fco4WNa4HCaACWACmMARErh4MTKcKgDQMTkNEBEZFXVYQ0FTEOkZWayMjCzIoAqA7FzIys392mH1G2y7PB7vXj5fmCYQiGY3wgKj5YASv+WAjSOBpgHQSgDqckAUEVCpUg+pVKpvvebM/yOjBaOjo4QAGBsf7wqWIS6HCWACmAAmcIwJXLgQ+/6L4REDVBFACoBLEZfnYmJiDmUtemp6ZkJ6eiak+wRANhDTAFl5V68Xrtra2pvq6upeqavja3wBgVCKYDIsMHIE9DgDdkskDeENDQ13SCQNFwIJAGI5oMKzHNDPDwDlBZCoVK13Xa/n3E2/KGvhyMjIJBIAo2PICjBxLPwydvMMuCwmgAlgApjAFgTCwyNeuFYAeIICRURElW5Rbc+X09IyfpeWngFpPgGQBZlZ2ZCRldOYmpp6pMFlkCWitrbu81xuXTGXy1vgktkBUUhgvgAEpAAQi4dFIlFifX39g9QveKm0oZmIB7DZD2D9mngAlLwARHZAjWZdo9FUtLS0HOvlfyMjI18cGRmBESQARokpABz9b8//83FFTAATwASOIYGL4RFFpAig+AFARGQURERFPXtQQ05OS/tmalr6WmoaKQAyISMzCzIzs93p6ekhB9XPTu2wWKzPsNmci+xajquWwwUOpw643DrwCQBPeuAZvkCUzxeLn6RG/CPblslkN0mkDauEAGig+AHIFC/J5fIfyeUKl39YYM9ywE3pgdc1LS0irVb3LBIjZNvHZT80NFRICIARQgAMAsCxG+NxYYXHgQlgApjAa5LAhQsXbrwYHmmlioBLEZc9AiAyajQ6OnrfcfiTUlOfTUlNW05NTYdNAiAjazE9PfvMYYOrqqq6tbqa9T81NWw9i8UGFrsW2LUcqK1FAoALHI8AWKqr49XU1fG/yWaz37XdmOrrG77uDQtMXQ7YTabnRfkF5HLlb+Xy5pGNaYCN9MDeeACAggKhqICtrbr+1ta2+NZWwyMogNB2fR/FveHh4RuHh4dnh4dHYGSE8AFIO4p+cR+YACaACWACR0zg1Vcvf/ZieMQcEgEUPwBCBFy+HN2GcgjsdUhJSWlPJqekLqWkpEGKTwBkAPIDSMvMPrTQwxUVFfSqqpqfVVRVy6uqa9arq1lQU8OGGlIAsJEA4CzWcji1HA7v+zwe7wPBPmO9pIEnkRB5ATxhgYlpgMaX/esrlcr3Njc3/2+zUt1HTQ+sJgICaX0CgAgLrNOBTtcGbW2G/rY2Q7zBYDgbyPrg38dhnA8NDb0wNDwMHgEwglYAHFlsiMN4HtwmJoAJYAKYwDYEwsMjn0eJgvynASIvR0NkZLTowoXUbb+KAzWdkJDyWFJyykJyciok+wRAOqSlEQLgwJ3+mEzmR8oqKn5VUVEpq6ioWquorILKqmqoqq4BJACqa1hIAMzXsGsr2WzuC2ipX6Bxb3dN0NDwiXqJdH1TXoAGmZvL5b59q3rIMtDcrP6GSqWSef0AAFkBfGGBWwkrACEAdG16aNPrieRABoNxxmg08Yxm85+MRuMDpIVhq34O6vrQ0BB3aAgJgGFAjoAAcCxzFBzU8+J2MAFMABN4wxMID498KfxS5DppBUB+AJGX0RYNly/HSC9duhT0CzMuKenhxKSU2aTkFEjyCYA0SE0jBADnoOa9mUzmp0pLy/5YymSqmWXl62XlFVBeXgnlFZXgEwBVNTNV1aySmpqa51B0v/380OL6+hgUFRAJAEpegJeCbVOj0dyj0WiSNRrtqIbIC+CbBoBWXRvo2pAVwCMAKOmBwWQyg9lsmTVbLEKz2Rpus9meczgcH6c6JgY7hu3KDQ4O3jw4OLRCCoDh0dHs7crje5gAJoAJYAKvEwKvhkf+mioAPCIgGi5HxUBUVIwtOjr6kzs9akJCyhMJiUmziUnJkJi0WQCkpKYb4uIK3rtTG1vdz87OfkdRUdEXikpK4opLSjtKSphQUloGpcwyYJaVQ1lZBRAioKJyoqKqKq+ykvVMdrbkQPIbSCSSG8Xi+nG/sMDmvZjq0de8RtP6pFarzW1paZ3aPA1ACgADGAxGMBpNhAAwmQkRABaLFaxWG1htNrDZ7JPt7e2S9nZHrN3h+KHD4bi/q6vr/Vvx2+n6wMDAzwYHh2BoaIiwAAwNjX1upzr4PiaACWACmMDrhEB4xOW/IEdA0hmQsABExXhEQHTsTFRs7JYZ4eLjk56NT0haTEhMgsREqgBIhZSUtMGEjIxbdoupsLDwlryCgp8UFBSzCwqL5wqLiqGouASKi0uhmBAATI8AYJa7SssqUpiVlV84jHDCQqH4gjceANQjCwCxyb642+fxL4+cBlta9E+3tuqSdLq2TmQBoEwDEALAaPKIALPZQggAi9UjAmw2O9jt7WBvb4f2dgc4HB3Q0eGEDqfT7XR2Cjs7u652dXX9uKur66zDMfAh/779zwcGBhWDg4OEABgaGsbe//6A8DkmgAlgAq93Amg64FLE5RXSAkCKgKjoWIiOuQJRMVeFUXFxt1M5XImP/3ZcfOJKfEIiJCQkQYJPAKRAcnLqXGpq6mlq+a2OL0gkb83Lyzubk1MQkZtXYPSkBy6E/IIiKCgsAkIAFJVAUXHpanFxqaK4tPTPTCbz7q3aO4jrEomEJhKJZ6hhgaVSqfgg2vZvQ6/Xf0qn1/9KrzdwDQbjlMFoAqoAMFssQBUANrt9kwBwdHQgAQBOZyd0dnZBV1cXdHV3Q3d3D/T09I729vY2ulyuVLfb/av+/v7P9ff3E6JsaGjo4wMDA+tIAAwODcHg4PCB+2n4Pys+xwQwAUwAEziGBC5divr8pcioqUjCF8A7DYAEgFcExMReXY69GpcZE5N429Wr8T+5GpewFhefCPFo8wmAZEhKSllJTk7b9ks5IyPjtszs7B9lZecys3NyJzalB84vgLx8nwAYLCwqKigqKv12UVHRB48Km0AgShGKxEARAEsiUeMmAXQYY0G+Emaz+W6j0fxzs9lcajJZ3IQAoE4DIAFgJy0ADiAEQAcpADqhEwmALlIA9EBPby/09rrA5XKD2+0Gd18f9PX1z/T3D/QODAzAABIAg0gADAYl2A7juXGbmAAmgAlgAteZwKVLMXdEREb1blgAYoC0AsTEXoXYK2iLW71yNX79alwCxMWjbbMASEhKvWbKID09PSw9PfPF9IysnPSMrB5PXoBsyMrOgezN6YHn8vIKeHkFBb/NLSq686Cd3oLBKxKJbhcKRSs+AUCEBpb8K5i6h1HGbrczzGbbMxaL7V9Wm41vs9nHPAKgHdodG9MATmQF6CStAEgAdEN3D2EF8AoAF7iQAHATAgD6+/uhHwmAAUIAdFwP1ofBC7eJCWACmAAmsEcCKHtg5OXoOuQISDgD+iwAV8AjAuLgytV4uBqHNqoAIPwA/o66TU5OvjklJeUbyalpKSmpGe2egECeeACevACesMBZWTmzWdm54uzs3AtZeXmPxsXFbbm8bo+Ps6tq6AuczxcqfHkBRERegA6FQvHOXTV0yIWtVuutdrv9WbvdccHh6Kjp6HD2bDMNAL3ICuAirQBIAPRBHxIA/R4BMDAwgFP/HvJvhpvHBDABTOA1QQB9DUZExfz2clTMEmkBQL4AGwKAFAGkACD8AOwJiclXE5NSjEnJKeuB4gGkpWeOZGRk1aRnZv4WRQU86pwAO8EXCAS/4ZN5AYRiEInE6yKR5PGd6h2H+y6X6wNOp/Oxzs7u33Z2d+d3dXWbPX4A104DEAKgjxQAA8ga8Onj8Ax4DJgAJoAJYALHhEBUVNSJqJjYdlIE+ATAFaoASAjkB4DiAUwlp6Q1JaemX01JSX8xLS3tM8fZzCwSiT7G4wtmCQEgEAFKDywS1Scck58i6GE4HI73dnZ2vtTV1W3ZSgB4/QCIaYCBgYGWoBvHBTEBTAATwATeOARQaODo6Jir0TFXVgkBQPgCUATApmmAZGI5YEJSStxxftn7/3pobX8djyfbnB5Y6NhvICH/fg7z3OFwfMbpdCY7OztnPasBgvQD6O//9WGOC7eNCWACmAAm8BonEBMTcyom9orOZwXYwg+AXA6YmJwmSE5OZrwWHpvL412q4/GBEAB8IUoPvMoXix847mNHWfvs9o4vOxwd4o5tlwP2TLtcLmYAP4ClgYGd4wUcdw54fJgAJoAJYAKHTODChQtvjbkS9/vYK3FzV65SrADESgDqagAUEZCICjiWnJz29UMe1r6a53B4z3DreOuEAPCkBwY+X3hhX40ecmWbzfYpq90ebre3u8mAQAGWA652dfXwuru7X+jv739XT0/Pc/7LAd3u/opDHipuHhPABDABTOD1RCAqIeGW2KtxBVeuxq+RywEDxAOg5AVIZWXsISrgYTPj8Xi3cbi8CW4dD+rq+MDj8aGOLxAfVO6Cgxy/0+l8n9Vqfclqtcm9YYF98QA2LwfsNHZ0dv6+t7c3lNp/d3dvsUcAuDzxANx94HYPPEUtg48xAUwAE8AEMIGgCFy9evXElbgEcdwmP4CAYYFReuDZ1PTM3x8Xz/+ampr3cDhcPYdbB1wuEgA8qOPxB0QiUUhQD38EhZAQMRqNnzOazQVms2Ue5QUgogJ68gJshAV2OIY6OjquOByOewMNq6ur6x09PT3TpADwxgPoA4C3BiqPr2ECmAAmgAlgAkERiItLeiouPtHkiQjoFxY4xS89cHqGKS0ta9tIgUF1uo9CKDkPu5bLq+VwgRQA3DreCo/HO7+PZg+kKnJINBgMjxsMplSj0TSyOSywVwBYicRAi+3t7WUOh+PpnVIH9/b2fqmnB0UE3IgH0NfXd+lABowbwQQwAUwAE3hjE7hw4cKb4+MTvxGXkKQnHQE3pwdOJ9IDe4ICZUJ6eqY0KyvruoSfZbNrM9m1HCAEAKeOEAF1dfzr5g2PXvo6ne4JnV6f1tamH9HrPZkBDcaN7IAoMZDZYlk1m631Vqv1xwaD4aZg/8d1dfXk9qCogBthgdf7+vo+FWx9XA4TwAQwAUwAE9iRAFr+l5CQ8kxiYrLGPz1waioSARmQlp4J6RmZkJGRtZ6emVWZnpNzYseGD6gAi8X6G4tdC4QAqOUCh7AC8HIPqPmgm2lqanqPRtP61ZYWXVZrq26kVacDna4NUHZAJAD0BjI9sHnVZLJITBbLK0ajcdfTE2az+T+6u7vHqWGBe3t7m4IeKC6ICWACmAAmgAnslkBiYsoXkpLTJMkpRHpg5AfgFQDUsMDZkJmVDVlZ2bysrLyzu+1jN+Wrq9k/rWGx1wkBwOZALWEF4KhQit7dtLPXsgpFy20ajeZXak2LUKPRLmm1LdDS0gotrTpobd0QAG16w6rBYJDo9aZXzGYzba/9oXrd3d1PUbIDeqYBent/sJ82cV1MABPABDABTCAoAikpKXclpaRlpKSmL6SmpUOazwqQBRmZWZCZiURADmShxEDZucrs7LzvHHRegOpq1o+ra1jrNSw2sFi1wGZzgM3h9LLZ7EOLVaDX69+tUCi+0KxSRSuVKptKpQaVWgNqjQY0Gi0gAaAlBEArEgBrOp1eqtMZfrrflz71R+nu7s6jCgDkDDg8PHwjtQw+xgQwAUwAE8AEDpVAamrqB1PT0/+cmpbu9k0DZCIRQAqAHMjOyQVveuDh3Nz8S3l5eR/d76AqK2t+UFVds1ZdwwJSALDYtRMsFu8z+22bWh854zU1NT0sk8kvyOWKRrmieVnRrITmZiUolSpQEgJADWq1RwBotC1rLS0t0paWlp+q1ep9felTx0Eeu1yud3Z2dU1R0wN39/YmkffxHhPABDABTAATOFICaClgWlrml9MyMmvTM7JWt0kPDHl5Bev5+YUN+flFP8zOzn7/bgdaWVn9/cqq6rWq6hogBEANG4mARRaLte/pBqbZ/B9SqfT+xsbG3zc2yuoaZU2zMlkTNDXJoUmuALmiGRSKZkIANJMCQKWeVqs15RqN5gdKpXLXc/q7eX6n0/kV/7DALpfrjt20gctiApgAJoAJYAKHQiA5N5eRnpXzl4ys7I4schogJxdycvMgNzcfcvMKIC+/APILCqGgoGihsLCkvKio6Hkmk/m+nQZUWVn964rKqvXKqmogBEA1C4mANRaLtafohEKh8H1isfhJsVjyr3qptEEikc5LpQ0gbWiEhkYZNDbKAAkAGSkA5ApCACiale1KpTq2uVnzOHLK22ncB3Xf6exkegRAF3inAWQH1TZuBxPABDABTAATOBACaPVAZmbu+azs3JzsnNzJnJw8yCEEQL5HAOQXQn5BERQUFkFhUTEUFZUsFZWU8opKSn5cWFFxC3UQqK2KispXKyqqoKKyCggBUFUD1dUsqGKxfkUtu9UxWtbI5YpuFwgE3xMKRYlCoVgvEonXROJ6ENdLoL5eChKJFCSkAGhoJARAo0cALMvlclFTU/OvZSrVJ7fq4zCv22y29zidnXNIAHR2kQKg+4XD7BO3jQlgApgAJoAJ7ItAdnb2O3Jzc7+cm1vAzM3Ln88jrAAUAVBYDIVFJVBUXALFJaVQUsKE0tIyWwmzPL60vPzpsrKKlPLySiivqPQIgMpqqKqqQVv0VgNjsVgf4XB4X+VyeRF1PIGEx+NP+7IDCj3pgYUiMWwIAAnUbxIAssHGRllWY6P8a0ql8r1b9XNU151O58tOZyd0dnZ6BEBX95DD4Xj7UfWP+8EEMAFMABPABPZFIDMz8z25uQXfzssvZOUXFC4QFoAAAqCklAmlzDJglpVDWVkFlJVX+AmA6hL0VY+sA2w2+xNoGoDFZoejiIBsNnfIFxXQm9FmCpkAACAASURBVBfAlx1QQGQHBAESAaQAENdDfb1kvl4iFUokDf8jlUpPAsCb9/WgB1y5o8NpdDqd4EQCoLMLurp6wg+4C9wcJoAJYAKYACZwNASYTOaN+flFXy0oKM4vLCoeJywAxaVQXMIEnwBglgOTKgA80wBzlZXVKVXVNY3V1axp32oAFBDIFw9gIyywNy8ANT0wEgCrQqFYKRLVvyoWix89qtgBeyHb3t7+SEeHEzqQACCsAF1r3d3d+15NsZex4DqYACaACWACmMCBEkDhc4uLix8rKimNKy4pcRICoLQMSgkBUO6xABDTAP5+AN7VAL54AN6ogCgiIAclBqoDIjsgj7/E4wnkfD4/XCAQ/BeXy73uZv1gATocHaV+6YFrg62Ly2ECmAAmgAlgAq8pAoWF5Z9gMpk/K2WW1TLLymfRNEBAPwDKckAUEMgvLPAwh1MXXsvjnWcyFe98TQHwDtZisdDbHY5lqgBwOp3XNfnSa5EjHjMmgAlgApjAa5AAl8t9e1lZ2WPl5ZWRFRWV2orKqtXKymrPagCKACCCAlHyAnj9AFa4PJ6uro6XzuPxfiIQCO5jMplHtnRvv7jb29v/2e5wgMPRAWgawOl0dhw3/4T9PiOujwlgApgAJoAJBEUA+Q5UVFQ/XllZfam6uqapupq97O8H4MsOiKYAuDxyGoD0A1gRCIRmgVCYJxCJfikUCh9CIiOozo+wUFdX1/vt7e0T7e2kAEAioOMXRzgE3BUmgAlgApgAJnB8CdTW1t5UU1PzpWoW6xKLVdvAYtfO+QTAZj8A4PEEwOcLgI9WAxDLAcUg8qwGWBCLJa1isaRYKpX+VSqVPtfQ0HDH9RQGNpvtX3Z7O5ACwNHRMYniAVB/iQ984APvZdBoz/lvNBrtdgaDcTcjJGTTdMFtt932dlSWRqN9iNoOPsYEMAFMABPABF7zBJBDIYfDua+2lvtzDodbyOHWOQlHwDo+8Hh8jxWAWA7oFw9AjAICUeIBSBugoaFxtaGx0dEga2LJZLIImUzxg6ampjMSrfaDhwnKZrOF2mz2GVIAeKYBnDH+fYaEhNwcSqNdQhuDThti0ENSiGNGyGOhdPpVBp22SqPRbiXrhYaGfIlBp61/mE5/hLyG95gAJoAJYAKYwOuWAPL6r6ure4jHE/ySJxDkEVMAAuGaLx6AqB7EZFRAMiAQGRUQhQVGEQE35QUgwgIvKhRKZ7NS2aRUqZhKpfqqSqX9o0qrfU6r1T6k0Wg+ttf5eqvNVmCz2QEJAHt7O7Q7HKvt7e0f2+4HYtBDdB8JCfGV8QoASSiN9juyXhidXsSg01RYAJBE8B4TwAQwAUzgDUcA5QIQCoXnhGLxz0QiUapIXC8X10smiYiAEikEmRcAmpWe7IBbpAdeaGltdbS26hQ6XRtbp9Pn6vX62LY2w1/1etMrRqPxOyaT6asWi+Vxq9V6v9lsvttqtT5ttdrWPQLA7hEA7e2VO/1AgQRAKI32UwadLkd1Q0ND38Wg07iMUBoTC4CdaOL7mAAmgAlgAm84AkKh8CNSqfRJqbTx99LGxrSGhkZpY6NswJsXgMgOKCezA16THlhDTQ8M2pYWaGlphdZWHbTq2kDX1gZtbXrQ6w2gNxjBYDSC0WgCk8kMZrMFzBYLWCxWsFptgASAze6xAqBgQDv9EAEFQGjINxh0uuDDN9/88dDQkG8yaLSXsQDYiSS+jwlgAm94AmFhYe/8CI32mQ/T6Z8Po9O/wAgJORMWFvaBNzyYNygAlBNAJpOdkMkUzzc1Kf4mb27Oam5urvdMA6iWlSo1ICuAWq0BtUYLGm0LaLVUAaADnY4qAAxgMGwIAJPZIwJIAWC1eUWArb0lGORbCYAwesgPQ2m036MXP/IZwAIgGJq4zGueAINO016z0Wis/T4Yg0Yr8W83jE4PmJkrlB5SSZYNC6Vd3m/fuP7hEzhxww1vY9Bp0Qw6bY5Bp4H/RqfTN2WrQyO6/fbbXzNryw+f4BuvByaT+Ra1Wv1hlUr1sFqt/rZaq/2tRqOJ1Wq1RS0trQ0tLTpba6tulhQAbXqPFYAUAEbThhUACQCLdcMKYLfbXwyG6JYCICzsA+hvUBg9pAq1gwVAMDRxmdc8Af8/3OT5h0NCPrvXh0NONsiLlmxrY0//TaA2GXSanSyDxECgMvjasSLwJkYojU3+ZgH20zfccMObyBEjK0FYKO0CI5SWRF7De0xgKwIKheKder0+rNVkukuv1z9qNBq/rjcaXzaazX8ymSyXTCZLotlszrZarUyr1S6w2Wx8s9kclLhEDn5hYWEMsu9QGu1vDBrtKXTOoNPy0BQAOg4LpSWE0WinyHJ4jwm8LgkE+OPt+ZoLpf1zrw/MoIf8KXC7WADslelxqseg0b4W6PcNo9OmGHTaGoNGU5DjRWusGXSakyhPo2WR1/EeE8AEMAFM4DoTCPSH3HvNutehMWg0feB2sQDYK9PjVC+UTi/c/PuGxN56663v947xLR+76ab3keNl0EPcvrK7EADo6yuUTg8npodotBq0XCs09OYnqJYFsg+8xwQwAUwAE9gDAd8fZ8887jT1PCwk5I7dNklE19qYE/abBggsAEJDb34gNDTkcbSFhd185277xOWPlgCDTlNT/p/03HDDDW/ZagS7FQBISDDotAr04kcBWZAvAYPBCGN4grakh9JpDYH8C7bqH1/HBDABTAAT2IIA5Q85MGg0lteMu+dpgLBQ2j98bdJoCt8xIQoCC4AthoYvH1MCDDrNSv6uoXQab7th7kYAECFb6TRVGJ3+VQbj5vsZdPpLYXT6j9A0wq0f+hAN9YNWGSALExYB21HH9zABTAATCIIA+Yec2IfSmMgRhnJt19MAVIe+sNCQX1DaAgYdC4AgfpJjX4QRSuvw/a40WvF2A96NAED/98Lo9G+j9ogVBqG0fu8KERWDTltg0GjfRfeQxSiMTmvE0wHbkcf3MAFMABPYgYDvDzn6QkcCwOO05VvWtRuTPJ1Ov3ejPXo7+kO9cY6Wih24AHgLmqZAX4xhoSHfCg0NecY7bbGlSXoHHDeEhIR8NIxO/wqajiC/Oneqg5KGMEJCHg1FAUVotK+hCGIMBuM/d6q33X1iJQWN9lRoaMjzoaGhz9Lp9If32+YNN9zwVmJuPTTkS6jdMBrtSTqd/undvkipAgB5VW/3HMEKABSExftSJ5rzCgA22XZYKC2SQaf1kucMGi0LxR4gz/EeE8AEMAFMYJcENr2gQ2lMtFabQaeNb1wP+b9gm/T+kfZNHwQrABg0msjrKY68xZN36g+Zf9EyHQadNrIxzk1r0ccZ9JCY0NDQLZORoNCfZJ/ekJ9vDqPR4lFiEEqbaww6rYwaO5wcG7EOnkb7HoNOawm85JG2ygilNXuXFfmWxJH1A+2R8xwjlPZP9KKjjMEnxggPezpNG0qjvbKbNfVIxDHoIfkMOm2Tj4evj1BaP4MeEnvzzTeHBBoXusag02wkL0YobdlXl06b8V2n05xhNFqmJ7Qq4fmPfs8VSlnUP7pGbGFhH/oE2V9oKO1nYaEhPyfPrxUAIf+D6pH30cs/lEaLI8/xHhPABDABTGCXBCh/nAkLAKqO/ohTrtuCbPJNDDqtm6yHviyDFgC7iAOAXhQMOm2e7GeH/TD6cg40fgad5iLrogh26GVCnvvvQ0NDP0VtA517X/zUl/M2x3T5LR/8IJ3ahv8xiqa3zYs/UNv2IObB38qgh/zLT9QEaou8NoMsA/5jQ+cMOm3Jn8sW5xwGnf6/W9wj+yH26JnJvlAAKPQ7kOdeAdDhyeAWksJAIsW7XhuVQZYa5LNClsd7TAATwAQwgV0S2PSHOpTGRNXR1xX1ejDTAJtf9vQ21M7ma1tPAVD9BrYLBMSgh/yZOi7i2DNPXIC+YNHXOoNOG/QrMxtoNQNVADDo9ItbfMUjUdRMRcpgMD4ZwPKAvnIlRJpRekgagx7S5P1ap77werd6YRNf/nRaz+Zx09sZdFq5R5iEpCBnu2uFD719G0vAm7xf/dQxoOMudN1r7UC8xjb3iwI40X9FfWZ0fOgWADo9nJqXnRQAaJyEYyqN9nXqmJD1YLv/K9Sy+BgTwAQwAUwgAIFNf/y9AgDNFW9+yYX8K0DVTZeoX9BhobQ/opsHKQDCaLRzfi9V5BT2sv8StJCQkHczQmlRm56LTkNxwjeZ4TcJgA2T9hiKWId8CTwe6CF8Bp3+E/JBkZd6GJ3WuantUBo7NDT0I2QZcu8VCtJNZek09f9v70zAbSmqe3/u8H1Gv2ci5HJ6rao+1xvDM2oGHKLBp0meGuchxqgxxtkEjfoeRhyeqMkLCJnEoEYcg4pJREENKsQ4gLOC4gAKAuExCMokIFzGy73nfau7eu/avbu7VvWwh3P/5/vOt3t31/ir2lWrq1attf/++9+pCFN8ZtbIxkcnd4vme/HM/8xslOdbF96kzgf5YYrrUpoS/irRTyieF58iQEh7lZb175Bjd0WY8ucQOgDG0PPFgFSRl78FYJlfJEKAb8FN9D7ETkARHp8gAAIgAAKRBCYmqLEAsCJvs96z8wLJbjFMP3Hh9xDRDgnfpwBgmL7plUcmydFycVXZSuVfLyuMTQgATOtSflFEq0qruGeJ3uCVYd0pwNUqHDp9ilMm4yQHF+kVn5b5u0UYMbJT3K/6zBQOPR0Nw/Qf5XCy3VBaLbjWGHOvcjj/uygaTgpYfH5ZuCrCDyEAiP6B2GkX4VPy8QWAlZWVzZKn6H14ZfjUGtEDi+/4BAEQAAEQiCRQTDzZpy8AJMnDJ57Z1QPqkhYN+HHY3K+2hO1LAJCBfpy+bCUk76wrS3E/Mx4jZmlHb9aTcaYEAKKXFnGrPnfs2PFzlpPrxunRpdu2bbtrVVj/npuw/WV20WTPJrki3OQyfFjp0hp6u0yWbovgL4t0is8JZczc/sKzi2dNn06xcry6ULFiIPGHEACydJmPkBWY/JqOEn8DRXlTTg6Wo4Ai3IiegpxYKZ7hEwRAAARAoAUBb0IbKQG6ZPy3epl0a7cBTLbvnWvh+5rcfQkATpFtNDFV7elXVV3eImUPWbTm0yT5LT9MWQAIHfmbFHIyIWS0XO2nW3UtCm4TnJPkQD+c218v6nfp2to24z+PvbZMZ3v5/ajuTb6crqzc+KsAdasRQwkA2dYT0UliTEq2W/bbb7//5pVxi7gZzny1E31NnnvPcAkCIAACIBBLwJsoygJA5hHLe165DeDcwhZvuHf4E2lvAkB+TDCbIGWpPraOVeFLAsDoeFlVWLnnjucVk/R6jLfE7Az/aCWC1o2hV/v5iJc8j7Pk8VPRfncnGCZWC/x4Vde5noDviTF5V1W4unuW6dvjsiSXVYUbUACQ7Lbk1iT5u6LHIPoYxiRPNESvFIVMOSYqeh5V5cI9EAABEACBCALjwT43BORHLU9c1tr7+s/lWo5mjdPgz/rPexMAmM7x8viMn0fb6wkBgOhzoXQMJ/8yLgPdrH2rlnTlTdaLK6spE5OyM4IjnvRGAoZ3fa019GFL9DxfuKorr6x0eHHF+NJIibEujn+/dAR0XbY+/OdyPbAAkGUnRo9S5j9xboQPMyZ5oa8EWC4TvoMACIAACEQSmJgspvdVN09YcmM+opy8bzrYmOQF/vMeBYBrRuUMmJ7182+6nhAAmE5oCivPRNluVAaufjNuSsMy7RzHpxPLYcXT3aQuQKUwsCdXhuRX1G0TpESP8/IRRcWnlPNq+i6a9X78qnxmIQA0lRHPQAAEQAAEeiDgD/ZVilXufL17M800w0e5pml6Z8950K3bt2/fZ/SwPyXAzRNn9CNcyvplKV+XBIDjys/L38XHvceqcjukHMf/nh3DG7/hn+I/K67lDV8sGFqmK728qlYF5N6tNhfIJrYIxPKgH7d8+qHIq+5z6qRDut/+5bAQAMpE8B0EQAAElpCAP1lUCgDifW08ca372wCZ1zb3LGX+93L1e1wBGFv+G2YFICwAMH/G4yCKdVF/mTObMcepFQA/MdGrMMY8SpQYDdP3vXyrhIEP+HGnfDlErgCkRH/n54cVAJ8urkEABEBgAxHwB/sqAUAM6OTW44ol6fE2gIQv4jub9xNkehMAMlv1ef4pJ/85kUnLL9ErALIPP57Ao3QAnKU/b/KePJIYqoIxZi3l5E/l2F9JkMjSdL4MsmSMMQ/xyik6AC8Kpe8/t0wf8OLvnpcOgF8mXIMACIAACAxAwBvsp04BFNmVzpVnvgGMMXfx9rV3Vmlm9yYAMH15VE6iy4tyhT7FWJBojRuiV4kVPN8KXwsBQJz0jCZx3459sBy5FcNR3PIpgFB8/7k4OJLz8X5Z5BRBEabiFEDQZkIRVz4t01le2pUrHdgC8InhGgRAAASWlIA32NcKAMz8AD9c5riG6KnFvTqXsH0JAOVlaTGzq8GdMr+3KKM1dL1YlCvixQoAU/4RnLnjIr2mz8yqnSc8+G/swlKOuElZxR2u6FU0pSXP3IqC72VvQqegbFdAe2Ihc7AzYTxpWllR8ocAEGohPAcBEACBJSAwmiBlgpo+BTCqgSW6YBRWTOJ6S+JyTnsU0LvoSwCQCXOUd17ON3nZVF7KROr7M0g5+bgfMFYAcCsehb0DeZu/uGrVw89DruU4m2Uan2Jgutp34FNW2vMd4pTT8r/7SoVlAay0YrNe5+HPT0+ufX8OGW+i55XDyPc4ASBz/ZuvfjT0r6p8cA8EQAAEQGBAAqWJtda8qmicF2FTph94y//X+hOaX9S+BABJc8JAjaHbU6IH+XmVr52Hv9Gyu+9K1qU3cgcsRxnL8au++wwyFobeV3YyVIq3VTzWFdzyz0mLitmSPtMtRRg55lfHs0jbmOT3ivDyWd5SEJ2BknOfq0N+DtwKh2c6ma4QoafI0/+MFABGVgkN0xf9dHANAiAAAiAwRwL+RNK0AiAugSfCuiVtw/yeuuL3KQCkRL874dfe0PV13u2cJ7w9XnlPK0/UsSsAUscdO3bczZ/8XPonVBnoEQ+Bk7YDMv2BC0vmbTN0wtArqwgtp4jN+yquztDPVV74nbLKUA5riP7KCyOrOz8WGwHlcLI9YIhemh8rHOs4VCl1FnF9BuXVhyJM8SnbGl45dlmi5wqbbOujRsAo4uITBEAABEBgQALe4Ny4BSBFsEznToQXIaDBbWyfAoDkn7mtdYKHV45zxTmQmM61ht5niS73nq3L98I7oY+xjQAg8Y0x9ys5BZIJ+xanmHeUnON3E/9tE+VgurrOfHC2TVAuN9NthunT4trYLekfZ5m+VUpzT53rYNF3kKOZpfDrbvVGFCOF1/snDT0VAsD4pIfPrLiOEQAM81vKZSi+p0SPLdLEJwiAAAiAwIwJFINx9hnYo83MsvoTsKEfNymY9S0ACJrMGQxTeXIdL/X75WM6h5nvXYW0rQAgaYlr3ZKiXV3+xf0z0gqDOn65jDG/MnncspiMaz9v9h0v+Wl511ss89EThpQm+RTlKz53akwHxwgAwr/q6GLW34gO8cqKSxAAARAAgVkSsLlv+Wuzz3xPuzZ7N5jnYZmulTfT2sDyxk70ID998cpXFT43b0su3eSDVWH8e9uT5B7Z26tsA1RNaNnbdPLauj1sScsZ2CnyjDoqJ/Fln94tnY/2uEtlkS2Ib1ii55Td//p18a9FqdBtX1xUSquYoOXzakt0rDDw4zZdM/P9nS7CTTXpXikWH0V3oCmd4pllOrNo16YtoCJ83g+Sr0wLInx0EQafIAACIAACIKAmkHkiTJIDjTFPFkM5KfMfuPP5m9SJ9BDQWpuKEl3K/CzL/Gy5Xl1dTbokLfvkoriYmuSZ4mNBTgfI9kPTiksoPzHqI6sywsnxeopzrbwlFLeP56JDQUT3kdWOKgNDfeSBNEAABEAABEAABEAABEAABEAABEAABEAABEAABEAABEAABEAABEAABEAABEAABEAABEAABEAABEAABEAABEAABEAABEAABEAABEAABEAABEAABEAABEAABEAABEAABEAABEAABEAABEAABEAABEAABEAABEAABEAABEAABEBgLyAg5nnTNLVrRA/MfMwTPc3m/0+XT7mX+bNPkgPFLGyVe9wlx7SFme8ubnulnsYkT3T1f5qY4M3qblcfLGHEY9+S1xXFH5hA5nPCmDWbJAemzI/xf0tybYx5lPQp8bcgTqqa/F8MXFQkDwIgsJcR2Gytva9lfrk19JHMwY6h22sczvgObUrXyXWW6ezcfS2/LiX6n+IYZ9FZGmO2ZRM88xGW+bOW6UIbV3/xavjD3FEPv0KEJq3joFmySdP0zuJ8KPQvwt8sy7UB89qaTeREr7JMH7VM51mmXfG/J7rGMn9X0jBErzLGPBS+FzZgb0GVQGAeBORtxBC91U77sC9N7LWubDXhdlnmz1iipy7SxCJufS0nh7oBVlOPuDDi4ZDoWEv0sEVZIRCBTDMJiZOfefTHJc9zk/A1nLw78/RY5d2yn3u3WaKTxMFUF4dSS84axQcBEGhJYLMxyTMs0xmayaDXMIZ+3LLMfUXbakzyx5bp9F7rFR7YL0k5OXjey7oQAPrqRhPpSJ96oax8zbhPrYvwOlESfAEBEACBOgLZvjUn35n9QDVaQdhdV7Yh78vKgzH0Mst00RzrLisIV1iiQ+a1EgIBoN9eJu6rZetnbn1q/gJ1v0CRGgiAQP8E9t133583zO+xTHvmNljlb8kzFwBSot9NmX4w53qXtw/Olu2X/lu6OUUIAM18tE+JaD/RlZl7n4IAoG0yhAOBvZOAaOhb5vPnPljNWACQUwnW0PsWQOgpT/7F993W0JtmqSwIAaD7GCCnQiwnly3E7wkCQPcGRQogsFEJiAKaZbphIQarGQoAcozKMp2zQPUuJv3pT0OnyhvlLPogBIBulFPmp1imWxemX0EA6NagiA0CG5XAGvPvWKadPQ5Wsn1wY8f0Bt8CMCb5/QUTeqYn/WmlwYtFaBm6L0IAaE8461dxR0ND7b678+8TAkD7BkVMENioBMQ4jWU5QzxSvgsNRuPnRJeLvoAhekl27ni//ahk5Gfz9u3b95Gz5MaY+2VGgphfLnHcXnuTnsGgAoAxyR+1PG89rj/TLZbpNEP0t6LdLYJUmq7+htR3bW2bkU9rVw+QyTTX/uYjLdHnLNNNrXi7NjJMP2Hmew/ZJyEAtKObJsmvd2jfi6yhYyzzQbJ9sLq6mpROg2y11v6i9Ctmvr8c7zNEr7SG3m+JLmjsUxAA2jUoYoHABiaw2TJ9o3HgmBYMdhvmf5UJouuZ9SRJVt2xqFMs0x2lcgwmAKTMf1KRnz+xN13faomOFwttbQ2tiGa/tckjnN5B222XK0RnY6i+CQEgnqz0B2fIp6n/lJ/tyuwB5Iqem+JzHcew1qYijFtDp07ps0AAGIPCFQiAwMqKvGmUJt3y4FT+fpq8yQ/BzhizXd6kva2DQQSAlOixLSf/m1KivxNLgH3WX05dWObXWaafRraFtM3FQ+kEQACIb2VL9IaoNiT6xFCGlKy198wMd+WrVOsWAkB8gyIGCGxUAvvvv/+dZClZPWDlWuhbhuaRmdoVi4OGbu87L1k2t2J1b3pVoyzolL+fePdt27jv8vjp7dix425tjl+mTF8S2/F+Wn1cQwCIoyhbXZ7wWu4/5e+7LSevXVlZ6fTGrymhrAq4LYLLNeERBgRAYC8gYJmfrZ8Ik0NnjYSZH9BnntkAHdonnRYMbkhN8sw+yxFKSxy9xOpkpIb+KZRu7HMIAHHEsr346f5Tnviz77LtFZd699B9/566lwgpgAAIzI1AZnNfMWClnPxn173+uVXSyzh7C1LU1xOKLhWFPi+JmV3mvgeirMbtEcuNfRYQAkAcTUv0Pa/vVE78+fPkg3EpIzQIgAAI9EhAvO4pzyjvGWqPssfqBJNy+/4Ng/LUCYjzhl7yDxVaFCQt07m6SSUr/0Xbtm27ayhd7XMIAFpSKyvZMrvOcuZtQ+ls6EuLkCAAAns1AXfuXzEhJl9ZdlCZlT+mH0VMpJeIQuIi1NtNLBfry568ua9yQwDQk7RET1O20Uf1qSIkCIAACAxAwDK/SDdg8esGyH6mSVrm1+vqmr1F3zjk0bo2FV9j/k3lao0IdLf2JbxAANC3liH6S00fSzn5U32qCAkCIAACAxCwzEdoBixL9JwBsp9ZkrlmdnKdqq5M62IcaGaFi8jIeSdUrNjQekr0zxFJ1waFAFCLZupByvxeTR8TQ1hTkXEDBEAABGZJwJ0PDk4oyz5gqQUdmfw5efcs2yAyr02W6GuaSUasGyZJ8kuR6U8FhwAwhaT2hjX0YVXbWHvf2kTwAARAAARmQcAyvUM1YBE9fRblGSIPZ5VNa1znClktGKIcfaWZmX6dtpZYI8TxkV3zhQCgJ2g4+Zjm9yTupvWpIiQIgAAIDEDAMP+NasDi5OABsp9JknJ+X1PHLMySbHWICWJlna7oahwIAoC+m1qiYzXtYkzyDH2qGyuk9MftRL+ae0nkl4shpNzyZ3J4aug1YpXUmNVH9rF6tQjkRPlY6iL2F0SvSHyDtDUdvgj1WZQyiH8MGZuMSV6Q9RtDh7l+dKhlfoUo5IrelJx0W5QydyjH1h377Ufyu5F+JD5AenlR1RotSTn5eIfCzzWqNfR5zaBsmX64srIyuIXDPmBIJ1DWad0SPbVLnhAA9PRSQ/+ga5fknfpUlz+kTHr5WMOfiXSQdIVl+qj47Cg5FxsEiijOZic55DRHzb8cJQ5lLqt0YpTLOTqrWp3blW3lJckTqtLKvEjW5O+Xax6TW3YsWVG2tdXVX66qW4d7W/Jj3Mm7rKH/0v3OMoXuXZbpDMt8pDjo6pC/OmpK9Di/naqujTFrTQlKfzdEL7VMJ9d6qiW63HKzPRGxJZOa5H9bTt4owpI4ERvla4mergR52PMYQAAAIABJREFUY59ny0cFGPgi4lz2ulhEHLg4vSZvmL6oa7vmDhIqFASAEKHx89Qk/0vXJvQjcQQ1jrkxr6xdfbAl+kRLnxvliXOnYX5LaODsQtI5ByvnW/rO59flIbZSnJfPUpwp+yLueXJ4VVqW6URNP5LyVsUf8p4h+itF2faID4o+yiHzjvOREnOEu5a/YfqmrD4NadQuZfp/QUb12+pb8pUwujaYRm7Qbk8d5/zkG79OVgzusc8+vyD+e6yht4uAmcVJ09QqM1lPDf11XUaLej/CydFVyzYgR9Ttmi4rGxAA9L3b6WfUDj4TvzWiP9envFwhM/fXhj45Ud8465tNDG8RZ0tdt7aqiHYRALK3q2j33jUCQJI8QcXO0Cer6jHkPct8vqJsp/VQhs3u1NPVivya+kvds9OHsvDaVgAQo3OW6cuR9a0UAOStX1ZMnJfd062hr4uPGfH9I3N5SvSgrI0s04XKDHcOBayHzlKZhGxd6OqW/GNlAgt8M03TfS3TbZr6GWMe2rYqEACiyG1JmX6maRPLdBUR7YhKffEDb3LLljuVDOoGZ8X95Dt982srAKScHDzldlkl8FQLACsrK1uVDtpu62UvWNmvZNLQtGtXvykiQIpzM01encIYut0yv1xZfXWwNgKAbJO1cCEuv5MpAUCEY1HwlwJbokNEkHLXx8uWcP48eVdWodTQ30dAFOt4jXsXakoDB3QQbtTUTd7cBi7OIMk7f++KwbK9IScIAHFNZ5k+oOlzEsYwfX9iTy4uq4UKLYpthvlftXXvKdzVNkkO7AtEGwHAOVPb064+tQLAilafRFYe+qp/KB3ZglHU85ouSo7WJo9o6RJdMQ5Wb8U4mym96X/FCgCiy9GgLxKq15QAIEv9Rb8QAUDc1+fjOH+12JpJid6WtbdoqFqm3YqGzQoikikz/3aos8z7ubOcF4JX+Ecf3B3rEDy0lufkeFrb/CEAxJHTviUVv7dssLCrB8TlslihZX8xwj5F+Depent2g7mh6+W33geRWAEgTff77xGunyvqXS8ArCXJrxV9pOnTOWnro/qhNLZaJlHKrKiHf6/9aqoYnBP7JeE8/Px6ujb0vr70AmIFABFAOtR5SgBYI3pgodMmAkDu8C/5jm/gTmwAjRpce355VMh86eT1i7xvnjL/2ai8TZ02b/gRi2W60PtyoEvb1gsCQDw5y/xVVd8b98ubRIGwrwEovsTtY2RKWnrjVFWTxy0299GhWq2r4XqlKPy2r0UeM1YAaLFfW6p/vQAgJcq114MT3K5ZOJZKmR9Tw36iTm1NqDv2d2jyqAlzlds2aZ+GocO69iGJHyMAtHBQN8G7agsgd/LHR2d9yG0ByMq9nJ5wqzObJgzeuVWAm2rAljMcfyf6nkgbfUDrOw1r6BhVfYie23fes0ov15Al1fJj20ECAkB8azplwBZvMvzVtgNofCl7ibE1Tus9m8wutpy8WYwh7dix425+KdI0vbMx5l6yL+vSVfXt7Hdu6OtdX0hiBIDsqN5YgBuPiVH3mgUAp0+hSJtf7HMc4lqOm4XH03ZO49wkqP+9ZC+gdLK85IkeSKndN8lYZ3NFyncodSkKxrvlCF9XfhECwGa9+/BaQXBqBUDKbzk53NrVA6QPFb5HMsN/RM8TH0BT9TSGXh1u4MpC3CHahWKooCu4PuNrlySXTbGxzMgyqbwEjrQ+ywkEvkMACACqeWyZjmr5e7pNJshZKnfVVCF4W/YRI+p4pc1PPmwNJuwCyMtFjDKYIXqVNu2qcBECwKZMf6Nmss+eGTpMJiGx2SHnz92RyKfJeWzL/N2cW7MA4BR9b1Uw7kPrvgpJdi9/o6TwCk2Ll6ns6CRH+Gnh5GOy9VJb2NIDY8xd3FapUjE1uazrkXetABAwUneTJfpQpsVvVx8sW0LSl4xJfk+U+lLmf3PbT5UCgAhFlpN3Sh7FiRkRuOUEjZwQKGHKvorm6acVna2QlsqfN8p5TZHiqxKf9T3dfhXdWpIeZ13Mzvk5QxHltpj6njL/YZvMIAC0obayIr8D5RLuVFu53+BPRbt8Ufun7CeqxwpDnxI9gXYkV1asTKY1k23p/s4uWwFaAcASPayUb96Ghv7LmOSJKysrQZ2iQiAIMbGGPlKZ1ySP3aJFHkqr7fPAROX6b3KdTLYxeciRtCZBqlTvGxzbmCxGYUX5TfuyJML7KGKLC60AULNVKKsQb9Os2IqxoNDxfLd1c5RlPlp+R2JNsLZKmTIP0+kl8HUDVM395DJD9JJC6qjNbMAH7gSARrHxnAGLMZOk1VsdzH/RpkAQANpQy+PIqphlOrfT70msnuUmqnvTUm5fozxmtsTKdJWmXk7buHPZc2WmyhXIiXFINNXb1i9CAPhQue5y5HgIy3yZVbnJyX6ivkU5RFhsW+9QPM1Lhlg+DKVTfp6vhoTbNNMR6UFRNjcMp7JjcLOYGi6XV/tdIwDIxF203ejT0PXGmEdp8xkknNPo/dyoUIrOVxP2Ytl7mMcbjOwL1ZSp9OPhzw4CcYaJak8CyHHPNsWCANCG2jiOEwLO0PXHxsHwh8Ykf7wIioL6o47urPEYR6crpbfFm4wx29pkpBMASHSlJuxvyMqpnN1vk6cizhabmXxt7Bti8vtrirSig2SmfzWa+ZETtOi6KDX+r5VtguiC10TI9HNyHYLSXFDm296RmkYAsDxl6e82UequKfbMb4s5QrFrrlfCqRMUMrvNmZndzm8BWgpi+EY14Bp6vzbNRQ2ntgho6O1t6gABoA21yTiiedvxqI8/WJ2dMv+BZpl5shT9fMv2s3XHhk/rW/iXiV2ztVe3xxkioBQA/LZYl/PbXbY3QmWS53KOWzGe7WHmu2vSiwnjrPFN1LmiLKfHpClhlSfPdoljqNi0Q+Er377L85ehH7e1oKoUACaYGkPPD5V75s+dr4Cw8kcZXvX3c8QpwiwGLkv0+IpOOgE8e27oTTOH2nOGYtlJVVeiY9tkDQGgDbXqOKJ9a5k0Sl3TfXX6N/WtKU3e6mx7vauyrmno+i5LqE0FtpwcGurvYu+9KY26Zy0EADmCd5+69Pq6z8z3DtVZnndVgqwqr5iQDeVdaJlXxa+652y0KF4um5Ukq9LW3Mv2zhUWO9eYH61JrxymhQDwgXIaC/NdpErNHlCok4yfJ98R7dghKygKb+P8yks7/vdhOtiQdSunLYoxqroSHV+Oq/kOAUBDSR/GDeax9r4bBILkK9JG+hK0D+m21hS6NfyK9rk0xxTBorwEX9H/97RRiosVAEbW1JqL3MtTy/SNinqW+8WZvWTmEhFPcopV4BtiPTUqt5B+NIRORcFHdBaCPNuummqcAY0F+p3ik6co18J+ig9zzfJbEOq44icP5fM7ZX6WrhztTeQuSkPJEpmmrm2tAUIAGKSlN+VbN/rjT8E2JvqQOBMZpLQuUct8hKIcFwytAGyJTgqVQ8aAWBZxAkBy3SzNOFvmF4fqLM9jjsiF+Oj0i+L0PNzRxpvDdRnWO2tuLc9/Gay8Fhfx0X8xKwDCODqDeUWQs8niTtCqlCgqgZYl1pssJ6/te8CQJalwB6N1sX0wL5Z95SsGVTR1tVgB6At5b+k471/iO0DxVq34PYkWMdFLh1IUtEwXhfqaIXplb4BqEtLYLJmwdFaTTvl2jADQRuu9nF/M9+wMN5NYTSyPoaXv/PqYdJvCapzTxJphVo7NV/U9J1TUU0wbB43fiRJkRdzGWxECwEysODYWts3DbGmISI7CKPZxQh2WMkUaa+1925SlKo5aMY7oDVXxl+medgXAtlR4xArA8L0hU6wz9Knw4B7+Lbk0zujzTVAIOOW/0mRTKo+h24fa+/dbQSX0Gvq6H0dzHSMAGGMeokmzzzBiGEbRR87uI0/lG/K3Y/PSrN6IIazYdNuE15hyFsM7sWlHCACnxKa9UOHlSIU4o1B0yuaBI5dqby48GHWtpPPQpciTj+ia17zjq3UAOG6prqgXBICCxPCf4mSrxjiIoi9PTcbXp8xP6avUqaHXKH7nJ/eVX1M62Upk8E2YboxVOI4QAC6KTbupPtpnopSmaIP1RmMvyswywzEhxrllR2WKKyvOPkvwrXtW3lmz1exQHVu4C9YLAMNuc6gbpmtAN0n0o9hEdGxXa4IRSoAzkTS78m2KLycrNIOCHCVqSqfuGQSAOjLD3Xd2zL+taddAmD02P+nS+Yy65tiWCAnDUZlIeZNlCjp9ibUHoBUAnPvYiQLN6MsW5zipWSDs7tRG4/lvZ+zxRzFlG+ivshr8s6G2sMptpDoOyPHeDbUCQBtF1XIdFuq7O3//hVAjK55/OVaz1AehtZ4l/sv9eMt4LfbVFTzXLSwBLl3zyvKjZTpT176lFQDvzUYm765n8jUTzyzdhFumq0NcZNsiptHVAkDuuTEm6d7CWuYjQ/UWr29dMlR5/mtxrFijyDhD98YrmdMp73dSydXQh2NZKgWAK2PTXZrw7hx+t4HL0OdjbUsXgCJ8sn+hiLOsn1o76TK4takjVgDaUOs1zmZnd/+cygEqNICNn5/Y1lqdU0BrfuvM8uGX5/o3fNDwn2EBIHb/VisAzNNiW+48p17YK/pIl2V0y3RckU7tp119cGwv1zmP4s8M33eK/kmigBvq19GOljQCwCwFndh26iv8JmPMky3TDxWQKxvBQYq2IOjMr1amOVGWjpJyX6C6pCOeGCfqVNehiR7WJh8IAG2oDRJni9NtuUTV3hX9oO2Kl3jMbJvnPOMZkzwppiW0AkDs1kJMGTRhNXoibbf85KXLeZlrGj9bKRrqFACDE3JTuYZ4doamTfwwGgHAttha8PNYmmtZenRa+cElu8rBop2mvuwRKo7M0B1tVxkWpQEsk2rLpe0ZcQgAi9LSeTlEP8Yp5N1Q+XupmPgnw/FBsTVyOglDDK7Dpkn09Ji6KgUAcb8a/VISU45QWDeehthd0kZRUeP5r62p5bEb5IWb5OtZEn0v1B7l5xoBYKnO/5cr2Oa7nKeUs7ktzjzvSpPkt2Lz1JxhlYFRjrvEpr1I4TV7odbQ9W3LDAGgLblh4xlj1pTHwsqD285Y5yrijXBSiFiWATxOy1opAOwctmXDqTuvrWFjOklyYDi1yRA2fBz1FjHmMxlL980yXbqE/eg8Xe3GoTQCgOgfjGPsRVcp0WMrPCGVB6ny97NipVmlH21Rjot+I1qU5nKGZMqspr+3OBNd1BECQEFiMT/FQ6Bl2hk1sBr6fExtNMpbUfkHVyl6EjByN8rqqqoEgNxJjDrNoQIaTv4lzDxOgz1z8xw08pZ8sG2dVC8rs+ob+nwGEQAW0vlP24aNjbe2uvrLluh74Q48HgiMSX4/Jh9xjKFKv6WFvJiyDBVWznmr6sh8dNsyQABoS2528bI9+szr5vj3EuwXEW+HcoIkmJ5+QJ0WUIeKO4QAQHTB7Fq2Pid3QiTAMrks5kidWJEMtXMXBchoQXWofhGX7iACgDjaq2/dveDJvvvu+/OW6VuhDuc9j3I5qZ24LNM1MT+SRWoanSELEl/h4oWx1Z+WY+yycqvCIFItAee3Xa9wS3RSbWKlBxAAfMGKzy/hmdfXzZYpqBAqVhO1BVR4/hPb+Ju06ZXDQQDw+tHeLgBI53BL2Fd4k3yjRGuMuVe5U9V9FzsCWterxqz+j7p0Fvm+Vs/BWpu2rQcEgLbkZh9PzP9aJq1y4G6tMxtsAXgDNy+MALBiOXljcOw0dIymJ2arsiHT7kSHaNKqCyMvW8Hyxr2dN84XPeWFFYC6Bu3jvt6ULa2nkQY4DNN/KDvBO/qoyyzTEN8Jqrq10GL16wEBwKex+NdKZyv5wKl8C7FEz9P0tSHdt86CvEoHYIEEAKW7XjE4E7QEaYneEGjj20RHoEs7WE4uC+QhOllLb55dpQSo/O114b00ca2hU8Mdg9atoU/GVEpvJY+u3bFjx8/FpD3vsJbpKCWzw7qUFQJAF3pziStLw2dp+kbK/F5NCUX/RpPe9iS5hya9RQ2zbAKAcNQ5tFl9ZIh50F5LD7pSlunsUD+ao5nlECL1cwgAalR5QK09e8t0YUzSsvStP3bIL45Je55h5Sy4Zboy9GOS58aY+3UpKwSALvTmE9cYepmmb1iir2lKqPQMt76sW2kFg2UUAIxJXhhq65CgJy59Q2nEWlUsmPqfSsdxM3Eo5Zer72sIAJFEnalRjU908fAV9WeZTg51bnkujdbVXnpUwToE1mjrZnXuuPwvRYQA0KGh5hTV6QKE90eVljDTNLW631B/3gfngW4ZBYBt27bdVaFcd6144qtjKlbpGts37yetlf+KfK2h9zXmk+//n1mEX9ZPCAAtWs4yXaToHPJGe5eY5GN0DGTLICbteYTdf//972SZLtaxopd1LSMEgK4E5xJfLGGGDcUw3aAsnWwr3Bjuc/w6ZXoLGWwZBQABqbLdnyRPqIG+xTD9pLltk9fWxI26bTk5tDmfTNlSXvLmamkxqlIVgSEAVEAJ3dJ6PZPVglBapefiQlM1YYqBIjlOVYq/UF8t8+sVPyJ5+7uxBaupukIAmEKyFDd0Cld0q7YyiiNi0To62rxnFW5pBYAkeXh4TKg24GOMeVRjXEO3i2+VPtpAa1Ja7Fr0kd+80oAA0IK89kibRqO1nL3Sdna2ZJoy/1s5/qJ8d0d1NG92622dgZTrCgGgTGQ5vov558aBPV9uFRsYqj/LyTsV6d0oK1SqBBcw0LIKAGLHJLSCmjL9THSHytgtN3vEE1fS5Thtv2fmqxXH/MSIW9s8FiEeBIAWrSAdVDHAaJcsyyXYqhUw8jIsnnlgt/R/uoKRCDI7ux7ZKQBCAChILM+nUxIN6wBEWLUzJnmGpu/JltvykJos6RILACupob8OtY9YDvVr7Dz/NdqNENPtfpyu11ZjsbKD6fKu5esjPgSASIpq971MrRVExPRi6AfiPb+ljQOiyGpHBVdb/csk7OTwqMQbAkMAaICzoI+sXT3A68u1goDYydBWIbMTzxRW1I08qqvNfxbhllkAkCOYNmTIx9CHfY4Koe7ivq2kWqZ3aPrmMm8DQADwe5niWmtprK0/c1eETcpjKMWAec12ol9VFH/wIJb5dZofjQtzcayiZFMFIAA00VnMZ4bor3T9JXlzTA00fuizY7d29YCYdBcl7DILAMJQ4Rr8Bn+LJuQwbQiXtSnR41R9swe7A/PqV0sjAKSG/i8R3WdeoIp8LSdfUXWKjp77jDHblVsNuRBAdPm8hQCl5mwhtKzHOk0q2qDuEwJAHZnp+9bQm5j57tNPZnpHtrtUPgFi+4plfpHqd0r0uS4242dKy8ts6QUAhcXGNeZHuypvtZxc19Ced3QxIe5hLV9uDZ86yE4D7DHGPKQceRm+L40AYImOz4735MffNs8DriV6bkMnHE1ssrxFRDu6ljFl/jNlfnnehq7vwwhGbLlFUherWFFlJTo2Np9QeAgAIULj5+4N7JrUJM+c1wRoDL1a2WduFYdc49KHr7Zv376PZbpJk74hekk4xX5DNJ111+S07AKA83/SeFwzJXqbsGDm325sxwG3clJDf9+Y91hR8Dypk6btegyzqas9mGUTALKJzjB9UzpFjyCDScnbdYSDiNOCCSoDWEPvV3bAQgDZZQ0d1rVjKIu3kibJr1umMyLLeO4QttghAGhbbWoJ9jRmvr8+dveQ1q4+WHn+XzxEHt8mR8vJm5X98jbpO23yaBMnn7yTd7WJW8RZdgFA6qEwtnORhAspDRqTPKng0vfn2to2Y5luUfUjok/Myi6AOKcTvRgxpNWlzkspABSNkTJ9SfZp+lb+KAN1g9VPi3yDnz06TxC7/5bpG8E8x5JoIQh8O8a9ZrnOoe9pmu5rmP/GGro9smzXDrWVAwEg1Grj5zV7sKe4ibCzJbVxTtNXKfNjFBbhin4sx0TVbmL93KIGbzEelCQP9+P3fS1bLiknH89+Ly2FmqJMG0EAkHYNjR1i2TFl/vf6cMllbY5bFxw1n3FKzXRC19WdQJk2u5XhzFvhXi0AeJ3iUsvJ4TEueAOQs8erq6uJNXSMZdrl5TUamKruyepE30uqbiBTWR8sl8kwfdqYzMFGL9smcr4/m/j1rlx9XreuMf+Ohn2bMBAA9NRqBADXVny+KHMmSfJL+hTDIUWvxVmCC2vojwXaU8Ip14eIMEYlxoFuN0Sv7PuFwhizzf1mxlsSEACk0cQK5IXlMcv/ngmLRBf49yav+ztFVNeLpP0s09WT+fpul6euz5Bxsi69tvflZVfmF78cEADGA0U+eGWdJXmzWHJqc75ctNJT5j8UIzs6k6ITjb/LJsmBbRu4KZ7oFERYCfQn3eL6YjG4I8JAjOa97O8bYx5qOXlty5WIIv9bYxW5mnhUPVMLAOJ62dBHZvkvbzJVZZ7XvWYBYNynDdP3DdHfykAs++qx5b3HPvv8gugZWKaPqpdSx7/pncaYX4nN0w8vb2NSB3/QVFyf6YTmTishmRvs/AVieq8bAkDWTKK939Qe7nmdwLi7D10rv7/UXVui5zSVs+LZzZaTN1prf7EuTc190StwbrPPrMhjHQLAeLAoJpryp0iYJ4tCSWqS/yOW9lLmZ4nfcHFUkxp6TWroH/KlOXnzoTuqQOvu9WOHuq5jyBuZZbpEV5bxID4VPl+2P88SfULOusoAL298steWCQnM73GOic61TLdNxQ8zL7fBjdYmj6irV1/3tQJAD/Up1y/4nZnv3Vc9+0hHKwCUWO2xzOfn/YaPzpX4+CCZ4I2h54tnP/k9ZXvvhj7p3u7qBu8gM2OSF/RRV6e/Mz0Jh/vx2fK7cF4qg37qZVtMBCX5DVmmc0rsJusLASBrWvdi09RHat+8ZXWzj/6hTcNy8sHGNq3uT7Lqc5wYNpKVBEVeW3K9Kn6RJToppMgKAaAa+uSPbQZhnBvLTm8Mis6x4rYDtFb2Zs6h4gdyYVc3vxouEgYCgJbUlBLgIvSTUhn4SH1twiEt0VP17rYrheebLNH3cuFHJoLkXU6J7YT8aHByWUXfL9XJSxcCwKjRrKHPR7Fz47ms1I4SmcGFs1pZ+SYeUf5LDNMXZfXRcPLurB8Rfcga+pRbqRpvEynmLQgACkgRjVP/g23Ix03+M/MK5RQDjxu6Xp3TJzqpDyc/2t82BAAtqcUWAGS/XF8TfUi3lNr0ttnq99/qdwIBYNRwLZbXpZ2umNVJp1FBV1ZWnJXJs1q1ecMc0jY9CAADQFU3hiylEx3id5BZXju7BPrTCTNiJcYz3PnyWeLACkAE7ZZbAENPkDfLVkJENaKDytZfT9ta3VhAABi1nRwJtpFKxbJtOUpgxhfihbWjPlS3vuON43uNAJAa+if1xOwBGi5O8p1ZLW039W/nm+CE4erpLVuGud4o+5+i+NVU5qGeYQVAT9YynbggfSYbDOVIr7X2nvoatA+ZHeslunyO9f9y16OwG+EYoN+CkYbE9qTpfvv78Wd9nRk/Y37vHPvQTsv8F13tDiyNHQA5MiLKey00enuTtlxjXyxvEV3B991h5fSBGIaYU4e8QjRelUoufVd9lB4EgBEKzcVWS/TnKo9nYcGvy2/sXNmf7/vobAiAbE05t8Gz2xIgukDGsD7qutEEgKC1P78PGvp8qH1n9dwSPT7k3rjnMXmXbDmLu+I+6rhMAsCovtJZRKu/F414v2PVX++2RJ+TgWoe+06jiisuUqIHiTQd5Uegvt5NA7u45jxRrHAtChMIAIoOMh1kszHmUaKQpLR73tQntM92Zcp0RI/v+8z9dPWa77ijeh/uqCDYVO891tCpxiR/1KfBmo0mAGQ2ARrP+49XIsUzYHOrzvZpfnQ8OdgyXdrzZO/3qytl26Nv2xxLKQD4zSvHqzLlntxk7rdbnDX2IY+v8yXCE8XqkhgE8vNchmvRWHUuND/Qs6B0iVhMG9jaVSvE2XGvGZ/v19oSWDQ7ADWAN8sRJLGNL94sLZMoO/VxDFR+V5fktjX42XJcrib/ud2W42j5MWGSMWRPx4H8WjlGK8eM+3pTK4PJbHME+rphfks53iJ/t8zPDv2epA/5XgIXqT6ZzQmTPCn77Ri6vmMfkpWps6QN3RHq4DHUNiyyrfVAP5ItszZpzyvOFtkfMsY8WYzX5Ect6ITsDZ7pW+5sstgGOM/m30+zRB8yRG9NOTlYzvEugJe03tllNgSInirntN3b3qct0+mW+buOSYT9g36PaPVeWSTYJ4GtYmEzO0ZH9AZZfsyM+uRHt2SylN+S/IvNiG/Jka5ceOCj8wlw9ZFydLXPAg2dVuZIKFva5ddne9OGTs3HisxOSFHfs6yhr8tKRr5/nRwqjJw10sGPAw/NAOl3JrAlTVd/w3mlPMpw8rF8vM2EateHsv4kv5lTneG5oyS8mEiOdX7VubRIYO8mkEnfUW8+/Pq9mxhqDwIgAAIgAAIbhIAz9zveBgnoBhiiV22QqqMaIAACIAACILB3E7BMR8XsXc3zPO7e3VKoPQiAAAiAAAj0S2CTwk/35CqBoWPmrc3dLwKkBgIgAAIgAAJ7IQE51hdrU0CcKW3btu2ueyEuVBkEQAAEQAAENg6B3Dxn8pWY7YCU6Qezsua2cUijJiAAAiAAAiCwYARyX9T0pUgh4GeW+cV9WDtbMBwoDgiAAAiAAAjsPQRECGjpOOYLa8y/ufeQQk1BAARAAARAYIMRcN66TotZCSjCGqZP2yR5QgvrXZuwnbDBOhKqAwIgAAIgsHwExN61s6Y4eQIgYCugEASsmMY09BGxRLjG/Oi1JPk1MZMqVtcyj4bW3tMSPcyY5IVibc7ZqD5j+UihxCAAAiAAAiCwwQiIrWvLJL4F2gkB8fEgAGywPoTqgAAIgAAILDEB8ZkwoPc0X7iAALDE/QRFBwEQAAEQ2IAEMucwTDcPvBoAAWAD9h1UCQRAAARyxNWmAAAC6UlEQVRAYMkJiJa/5cyjlf/W3uc1BIAl7yMoPgiAAAiAwAYlkB0TNPT2gbYEIABs0H6DaoEACIAACGwQAsz8AGvokzbKpXBQmRACwAbpH6gGCIAACIDABicgx/ss03G2H/0ACAAbvL+geiAAAiAAAhuMQGY8iOhpluh4y3RltLKgoR/D1fAG6xSoDgiAAAiAwN5HIE1Ta4keb4kOsZwcbojemhL9szV0jGU+UgwEWeaDUqLHMfPd9z5CqDEIgAAIgAAIgAAIgAAIgAAIgAAIgAAIgAAIgAAIgAAIgAAIgAAIgAAIgAAIgAAIgAAIgAAIgAAIgAAIgAAIgAAIgAAIgAAIgAAIgAAIgAAIgAAIgAAIgAAIgAAIgAAIgAAIgAAIgAAIgAAIgAAIgAAIgAAIgAAIgAAIgAAIgAAIgAAIgAAIgAAIgAAIgAAIgAAIgAAIgAAIgAAIgAAIgAAIgAAIgAAIgAAIgAAIgAAIgAAIgAAIgAAIgAAIgAAIgAAIgAAIgAAIgAAIgAAIgAAIgAAIgAAIgAAIgAAIgAAIgAAIgAAIgAAIgAAIgAAIgAAIgAAIgAAIgAAIgAAIgAAIgAAIgAAIgAAIgAAIgAAIgAAIgAAIgAAIgAAIgAAIgAAIgAAIgAAIgAAIgAAIgAAIgAAIgAAIgAAIgAAIgAAIgAAIgAAIgAAIgAAIgAAIgAAIgAAIgAAIgAAIgAAIgAAIgAAIgAAIgAAIgAAIgAAIgAAIgAAIgAAIgAAIgAAIgAAIgAAIgAAIgAAIgAAIgAAIgAAIgAAIgAAIgAAIgAAIgAAIgAAIgAAIgAAIgAAIgAAIgAAIgAAIgAAIgAAIgAAIgAAIgAAIgAAIgAAIgAAIgAAIgAAIgAAIgAAIgAAIgAAIgAAIgAAIgAAIgAAIgAAIgAAIgAAIgAAIgAAIgAAIgAAIgAAIgAAIgAAIgAAIgAAIgAAIgAAIgAAIgAAIgAAIgAAIgAAIgAAIzIrA/wfOTcNsqP3HzQAAAABJRU5ErkJggg==;" vertex="1" parent="1">
          <mxGeometry x="-217" y="10" width="72" height="72" as="geometry" />
        </mxCell>
      </root>
    </mxGraphModel>
  </diagram>
</mxfile>
